<?xml version="1.0" encoding="utf-8"?>
<!-- Generator: Adobe Illustrator 26.3.1, SVG Export Plug-In . SVG Version: 6.00 Build 0)  -->
<svg version="1.1" id="Capa_1" xmlns="http://www.w3.org/2000/svg" xmlns:xlink="http://www.w3.org/1999/xlink" x="0px" y="0px"
	 viewBox="0 0 83.9 75.7" style="enable-background:new 0 0 83.9 75.7;" xml:space="preserve">
<style type="text/css">
	.st0{fill:#E31A52;}
</style>
<path class="st0" d="M142.5,64.2c-14.6,0-26.4-11.8-26.4-26.3c0-14.6,11.8-26.4,26.3-26.4c14.6,0,26.4,11.8,26.4,26.3
	c0.1,14.5-11.7,26.3-26.2,26.4C142.6,64.2,142.6,64.2,142.5,64.2z M139.2,37.9c-1.6,1.5-3.1,2.9-4.6,4.4c-0.3,0.3-0.5,0.6-0.7,0.9
	c-0.6,1-0.5,2.3,0.4,3c0.8,0.9,2.1,0.9,3,0.2c0.3-0.2,0.6-0.5,0.8-0.7c1.4-1.4,2.9-2.8,4.3-4.2c1.1,1,2.2,2.1,3.2,3.1
	c0.7,0.7,1.4,1.3,2.1,1.9c0.9,0.8,2.2,0.7,2.9-0.2c0,0,0,0,0.1-0.1c0.9-0.7,1.1-2.1,0.4-3c0,0,0,0,0,0c-0.5-0.6-1-1.2-1.6-1.8
	c-1.1-1.2-2.3-2.4-3.4-3.5c0.1-0.1,0.1-0.2,0.1-0.2c0.9-0.9,1.8-1.8,2.6-2.7c0.9-0.9,1.5-1.5,2.2-2.4c0.8-0.9,0.6-2.3-0.3-3.1
	c-0.1-0.1-0.2-0.1-0.2-0.2c-1-0.9-2.5-0.7-3.4,0.3c0,0-0.1,0.1-0.1,0.1c-1.5,1.5-3,3.2-4.5,4.8c-1.5-1.5-2.8-2.8-4.1-4
	c-0.4-0.5-0.9-0.9-1.4-1.3c-1-0.7-2.5-0.4-3.2,0.6c0,0.1-0.1,0.1-0.1,0.2c-0.7,1-0.4,2.4,0.5,3.2C135.9,34.6,137.4,36.2,139.2,37.9z
	"/>
<g>
	<path class="st0" d="M62.8,29.7c-0.1,1.4-0.2,2.9-0.3,4.3c0,0.3-0.3,0.5-0.5,0.7c-5,5-10,10-15,15c-5.4,5.4-10.8,10.8-16.2,16.2
		c-1.2,1.2-2.6,1.2-3.9,0C22.4,61.4,18,57,13.5,52.5c-1.2-1.2-1.2-2.6,0-3.8C24,38.3,34.5,27.8,45,17.3c0.2-0.2,0.6-0.4,0.9-0.4
		c3.8-0.3,7.5-0.5,11.3-0.8c1.2-0.1,2.4-0.2,3.6-0.2c1.9-0.1,3,0.9,2.8,2.8c-0.1,1.8-0.3,3.7-0.4,5.5c0,0.3-0.2,0.5-0.5,0.5
		c-1.2,0.2-2.4,0.1-3.5-0.4c-0.2-0.1-0.4-0.4-0.5-0.6c-0.4-2-2.2-3.2-4.2-3c-1.8,0.3-3.2,2-3.1,3.8c0.1,2,1.8,3.4,3.8,3.4
		c0.2,0,0.4,0,0.6,0.1C58.9,29.6,59.6,29.8,62.8,29.7z M35.5,49.2c-1.2-0.3-2.3-0.6-3.4-0.9c0.2-1.6-0.3-2.7-1.6-3.4
		c-1.1-0.6-2.2-0.3-3.3,0.8c-0.5,0.5-1,1-1.5,1.5c-0.4,0.4-0.4,0.6,0,1c1.8,1.7,3.5,3.5,5.3,5.2c1,1,0.7,1,1.8,0
		c0.4-0.4,0.4-0.6,0-1c-0.7-0.6-1.3-1.3-2-1.9c0.3-0.5,0.6-0.6,1.1-0.4c0.9,0.3,1.8,0.6,2.8,0.8c0.2,0.1,0.6,0,0.8-0.2
		c0.6-0.5,1.1-1.1,1.7-1.7c0.3-0.3,0.3-0.5,0.1-0.8c-0.3-0.6-0.6-1.2-1-1.9c0.3-0.2,0.6-0.5,0.9-0.8c1-0.9,0.9-0.9,2.2-0.3
		c1.3,0.6,0.9,0.7,1.9-0.3c0.6-0.5,0.5-0.7-0.2-1c-2.4-1.2-4.7-2.4-7.1-3.5c-1.3-0.6-0.9-0.7-2,0.3c-0.3,0.3-0.4,0.6-0.2,1
		c0.6,1.2,1.2,2.3,1.8,3.5C34.2,46.6,34.8,47.8,35.5,49.2z M43.3,37.7C43.3,37.7,43.2,37.7,43.3,37.7c-1.7-0.4-3.4-0.7-5-1.3
		c-1.1-0.4-1.8-0.1-2.5,0.7c-0.2,0.3-0.3,0.5,0,0.8c2,2,3.9,3.9,5.9,5.9c0.1,0.1,0.4,0.2,0.4,0.2c0.4-0.3,0.8-0.6,1-1
		c0.1-0.1-0.2-0.5-0.4-0.7c-1.1-1.2-2.3-2.3-3.6-3.6c1.8,0.5,3.6,0.9,5.3,1.5c1,0.3,1.6,0.2,2.2-0.6c0.4-0.4,0.4-0.7,0-1.1
		c-1.8-1.7-3.5-3.5-5.3-5.3c-0.9-0.9-0.7-0.9-1.7,0c-0.4,0.4-0.4,0.6,0,0.9C40.9,35.3,42.1,36.5,43.3,37.7z M26.8,52.3
		c0-1.2-0.6-2-1.7-2.5c-1-0.5-1.9,0-2.6,0.6c-0.8,0.7-1.5,1.5-2.3,2.2c-0.3,0.3-0.2,0.5,0,0.7c2,2,3.9,3.9,5.9,5.9
		c0.3,0.3,0.5,0.3,0.8,0c0.7-0.7,1.4-1.3,2-2.1c0.4-0.5,0.8-1.1,0.9-1.8C30.2,53.7,28.8,52.3,26.8,52.3z M51.5,32.8
		c-0.1-1.7-1.2-3-2.6-4.1c-1.7-1.2-3.6-1.1-5.2,0.3c-0.6,0.6-1.2,1.2-1.8,1.8c-0.3,0.3-0.3,0.5,0,0.8c2,2,3.9,3.9,5.9,5.9
		c0.3,0.3,0.5,0.3,0.8,0c0.6-0.6,1.2-1.2,1.7-1.8C51,35,51.5,34.1,51.5,32.8z"/>
	<path class="st0" d="M52.7,14.8c1-2.2,2.5-3.9,4.6-4.9c3.7-1.7,7.3-1.4,10.5,1.3c3.1,2.6,4.1,6.1,3,10c-1.1,3.9-3.9,6.3-8,6.8
		c-3.8,0.5-6.9-1-9.1-4.1c-0.4-0.5-0.3-0.7,0.3-1.2c0.4-0.3,0.7-0.2,1,0.2c2,2.8,4.8,4,8.2,3.3c3.3-0.7,5.4-2.8,6.2-6.2
		c0.8-3.7-1.1-7.4-4.6-8.9c-3.4-1.5-7.5-0.5-9.6,2.6C54.5,14.7,53.8,14.8,52.7,14.8z"/>
	<path class="st0" d="M29.4,49.2c-0.5-0.5-1-1-1.5-1.5c0.8-1.1,1.4-1.3,2-0.7C30.6,47.6,30.5,48.2,29.4,49.2z"/>
	<path class="st0" d="M36.4,43.7c-0.4,0.4-0.7,0.7-1,1c-0.4-0.7-0.7-1.3-1-1.9c0,0,0-0.1,0.1-0.1C35,43,35.6,43.3,36.4,43.7z"/>
	<path class="st0" d="M26.7,56.9c-0.5-0.5-1-1-1.5-1.6c0.3-0.3,0.7-0.7,1.1-1c0.4-0.3,0.9-0.3,1.3,0.1c0.4,0.4,0.5,0.9,0.2,1.3
		C27.4,56.1,27,56.5,26.7,56.9z"/>
	<path class="st0" d="M23.9,54.1c-0.4-0.5-0.8-0.9-1.3-1.3c0.4-0.3,0.7-0.7,1.1-1c0.4-0.3,0.7-0.2,1,0.1c0.3,0.3,0.4,0.7,0.1,1.1
		C24.6,53.4,24.2,53.7,23.9,54.1z"/>
	<path class="st0" d="M48.3,35.2c-1.4-1.3-2.7-2.7-4-4c0.7-0.7,1.3-1.6,2.5-1.2c1.4,0.4,2.3,1.4,2.7,2.7
		C49.8,33.8,49,34.5,48.3,35.2z"/>
</g>
</svg>
