<svg id="Capa_1" data-name="Capa 1" xmlns="http://www.w3.org/2000/svg" viewBox="0 0 83.86 75.67"><defs><style>.cls-1{fill:#e31a52;}</style></defs><title>icon_</title><path class="cls-1" d="M19.71,10.82c.46.21.8.51.69,1.07a.85.85,0,0,1-.94.7H17.32V63.08H59.45c.16,0,.32,0,.47,0,.53,0,1,.06,1.17.64s-.2.91-.68,1.14H16.2a1.29,1.29,0,0,1-.69-1.3c0-6,0-12,0-18v-.71c-.83,0-1.57,0-2.3,0A1.21,1.21,0,0,1,12,44.27V34.21a1.31,1.31,0,0,1,1.24-.58c.75,0,1.5,0,2.25,0V32.33c-.79,0-1.52,0-2.26,0A1.22,1.22,0,0,1,12,31.75v-.58a1.21,1.21,0,0,1,1.22-.6c.75,0,1.51,0,2.27,0V29.27c-.77,0-1.51,0-2.24,0A1.32,1.32,0,0,1,12,28.71V18.65a1.21,1.21,0,0,1,1.22-.6c.75,0,1.5,0,2.27,0V16.74c-.75,0-1.46,0-2.18,0A1.38,1.38,0,0,1,12,16.2v-.71A1.48,1.48,0,0,1,13.31,15c.71,0,1.43,0,2.21,0,0-1,0-2,0-2.89a1.23,1.23,0,0,1,.69-1.28Zm-5.93,9v7.63h1.7V19.84Zm1.71,23.24V35.43H13.78v7.65Z"/><path class="cls-1" d="M64.15,64.86c-.21-.22-.5-.4-.62-.65-.25-.57.21-1.12.93-1.13h5.63V12.59H24c-.49,0-.95,0-1.13-.6s.17-.9.6-1.17H71.87v54Z"/><path class="cls-1" d="M54.36,16.71c0-.43,0-.84,0-1.25,0-.68.35-1.06.9-1.05s.84.36.85,1c0,.37,0,.74,0,1.11a.54.54,0,0,0,.05.16h1.34c0-.4,0-.82,0-1.24,0-.68.34-1.07.89-1.06s.85.37.86,1.08c0,.39,0,.78,0,1.22h1.4c0-.43,0-.85,0-1.28,0-.64.34-1,.87-1s.87.36.88,1c0,.43,0,.85,0,1.35.5,0,1,0,1.39,0a.87.87,0,0,1,1,1c0,.44,0,.88,0,1.38.51,0,1,0,1.4,0a.88.88,0,0,1,1,.88.89.89,0,0,1-1,.87l-1.28,0s0,0-.08.06v1.32c.46,0,.9,0,1.34,0,.6,0,1,.33,1,.83a.9.9,0,0,1-1,.92H64.82v1.4h1.3c.64,0,1,.34,1,.87s-.4.86-1,.88c-.42,0-.84,0-1.3,0,0,.23,0,.4,0,.57s0,.5,0,.83h1.38c.6,0,1,.34,1,.85a.9.9,0,0,1-1,.9c-.44,0-.89,0-1.41,0,0,.49,0,.94,0,1.38a.88.88,0,0,1-1,1c-.43,0-.86,0-1.39,0,0,.46,0,.9,0,1.34,0,.64-.34,1-.87,1s-.86-.39-.88-1c0-.21,0-.43,0-.64v-.68h-1.4c0,.49,0,.93,0,1.37,0,.61-.33,1-.85,1a.89.89,0,0,1-.9-.95c0-.23,0-.46,0-.7v-.7h-1.4c0,.47,0,.91,0,1.35,0,.62-.32,1-.83,1s-.9-.35-.92-1c0-.42,0-.85,0-1.32H53c0,.47,0,.91,0,1.35a.87.87,0,0,1-.88,1,.89.89,0,0,1-.87-.92c0-.23,0-.46,0-.7v-.73c-.47,0-.91,0-1.35,0a.91.91,0,0,1-1-1c0-.43,0-.85,0-1.34H47.59c-.69,0-1.09-.33-1.1-.87s.4-.87,1.08-.88h1.11s.07,0,.13-.07V27.18c-.43,0-.85,0-1.27,0-.67,0-1.07-.37-1-.92s.4-.82,1-.83h1.26V24H47.5c-.63,0-1-.37-1-.9s.39-.85,1-.85c.41,0,.82,0,1.27,0V20.87H47.53c-.64,0-1-.34-1-.86a.9.9,0,0,1,1-.89c.43,0,.85,0,1.34,0,0-.5,0-.94,0-1.38a.89.89,0,0,1,1-1c.43,0,.85,0,1.38,0,0-.46,0-.88,0-1.3,0-.69.35-1.06.9-1.05s.84.37.85,1c0,.4,0,.81,0,1.26ZM63,30.91V18.56H50.64V30.91Z"/><path class="cls-1" d="M64.77,52.43c0,.33,0,.59,0,.86a.86.86,0,0,1-.88.9,4.51,4.51,0,0,1-.52,0H43.27c-1.32,0-1.44-.12-1.51-1.46,0-.08,0-.15,0-.31H40.45c-.66,0-1.07-.39-1.05-.92s.41-.82,1.06-.84h1.27c0-.33,0-.62.05-.9a.83.83,0,0,1,.85-.86c.21,0,.42,0,.64,0h20c1.3,0,1.41.1,1.47,1.42,0,.1,0,.19,0,.35.46,0,.9,0,1.34,0a.87.87,0,0,1,1,.86.89.89,0,0,1-1,.88C65.74,52.44,65.29,52.43,64.77,52.43Zm-21.21,0H63c0-.2,0-.37,0-.54,0-.38,0-.76,0-1.16H43.56Z"/><path class="cls-1" d="M64.77,59.55c0,.3,0,.59,0,.88a.81.81,0,0,1-.81.83,4.7,4.7,0,0,1-.53,0H42.63a.83.83,0,0,1-.85-.86c0-.29,0-.57,0-.91H40.35a.87.87,0,0,1-1-.82.9.9,0,0,1,.93-.92c.45,0,.89,0,1.44,0,0-.31,0-.57,0-.83a.89.89,0,0,1,1-.94H63.25c1.34,0,1.47.12,1.53,1.44,0,.09,0,.18,0,.33.44,0,.87,0,1.29,0,.63,0,1,.36,1,.88s-.38.85-1,.87H65Zm-21.2-1.8v1.73H63V57.75Z"/><path class="cls-1" d="M29.08,15.54c.06-.59.2-1.1.89-1.13.53,0,.77.25,1,1.17h.66c.73,0,1,.31,1,1,0,.16,0,.31,0,.47V37c0,1.4-.09,1.51-1.51,1.57l-.21,0c-.08.57-.22,1.15-1,1.13s-.84-.53-.87-1.17h-.77a.9.9,0,0,1-1-1c0-.18,0-.35,0-.53V17.2c0-1.47.07-1.55,1.52-1.62A1.51,1.51,0,0,0,29.08,15.54Zm.05,1.83V36.8h1.73V17.37Z"/><path class="cls-1" d="M23.85,38.61c-.15.83-.44,1.17-1,1.16s-.79-.34-.9-1.19c-.27,0-.55,0-.84,0a.85.85,0,0,1-.88-.88c0-.18,0-.35,0-.53v-20c0-1.41.08-1.49,1.46-1.54a1.46,1.46,0,0,0,.22,0c.23-.9.46-1.16,1-1.14s.77.32.91,1.17h.66c.73,0,1,.31,1,1,0,.47,0,.94,0,1.41V37.13c0,1.28-.15,1.43-1.44,1.46Zm-.08-1.81V17.37H22.06V36.8Z"/><path class="cls-1" d="M43.22,38.74H48.3c.84,0,1.12.29,1.12,1.13,0,1.42,0,2.84,0,4.27,0,.75-.31,1.07-1.06,1.07H38.13c-.79,0-1.1-.31-1.1-1.11q0-2.13,0-4.26c0-.79.31-1.09,1.1-1.1Zm-4.41,4.67h8.82V40.53H38.81Z"/><path class="cls-1" d="M35.25,55.15c0,1.66,0,3.31,0,5,0,.86-.29,1.15-1.16,1.16H29.88c-.83,0-1.12-.29-1.12-1.14V50c0-.85.29-1.13,1.13-1.13h4.27c.79,0,1.09.31,1.09,1.11C35.26,51.72,35.25,53.43,35.25,55.15Zm-1.78,4.37V50.7H30.52c0,2.87,0,5.69,0,8.51a.42.42,0,0,0,.25.3C31.66,59.53,32.55,59.52,33.47,59.52Z"/><path class="cls-1" d="M20.27,55.09c0-1.69,0-3.39,0-5.08,0-.82.27-1.1,1.08-1.11h4.32c.77,0,1.06.31,1.06,1.07V60.2c0,.76-.29,1.07-1.05,1.08-1.46,0-2.92,0-4.38,0-.74,0-1-.3-1-1C20.26,58.52,20.27,56.81,20.27,55.09Zm1.8-4.41V59.5h2.86V50.68Z"/><path class="cls-1" d="M36.91,25.41a3.24,3.24,0,0,1,6.48,0,3.24,3.24,0,1,1-6.48,0Zm4.72,0a1.49,1.49,0,0,0-1.47-1.51,1.49,1.49,0,0,0,0,3A1.48,1.48,0,0,0,41.63,25.45Z"/><path class="cls-1" d="M40.16,36.45a3.23,3.23,0,1,1,3.24-3.22A3.24,3.24,0,0,1,40.16,36.45Zm0-4.7a1.48,1.48,0,0,0-.07,3,1.48,1.48,0,1,0,.07-3Z"/><path class="cls-1" d="M40.23,14.4a3.24,3.24,0,0,1-.14,6.47,3.24,3.24,0,1,1,.14-6.47Zm-.1,4.71a1.48,1.48,0,0,0,1.5-1.46,1.46,1.46,0,0,0-1.41-1.49,1.48,1.48,0,1,0-.09,2.95Z"/><path class="cls-1" d="M62.41,42c0,.9,0,1.79,0,2.69,0,.63-.35,1-.88,1s-.86-.38-.87-1q0-2.68,0-5.37c0-.64.35-1,.89-1s.86.36.86,1C62.42,40.19,62.41,41.09,62.41,42Z"/><path class="cls-1" d="M53.2,42c0,.89,0,1.79,0,2.68,0,.62-.32,1-.83,1a.88.88,0,0,1-.91-1q0-2.71,0-5.43c0-.64.36-1,.9-1s.83.35.84,1C53.21,40.17,53.2,41.08,53.2,42Z"/><path class="cls-1" d="M54.53,42c0-.89,0-1.78,0-2.68,0-.64.29-1,.82-1a.86.86,0,0,1,.92,1c0,1.81,0,3.62,0,5.42,0,.64-.36,1-.9,1s-.84-.37-.84-1C54.53,43.74,54.53,42.85,54.53,42Z"/><path class="cls-1" d="M57.6,42c0-.9,0-1.79,0-2.69,0-.64.35-1,.89-1a.87.87,0,0,1,.86,1q0,2.72,0,5.43a.88.88,0,0,1-.89,1c-.53,0-.85-.39-.86-1C57.59,43.74,57.6,42.85,57.6,42Z"/><path class="cls-1" d="M26.43,43.79c-.31,0-.62,0-.93,0a.89.89,0,0,1-.85-.88.87.87,0,0,1,.86-.86c.64,0,1.28,0,1.92,0a.79.79,0,0,1,.81.83.82.82,0,0,1-.76.89,9.19,9.19,0,0,1-1.05,0Z"/><path class="cls-1" d="M26.42,46.85c-.31,0-.63,0-.94,0a.81.81,0,0,1-.82-.82.79.79,0,0,1,.75-.89,12.16,12.16,0,0,1,2.09,0,.78.78,0,0,1,.74.9.81.81,0,0,1-.83.81C27.08,46.87,26.75,46.85,26.42,46.85Z"/><path class="cls-1" d="M21.57,43.78a2.25,2.25,0,0,1-.58,0,.82.82,0,0,1-.71-.91.79.79,0,0,1,.77-.8,5.78,5.78,0,0,1,.93,0,.89.89,0,0,1,1,.87.92.92,0,0,1-1,.88h-.41Z"/><path class="cls-1" d="M21.6,46.86h-.41a.83.83,0,0,1-.91-.84.86.86,0,0,1,.87-.9,5.47,5.47,0,0,1,.81,0A.91.91,0,0,1,23,46c0,.51-.4.82-1,.84Z"/><path class="cls-1" d="M31.27,46.85a3.13,3.13,0,0,1-.53,0A.8.8,0,0,1,30,46.1a.74.74,0,0,1,.55-.9,4.66,4.66,0,0,1,1.49,0,.75.75,0,0,1,.61.87.81.81,0,0,1-.78.8A5.61,5.61,0,0,1,31.27,46.85Z"/><path class="cls-1" d="M31.27,43.78a2.25,2.25,0,0,1-.58,0,.82.82,0,0,1-.71-.91.79.79,0,0,1,.77-.8,5.78,5.78,0,0,1,.93,0,.88.88,0,0,1,1,.87.9.9,0,0,1-1,.88h-.41Z"/><path class="cls-1" d="M61.24,24.74c0,1.11,0,2.22,0,3.33,0,.76-.3,1.07-1.06,1.08q-3.36,0-6.72,0c-.73,0-1.05-.32-1.05-1,0-2.26,0-4.51,0-6.77,0-.75.33-1,1.1-1q3.3,0,6.6,0c.83,0,1.13.29,1.13,1.11C61.24,22.52,61.24,23.63,61.24,24.74Zm-7.05-2.66v5.27h5.25V22.08Z"/></svg>