<svg id="Capa_1" data-name="Capa 1" xmlns="http://www.w3.org/2000/svg" viewBox="0 0 83.86 75.67"><defs><style>.cls-1{fill:#e31a52;}</style></defs><title>icon_</title><path class="cls-1" d="M71.41,28.83a11.05,11.05,0,0,1-1,1.39Q59.73,40.93,49,51.6c-1.23,1.23-2.19,1.24-3.4,0-.54-.54-1.06-1.09-1.54-1.57l-3.34,3.33c.49.49,1.07,1,1.64,1.63a2,2,0,0,1,0,3.23c-2.63,2.64-5.25,5.28-7.9,7.89a15.19,15.19,0,0,1-1.56,1.18h-.7c-1.33-.46-2-1.76-3-2.53a2,2,0,0,1-2.76-.15Q22.74,61,19.1,57.32a1.94,1.94,0,0,1-.42-2.4,2.76,2.76,0,0,0,.25-1.12,1.82,1.82,0,0,0-2.7-1.5A2,2,0,0,1,14,52.17a4.15,4.15,0,0,1-1.54-1.94v-.7a12.5,12.5,0,0,1,1.1-1.47Q32.78,28.79,52,9.56a17.07,17.07,0,0,1,1.47-1.2h.94a.67.67,0,0,0,.14.09,2.74,2.74,0,0,1,1.73,3.86,1.87,1.87,0,0,0,2.59,2.33,2,2,0,0,1,2.68.48L68.48,22c1.08,1.08,1.18,1.75.35,3.18a5.55,5.55,0,0,1,.73.59c.63.73,1.23,1.48,1.85,2.22ZM54.11,10.46,14.48,49.93a1,1,0,0,0,1.41.44,3.71,3.71,0,0,1,4.87,2.47,4.06,4.06,0,0,1-.32,3l7.39,7.25L67.37,23.67c-.11-.13-.23-.26-.35-.38Q63.68,20,60.35,16.65a.64.64,0,0,0-.84-.17,3.57,3.57,0,0,1-4.06-.72,3.5,3.5,0,0,1-1-4A.94.94,0,0,0,54.11,10.46ZM50.64,47l1.85-1.8L50.64,43.4l-1.83,1.79Zm-1.45,1.55-1.86-1.84-1.81,1.81,1.84,1.82ZM32.53,65.22l1.88-1.84-1.85-1.85-1.88,1.84ZM69.34,28.48l-1.83-1.95-1.83,1.86,1.86,1.87ZM66,31.82l-1.86-1.9-1.89,1.86,1.88,1.89ZM55.57,38.48l1.81,1.79,1.82-1.82-1.79-1.84Zm-16.29,20,1.8-1.78-1.82-2-1.85,1.86ZM60.7,37l1.84-1.79-1.82-1.8-1.86,1.75Zm-8.49,4.84,1.87,1.88,1.82-1.8L54,40ZM35.89,61.9,37.79,60l-1.87-1.87L34,60Z"/><path class="cls-1" d="M62.14,24.42a6.65,6.65,0,0,1-.78,1.38c-1.49,1.57-3,3.09-4.57,4.6a1.91,1.91,0,0,1-2.82,0q-3.33-3.28-6.62-6.61a1.91,1.91,0,0,1,0-2.82c1.53-1.55,3.07-3.1,4.63-4.63a1.88,1.88,0,0,1,2.77,0c2.25,2.21,4.49,4.44,6.69,6.7A5.75,5.75,0,0,1,62.14,24.42Zm-6.83,4.44,4.48-4.49-6.45-6.48L48.83,22.4Z"/><path class="cls-1" d="M36,50.56A7,7,0,0,1,35.19,52c-1.51,1.57-3.06,3.11-4.62,4.64a1.92,1.92,0,0,1-2.78,0q-3.34-3.3-6.65-6.65a1.89,1.89,0,0,1,0-2.78q2.3-2.34,4.63-4.62a1.92,1.92,0,0,1,2.86,0c2.18,2.17,4.37,4.34,6.52,6.54A7.69,7.69,0,0,1,36,50.56Zm-2.25,0L27.2,44.08l-4.51,4.46,6.54,6.54Z"/><path class="cls-1" d="M46.65,39.9a6.33,6.33,0,0,1-1.4-.77C43,37,40.82,34.75,38.62,32.53a1.93,1.93,0,0,1,0-2.86c1.5-1.53,3-3,4.55-4.55a1.92,1.92,0,0,1,2.86,0q3.33,3.29,6.61,6.61a1.91,1.91,0,0,1,0,2.82c-1.52,1.54-3,3.08-4.6,4.58A6.77,6.77,0,0,1,46.65,39.9Zm-6.54-8.81,6.51,6.53,4.51-4.51-6.52-6.53Z"/><path class="cls-1" d="M35.9,33.06a6.34,6.34,0,0,1,1.4.78c2.23,2.18,4.43,4.39,6.62,6.6a1.91,1.91,0,0,1,0,2.82q-2.27,2.33-4.58,4.59a1.93,1.93,0,0,1-2.87,0q-3.3-3.27-6.57-6.57a1.92,1.92,0,0,1,0-2.86c1.52-1.54,3-3.08,4.6-4.58A6.33,6.33,0,0,1,35.9,33.06Zm-4.54,6.78,6.53,6.51,4.49-4.49-6.51-6.52Z"/></svg>