<?xml version="1.0" encoding="utf-8"?>
<!-- Generator: Adobe Illustrator 24.0.1, SVG Export Plug-In . SVG Version: 6.00 Build 0)  -->
<svg version="1.1" id="Capa_1" xmlns="http://www.w3.org/2000/svg" xmlns:xlink="http://www.w3.org/1999/xlink" x="0px" y="0px"
	 viewBox="0 0 83.9 75.7" style="enable-background:new 0 0 83.9 75.7;" xml:space="preserve">
<style type="text/css">
	.st0{fill:#9B9B9B;}
</style>
<title>icon_</title>
<path class="st0" d="M41.9,58.8H21.4c-1.7,0.1-3.4-0.5-4.8-1.6c-1.7-1.4-2.7-3.5-2.6-5.7c0-9.2,0-18.3,0-27.5
	c-0.1-3.9,2.9-7.1,6.8-7.2c0.1,0,0.3,0,0.4,0c13.9,0,27.7,0,41.6,0c3.9-0.1,7.1,3,7.2,6.9c0,0.1,0,0.2,0,0.3c0,9.2,0,18.3,0,27.5
	c0.1,3.9-3,7.2-7,7.2c-0.2,0-0.3,0-0.5,0L41.9,58.8z M42,21.9H27.1c-1.9,0-3.9,0-5.8,0c-1-0.1-2,0.6-2.1,1.7c0,0.1,0,0.3,0,0.4
	c0,0.4,0,0.9,0,1.3c-0.1,0.6,0.2,1.1,0.7,1.5c5.9,4.8,11.7,9.6,17.6,14.4c3,2.5,6.1,2.5,9.1,0c5.6-4.6,11.1-9.2,16.7-13.8
	c1-0.7,1.6-1.9,1.5-3.2c-0.1-1.8-0.7-2.4-2.5-2.4L42,21.9z M19.2,33v18.3c0,1.8,0.5,2.3,2.4,2.3h40.8c1.8,0,2.3-0.5,2.3-2.3
	c0-5.8,0-11.6,0-17.4c0-0.2,0-0.5,0-0.8c-0.2,0.2-0.4,0.3-0.6,0.4c-4.8,3.9-9.5,7.8-14.3,11.8c-4.4,4-11.2,4-15.7,0.1
	c-3.3-2.7-6.6-5.4-9.8-8.1L19.2,33z"/>
</svg>
