<?xml version="1.0" encoding="utf-8"?>
<!-- Generator: Adobe Illustrator 26.3.1, SVG Export Plug-In . SVG Version: 6.00 Build 0)  -->
<svg version="1.1" id="Capa_1" xmlns="http://www.w3.org/2000/svg" xmlns:xlink="http://www.w3.org/1999/xlink" x="0px" y="0px"
	 viewBox="0 0 83.9 75.7" style="enable-background:new 0 0 83.9 75.7;" xml:space="preserve">
<style type="text/css">
	.st0{fill:#E31A52;}
</style>
<g>
	<path class="st0" d="M27.5,55.9c-0.8,0-1.6,0-2.4,0c0,0.2,0,0.3,0,0.5c0,1,0,2,0,3c0,0.8-0.5,1.3-1.3,1.3c-2.3,0-4.7,0-7,0
		c-0.8,0-1.3-0.5-1.3-1.3c0-1.1,0-2.3,0-3.4c-0.8,0-1.6,0-2.4,0c0,0.2,0,0.3,0,0.5c0,2.1,0,4.2,0,6.3c0,0.3-0.1,0.5-0.4,0.4
		c-0.6,0-1.3,0-1.9,0c0-0.2,0-0.4,0-0.5c0-3.2,0-6.5,0-9.7c0-0.5,0-0.5-0.6-0.5c-1,0-1.9,0-2.9,0c-0.9,0-1.3-0.5-1.3-1.3
		c0-3.9,0-7.9,0-11.8c0-0.8,0.5-1.3,1.3-1.3c1,0,2,0,3,0c0.1,0,0.3,0,0.5,0c0-1.6,0-3.2,0-4.8c-0.1,0-0.3,0-0.4,0c-1,0-2,0-2.9,0
		c-1,0-1.4-0.4-1.4-1.4c0-2.3,0-4.6,0-6.9c0-0.9,0.4-1.3,1.3-1.3c1,0,2.1,0,3.1,0c0.3,0,0.4-0.1,0.4-0.4c0-2.6,0-5.1,0-7.7
		c0-0.3-0.1-0.4-0.4-0.4c-1.3,0-2.6,0-3.9,0c-0.2,0-0.3,0-0.5,0c0-0.8,0-1.6,0-2.4c0.1,0,0.3,0,0.4,0c1.8,0,3.6,0,5.4,0
		c1,0,1.4,0.4,1.4,1.4c0,1.8,0,3.6,0,5.4c0,0.3,0.1,0.4,0.4,0.4c20.8,0,41.7,0,62.5,0c0.3,0,0.6,0,0.9,0c0.7,0,1.1,0.5,1.2,1.1
		c0,0.2,0,0.5,0,0.7c0,10.9,0,21.8,0,32.7c0,1.1-0.4,1.5-1.5,1.5c-6.9,0-13.9,0-20.8,0c-0.2,0-0.3,0-0.5,0c0,0.2,0,0.3,0,0.5
		c0,1,0,2,0,3c0,0.9-0.5,1.3-1.3,1.3c-8.3,0-16.6,0-25,0c-0.9,0-1.3-0.5-1.4-1.4C27.5,58.2,27.5,57.1,27.5,55.9z M13,53.5
		c0.2,0,0.4,0,0.5,0c20.5,0,41.1,0,61.6,0c0.4,0,0.5-0.1,0.5-0.5c0-10.2,0-20.3,0-30.5c0-0.1,0-0.2,0-0.4c-0.2,0-0.3,0-0.4,0
		c-20.5,0-41.1,0-61.6,0c-0.5,0-0.5,0-0.5,0.5c0,10.1,0,20.2,0,30.2C13,53.1,13,53.3,13,53.5z M29.9,58.3c0.2,0,0.4,0,0.5,0
		c7.3,0,14.5,0,21.8,0c0.1,0,0.2,0,0.4,0c0.1,0,0.2-0.1,0.2-0.2c0-0.7,0-1.5,0-2.2c-7.7,0-15.2,0-22.9,0
		C29.9,56.7,29.9,57.5,29.9,58.3z M10.6,49.9c0-3.2,0-6.4,0-9.6c-0.8,0-1.6,0-2.4,0c0,0.2,0,0.3,0,0.4c0,2.8,0,5.5,0,8.3
		c0,0.2,0,0.4,0,0.6c0,0.1,0.1,0.2,0.2,0.2C9.1,49.9,9.9,49.9,10.6,49.9z M10.6,25.8c-0.8,0-1.5,0-2.2,0c-0.1,0-0.2,0.2-0.2,0.3
		c0,1.4,0,2.8,0,4.2c0,0.1,0,0.2,0,0.3c0.7,0,1.4,0,2.2,0c0.1,0,0.2-0.2,0.2-0.3c0-0.5,0-1,0-1.5C10.6,27.8,10.6,26.8,10.6,25.8z
		 M17.9,55.9c0,0.8,0,1.5,0,2.2c0,0.1,0.2,0.2,0.3,0.2c1.4,0,2.9,0,4.3,0c0.1,0,0.2-0.1,0.2-0.2c0-0.7,0-1.5,0-2.2
		C21,55.9,19.5,55.9,17.9,55.9z"/>
	<path class="st0" d="M60,51.1c-7.3,0-13.2-5.9-13.2-13.2c0-7.3,5.9-13.3,13.2-13.3c7.2,0,13.2,5.9,13.2,13.1
		C73.2,45.1,67.4,51,60,51.1z M56.3,48c1.6,0.5,3.1,0.8,4.6,0.6c0.1,0,0.3-0.1,0.3-0.2c0.8-1,1.4-2,1.6-3.3c0.2-1.1,0-2.1-0.5-3
		c-0.4,0.1-0.7,0.3-1,0.4c0,0-0.1,0-0.1,0c-0.1,0.1-0.2,0.2-0.2,0.3c-0.6,2.4-2.1,4-4.3,5.1C56.6,47.8,56.5,47.9,56.3,48z
		 M63.7,27.7c-1.6-0.5-3.1-0.8-4.6-0.6c-0.1,0-0.2,0.1-0.3,0.2c-1.1,1.3-1.7,2.8-1.6,4.5c0,0.7,0.2,1.3,0.6,1.9
		c0.3-0.1,0.6-0.2,0.9-0.4c0.1-0.1,0.3-0.2,0.3-0.4c0.6-2.2,2-3.8,3.9-4.8C63.1,27.9,63.3,27.8,63.7,27.7z M55.8,40.2
		c-0.1-0.3-0.2-0.7-0.4-0.9c-0.1-0.1-0.2-0.3-0.4-0.3c-1.5-0.4-2.8-1.2-3.8-2.4c-0.5-0.7-1-1.4-1.4-2.2c0,0,0,0-0.1,0.1
		c-0.5,1.4-0.7,2.9-0.5,4.4c0,0.1,0.1,0.3,0.2,0.4c0.8,0.7,1.7,1.2,2.7,1.4C53.3,40.9,54.6,40.8,55.8,40.2z M50.2,42.4
		c0,0.1,0.1,0.2,0.1,0.3c0.7,1.3,1.5,2.5,2.7,3.4c0.1,0.1,0.3,0.2,0.5,0.1c0.7-0.1,1.4-0.3,2.1-0.5c1.4-0.5,2.4-1.4,3-2.8
		c0.1-0.3,0.2-0.5-0.2-0.6c-0.2,0-0.4-0.1-0.5-0.2c-0.2-0.1-0.4-0.1-0.6,0c-1.1,0.7-2.3,1-3.6,1C52.4,43.1,51.4,42.9,50.2,42.4z
		 M64.2,35.5c0.1,0.4,0.3,0.7,0.4,1.1c0,0.1,0.2,0.2,0.3,0.2c2.5,0.6,4.1,2.2,5.1,4.4c0,0.1,0.1,0.2,0.2,0.3
		c0.5-1.2,0.8-3.3,0.6-4.5c0-0.1-0.1-0.3-0.2-0.4c-1-0.8-2.1-1.4-3.4-1.6C66.2,34.8,65.2,35,64.2,35.5z M69.7,33.2
		c-0.7-1.4-1.6-2.6-2.8-3.6c-0.1-0.1-0.3-0.1-0.4-0.1c-1,0.1-2,0.4-2.9,0.9c-1,0.6-1.8,1.4-2.3,2.6c-0.1,0.2-0.1,0.3,0.2,0.4
		c0.2,0.1,0.4,0.2,0.7,0.3c0.2,0,0.4,0,0.5,0c1.4-0.9,3-1.2,4.7-1C68.2,32.7,68.9,33,69.7,33.2z M55.4,28.1c-0.1,0-0.1,0-0.2,0
		c-1.4,0.7-2.5,1.6-3.5,2.7c-0.1,0.1-0.1,0.3-0.1,0.4c0.1,1.5,0.6,2.9,1.7,4c0.6,0.6,1.2,1.1,2.1,1.3c0.1-0.3,0.3-0.6,0.4-0.9
		c0.1-0.2,0.1-0.4,0-0.5c-0.7-1.1-1-2.4-1-3.7C54.7,30.2,55,29.2,55.4,28.1z M64.6,47.5c0.1,0,0.1,0,0.1,0c1.4-0.7,2.5-1.6,3.5-2.7
		c0.1-0.1,0.1-0.2,0.1-0.4c-0.2-2-0.9-3.7-2.7-4.8c-0.3-0.2-0.7-0.3-1.1-0.5c-0.2,0.4-0.3,0.7-0.4,1c0,0.1-0.1,0.3,0,0.5
		c1.3,2.1,1.3,4.3,0.5,6.6C64.7,47.3,64.7,47.4,64.6,47.5z M62.4,37.9c0-1.3-1-2.4-2.4-2.4c-1.3,0-2.4,1.1-2.5,2.4
		c0,1.3,1.1,2.4,2.4,2.4C61.3,40.2,62.4,39.2,62.4,37.9z"/>
	<path class="st0" d="M28.7,51.1c-7.2,0-13.2-5.9-13.2-13c0-7.5,5.9-13.4,13.2-13.4c7.3,0,13.2,5.9,13.2,13.2
		C41.9,45.1,36,51,28.7,51.1z M25.1,48C25.1,48,25.1,48.1,25.1,48c1.5,0.6,3,0.8,4.5,0.6c0.1,0,0.2-0.1,0.3-0.1
		c1.3-1.5,2-3.2,1.6-5.3c-0.1-0.4-0.3-0.8-0.4-1.2c-0.4,0.2-0.7,0.3-1.1,0.4c-0.1,0-0.2,0.2-0.2,0.3c-0.5,1.9-1.6,3.4-3.3,4.4
		C26,47.5,25.6,47.7,25.1,48z M32.3,27.7C31.6,27.3,30.1,27,29,27c-1.6,0-1.3-0.2-2.2,1.2c-1,1.5-1.3,3.2-0.6,4.9
		c0.2,0.5,0.2,0.5,0.7,0.3c0.2-0.1,0.4-0.1,0.5-0.2c0.1-0.1,0.2-0.2,0.3-0.3c0.6-2.4,2.1-4,4.3-5.1C32.1,27.8,32.2,27.7,32.3,27.7z
		 M18.9,42.5c0.1,0.1,0.1,0.3,0.2,0.4c0.6,1.1,1.4,2.1,2.3,3c0.3,0.3,0.6,0.4,1,0.3c0.5-0.1,1-0.2,1.4-0.3c1.5-0.5,2.7-1.4,3.4-2.9
		c0.2-0.5,0.2-0.5-0.3-0.7c-0.1-0.1-0.3-0.1-0.4-0.2c-0.2-0.1-0.4-0.1-0.6,0c-1.4,0.9-3,1.2-4.6,0.9C20.5,42.9,19.7,42.7,18.9,42.5z
		 M18.6,34.2c-0.1,0.1-0.1,0.1-0.1,0.1c-0.5,1.4-0.7,2.9-0.6,4.4c0,0.1,0.1,0.2,0.2,0.3c1.1,1,2.5,1.6,4,1.6c0.8,0,1.7-0.1,2.4-0.6
		c-0.1-0.3-0.3-0.6-0.4-0.9c-0.1-0.3-0.2-0.3-0.4-0.4c-1.3-0.3-2.5-1-3.4-2C19.5,36.1,19,35.2,18.6,34.2z M32.9,35.5
		c0.1,0.4,0.3,0.7,0.4,1.1c0,0.1,0.2,0.2,0.3,0.2c2.2,0.5,3.7,1.9,4.8,3.8c0.1,0.3,0.3,0.6,0.4,0.9c0.1-0.1,0.1-0.1,0.1-0.2
		c0.5-1.4,0.7-2.9,0.5-4.4c0-0.1-0.1-0.3-0.2-0.4c-0.9-0.8-2-1.3-3.1-1.5C35,34.8,33.9,34.9,32.9,35.5z M38.5,33.2
		c-0.1-0.2-0.1-0.3-0.2-0.4c-0.5-1-1.2-1.9-2-2.7c-0.5-0.6-1.1-0.7-1.8-0.5c-1.9,0.4-3.4,1.3-4.3,3.1c-0.2,0.5-0.2,0.5,0.3,0.7
		c0.2,0.1,0.3,0.2,0.5,0.2c0.1,0,0.3,0,0.5,0c1.6-1,3.4-1.3,5.2-0.9C37.3,32.8,37.8,33,38.5,33.2z M33.4,47.6c0.1,0,0.2-0.1,0.3-0.1
		c1-0.6,2-1.3,2.8-2.1c0.5-0.5,0.7-1,0.5-1.6c-0.4-1.8-1.2-3.3-2.8-4.2c-0.3-0.1-0.6-0.2-0.8-0.4c-0.2,0.4-0.3,0.7-0.4,0.9
		c-0.1,0.2-0.1,0.3,0,0.5c0.9,1.3,1.2,2.8,1,4.4C33.8,45.9,33.6,46.7,33.4,47.6z M24,28.1c-0.1,0-0.1,0-0.1,0
		c-1.3,0.7-2.5,1.6-3.5,2.7c-0.1,0.1-0.1,0.3-0.1,0.4c0.2,1.9,0.9,3.5,2.4,4.7c0.4,0.3,0.9,0.5,1.3,0.7c0.2-0.4,0.4-0.7,0.5-1.1
		c0-0.1,0-0.3,0-0.4c-1.1-1.7-1.3-3.6-0.8-5.5C23.7,29.1,23.9,28.6,24,28.1z M31.1,37.8c0-1.3-1.1-2.4-2.4-2.4
		c-1.3,0-2.4,1.1-2.4,2.4c0,1.3,1.1,2.4,2.4,2.4C30,40.2,31.1,39.2,31.1,37.8z"/>
	<path class="st0" d="M17.8,27c-0.8,0-1.5,0-2.3,0c0-0.8,0-1.5,0-2.3c0.8,0,1.5,0,2.3,0C17.8,25.4,17.8,26.2,17.8,27z"/>
	<path class="st0" d="M73.2,24.6c0,0.8,0,1.6,0,2.3c-0.8,0-1.5,0-2.4,0c0-0.7,0-1.4,0-2.1c0-0.1,0.1-0.2,0.2-0.2
		C71.7,24.6,72.5,24.6,73.2,24.6z"/>
	<path class="st0" d="M15.5,48.7c0.8,0,1.5,0,2.3,0c0,0.8,0,1.5,0,2.3c-0.8,0-1.5,0-2.3,0C15.5,50.3,15.5,49.5,15.5,48.7z"/>
	<path class="st0" d="M70.8,51c0-0.8,0-1.5,0-2.3c0.8,0,1.5,0,2.3,0c0,0.8,0,1.5,0,2.3C72.4,51,71.6,51,70.8,51z"/>
</g>
</svg>
