<svg id="Capa_1" data-name="Capa 1" xmlns="http://www.w3.org/2000/svg" viewBox="0 0 83.86 75.67"><defs><style>.cls-1{fill:#e31a52;}</style></defs><title>icon_</title><path class="cls-1" d="M71,18.89V47.71a.7.7,0,0,0-.08.2,6.8,6.8,0,0,1-7.19,5.81H44.23v4.54H56v4.53H27.86V58.22H39.63v-4.5H19.87a6.76,6.76,0,0,1-5.76-2.94,7.8,7.8,0,0,1-1.22-3.07V18.89a3,3,0,0,0,.1-.32,6.75,6.75,0,0,1,2.8-4.45,8,8,0,0,1,3.11-1.24H65a1.34,1.34,0,0,0,.26.09,6.73,6.73,0,0,1,4.48,2.77A8,8,0,0,1,71,18.89Zm-29-1.47H20.1a2.34,2.34,0,0,0-2.67,2.68V46.47c0,1.85.85,2.71,2.69,2.71H63.74c1.84,0,2.69-.86,2.69-2.71V20.16c0-1.89-.84-2.74-2.72-2.74Z"/></svg>