<svg id="Capa_1" data-name="Capa 1" xmlns="http://www.w3.org/2000/svg" viewBox="0 0 83.86 75.67"><defs><style>.cls-1{fill:#e31a52;}</style></defs><title>icon_</title><path class="cls-1" d="M67.66,63.17H16.1a.58.58,0,0,0-.18-.11,4.7,4.7,0,0,1-4-5c0-3.72,0-7.45,0-11.18a10.84,10.84,0,0,1,.43-2.83c.71-2.57,1.5-5.11,2.27-7.66q3-10.12,6.07-20.25A4.78,4.78,0,0,1,23.37,13a12.57,12.57,0,0,1,1.47-.47H59.07a5.45,5.45,0,0,1,4.29,4.25c1.67,5.82,3.46,11.61,5.2,17.41q1.69,5.7,3.4,11.38V59.17a4.84,4.84,0,0,1-1.9,3A16.1,16.1,0,0,1,67.66,63.17Zm-52-19H68.24c-.06-.23-.1-.43-.16-.61q-3.94-13.17-7.91-26.34c-.36-1.2-.77-1.5-2-1.5H25.77c-1.35,0-1.72.29-2.11,1.58q-3.24,10.8-6.49,21.6C16.65,40.64,16.14,42.38,15.61,44.17ZM41.93,60H66.82c1.43,0,2-.55,2-2q0-4.37,0-8.74c0-1.35-.6-1.93-2-1.93H17c-1.38,0-2,.57-2,1.93v8.51c0,1.73.46,2.19,2.2,2.19Z"/><path class="cls-1" d="M52.18,55.19c-.3,0-.6,0-.89,0a1.5,1.5,0,0,1-1.43-1.5,1.52,1.52,0,0,1,1.41-1.61,11.43,11.43,0,0,1,1.85,0,1.56,1.56,0,0,1,0,3.11,8.81,8.81,0,0,1-.89,0Z"/><path class="cls-1" d="M61.65,55.19c-.3,0-.59,0-.89,0a1.56,1.56,0,0,1-.07-3.1,11.13,11.13,0,0,1,2,0,1.53,1.53,0,0,1,1.36,1.59,1.55,1.55,0,0,1-1.44,1.51C62.29,55.22,62,55.19,61.65,55.19Z"/></svg>