<?xml version="1.0" encoding="utf-8"?>
<!-- Generator: Adobe Illustrator 24.0.1, SVG Export Plug-In . SVG Version: 6.00 Build 0)  -->
<svg version="1.1" id="Capa_1" xmlns="http://www.w3.org/2000/svg" xmlns:xlink="http://www.w3.org/1999/xlink" x="0px" y="0px"
	 viewBox="0 0 83.9 75.7" style="enable-background:new 0 0 83.9 75.7;" xml:space="preserve">
<style type="text/css">
	.st0{fill:#9B9B9B;}
</style>
<title>icon_</title>
<path class="st0" d="M41.9,12.4h24.9c1.8-0.1,3.5,0.5,4.9,1.5c1.9,1.4,2.9,3.7,2.9,6c0,11.9,0,23.9,0,35.8c0.1,4.1-3.2,7.4-7.2,7.5
	c-0.2,0-0.3,0-0.5,0H28c-3.7,0-7.4,0-11.1,0c-4.1,0.2-7.5-3-7.7-7.1c0-0.1,0-0.3,0-0.4c0-11.9,0-23.9,0-35.8
	c-0.1-4.1,3.2-7.4,7.2-7.5c0.2,0,0.3,0,0.5,0L41.9,12.4z M41.9,17.8H17.1c-1.9,0-2.5,0.6-2.5,2.5c0,11.7,0,23.4,0,35.1
	c0,2,0.5,2.5,2.5,2.5h49.6c2,0,2.5-0.5,2.5-2.5V20.3c0-1.9-0.6-2.5-2.5-2.5L41.9,17.8z"/>
<path class="st0" d="M32.8,52.4H22.6c-2.1,0-2.6-0.6-2.4-2.7c0.2-3,1.9-5.6,4.5-7c1.3-0.7,2.8-1.1,4.4-1.1c2.8,0,5.7-0.1,8.5,0.1
	c4.2,0.3,7.5,3.7,7.8,7.8c0,0.2,0,0.3,0,0.5c0.2,1.6-0.5,2.4-2.1,2.4L32.8,52.4z"/>
<path class="st0" d="M40.1,30.5c-0.2,4.1-3,7.2-7.2,7.2c-3.9,0.1-7.1-2.9-7.2-6.8c0-0.1,0-0.2,0-0.4c-0.1-3.9,2.9-7.1,6.8-7.2
	c0.1,0,0.3,0,0.4,0C36.9,23.4,39.8,26.4,40.1,30.5z"/>
<path class="st0" d="M56.4,31.4c-1.7,0-3.4,0-5.1,0c-1.3,0.1-2.5-0.7-2.8-1.9c-0.5-1.4,0.3-2.9,1.7-3.3c0.3-0.1,0.6-0.1,1-0.1
	c3.6-0.1,7.1-0.1,10.7,0c1.2-0.1,2.3,0.7,2.6,1.8c0.4,1,0.1,2.2-0.8,2.9c-0.6,0.4-1.4,0.6-2.1,0.7C59.8,31.5,58.1,31.4,56.4,31.4z"
	/>
<path class="st0" d="M56.4,40.5h-5.1c-1.3,0.1-2.5-0.7-2.9-2c-0.4-1.4,0.3-2.9,1.7-3.3c0.3-0.1,0.6-0.1,1-0.1c3.6-0.1,7.1,0,10.7,0
	c1.2-0.1,2.3,0.7,2.6,1.9c0.4,1,0.1,2.2-0.8,2.9c-0.6,0.4-1.4,0.7-2.2,0.7C59.8,40.6,58.1,40.5,56.4,40.5z"/>
</svg>
