<svg id="Capa_1" data-name="Capa 1" xmlns="http://www.w3.org/2000/svg" viewBox="0 0 83.86 75.67"><defs><style>.cls-1{fill:#e31a52;}</style></defs><title>icon_</title><path class="cls-1" d="M25.32,7.89h.59A1.65,1.65,0,0,1,27,9.7c0,.49,0,1,0,1.46V13.3H32.4c0-1.26,0-2.48,0-3.7a1.58,1.58,0,0,1,1.11-1.71h.58a1.72,1.72,0,0,1,1,1.83c0,1.18,0,2.37,0,3.57h5.43c0-1.22,0-2.39,0-3.56a1.76,1.76,0,0,1,1-1.84h.7a1.6,1.6,0,0,1,1,1.38c0,.31,0,.62,0,.93v3.1h5.43c0-1.21,0-2.4,0-3.58a1.73,1.73,0,0,1,1.05-1.83h.58A1.58,1.58,0,0,1,51.46,9.6c0,1,0,2,0,2.92v.78H56.9c0-1.23,0-2.41,0-3.6A1.68,1.68,0,0,1,58,7.89h.58a1.6,1.6,0,0,1,1.08,1.73c0,1.21,0,2.43,0,3.7,4.74-.15,7,2.18,6.84,6.83,1.28,0,2.49,0,3.69,0a1.59,1.59,0,0,1,1.72,1.09v.58a1.64,1.64,0,0,1-1.8,1.06c-.49,0-1,0-1.46,0H66.47v5.45c1.23,0,2.44,0,3.64,0a1.6,1.6,0,0,1,1.76,1.11V30a1.71,1.71,0,0,1-1.82,1.05c-1.18,0-2.37,0-3.57,0v5.43c1.22,0,2.39,0,3.55,0a1.76,1.76,0,0,1,1.84,1v.7a1.57,1.57,0,0,1-1.37,1h-4v5.43c1.22,0,2.41,0,3.59,0a1.71,1.71,0,0,1,1.82,1v.59a1.6,1.6,0,0,1-1.76,1.11c-1.2,0-2.41,0-3.64,0v5.45c1.22,0,2.41,0,3.6,0a1.68,1.68,0,0,1,1.8,1.06v.59a1.48,1.48,0,0,1-1.08,1,5.49,5.49,0,0,1-.81,0H66.46c.12,4.73-2.18,7-6.84,6.84,0,1.29,0,2.49,0,3.7a1.61,1.61,0,0,1-1.09,1.72H58A1.64,1.64,0,0,1,56.9,66c0-.48,0-1,0-1.46V62.37H51.46c0,1.26,0,2.48,0,3.7a1.57,1.57,0,0,1-1.11,1.71h-.58A1.73,1.73,0,0,1,48.72,66c0-1.18,0-2.36,0-3.56H43.3c0,1.21,0,2.38,0,3.55a1.78,1.78,0,0,1-1,1.84h-.7a1.6,1.6,0,0,1-1-1.38c0-.31,0-.62,0-.93v-3.1H35.13c0,1.22,0,2.4,0,3.58a1.72,1.72,0,0,1-1,1.83h-.58a1.57,1.57,0,0,1-1.11-1.71c0-1,0-1.95,0-2.92v-.78H27c0,1.23,0,2.42,0,3.6a1.68,1.68,0,0,1-1.06,1.81h-.59a1.48,1.48,0,0,1-1-1.08,5.63,5.63,0,0,1,0-.82c0-1.16,0-2.32,0-3.52-4.73.13-7-2.18-6.85-6.84-1.28,0-2.49,0-3.69,0A1.59,1.59,0,0,1,12,54.45v-.59A1.65,1.65,0,0,1,13.8,52.8c.48,0,1,0,1.46,0H17.4V47.36c-1.24,0-2.44,0-3.65,0A1.6,1.6,0,0,1,12,46.26v-.59a1.71,1.71,0,0,1,1.82-1c1.19,0,2.37,0,3.57,0V39.2c-1.22,0-2.38,0-3.55,0a1.75,1.75,0,0,1-1.84-1v-.7a1.57,1.57,0,0,1,1.37-1h4V31c-1.22,0-2.4,0-3.59,0A1.72,1.72,0,0,1,12,30v-.59a1.6,1.6,0,0,1,1.76-1.11c1.21,0,2.41,0,3.64,0V22.86c-1.22,0-2.41,0-3.59,0A1.67,1.67,0,0,1,12,21.81v-.58a1.59,1.59,0,0,1,1.72-1.09c1.22,0,2.44,0,3.7,0-.13-4.72,2.17-7,6.84-6.84,0-1.28,0-2.49,0-3.69A1.6,1.6,0,0,1,25.32,7.89Zm38.38,30c0-6.22,0-12.43,0-18.65A3,3,0,0,0,60.53,16c-12.41.05-24.83,0-37.24,0-2.08,0-3.13,1.05-3.13,3.12,0,12.43,0,24.87,0,37.3a3,3,0,0,0,3.16,3.14q18.62-.08,37.24,0a3,3,0,0,0,3.18-3.18C63.66,50.26,63.7,44.06,63.7,37.86Z"/><path class="cls-1" d="M22.87,37.79V20.66c0-1.43.45-1.88,1.9-1.88H59.1c1.44,0,1.89.45,1.89,1.88V55c0,1.39-.47,1.86-1.87,1.86H24.74c-1.4,0-1.87-.47-1.87-1.86Zm35.4.1c0-5.24,0-10.49,0-15.73,0-.54-.15-.68-.68-.68q-15.68,0-31.34,0c-.55,0-.68.16-.68.69q0,15.67,0,31.34c0,.54.15.68.68.68q15.68,0,31.35,0c.54,0,.67-.16.67-.69C58.26,48.3,58.27,43.1,58.27,37.89Z"/></svg>