<?xml version="1.0" encoding="utf-8"?>
<!-- Generator: Adobe Illustrator 24.0.1, SVG Export Plug-In . SVG Version: 6.00 Build 0)  -->
<svg version="1.1" id="Capa_1" xmlns="http://www.w3.org/2000/svg" xmlns:xlink="http://www.w3.org/1999/xlink" x="0px" y="0px"
	 viewBox="0 0 83.9 75.7" style="enable-background:new 0 0 83.9 75.7;" xml:space="preserve">
<style type="text/css">
	.st0{fill:#9B9B9B;}
</style>
<title>icon_</title>
<path class="st0" d="M29.1,31.4c0-2,0-3.9,0-5.9c0-1.1,0.1-2.1,0.3-3.2c1.2-5.4,4.6-8.8,10.1-9.9c4.1-0.9,8.4,0.3,11.4,3.3
	c2.2,2.1,3.6,4.9,3.7,7.9c0.2,2.3,0.1,4.6,0.1,6.9v0.9c1,0,2,0,2.9,0c2.7,0.1,4.9,1.2,6,3.7c0.4,0.9,0.7,2,0.7,3
	c0.1,6.2,0,12.4,0,18.6c0.1,3.1-1.9,5.8-4.9,6.5c-0.6,0.2-1.3,0.2-1.9,0.2c-10.4,0-20.8,0-31.2,0c-3.1,0.2-5.9-1.9-6.6-4.9
	c-0.2-0.6-0.3-1.3-0.2-1.9c0-6.2,0-12.3,0-18.5c-0.1-3.1,1.9-5.8,4.9-6.6c0.6-0.2,1.2-0.2,1.8-0.2C27.1,31.4,28.1,31.4,29.1,31.4z
	 M42,36.2H26.4c-1.6,0-2.1,0.5-2.1,2.1v18.3c0,1.5,0.5,2.1,2.1,2.1h31.2c1.6,0,2.1-0.5,2.1-2.1V38.3c0-1.6-0.5-2.1-2.1-2.1H42z
	 M50,31.4c0-2.3,0-4.6,0-6.8c0-1.3-0.4-2.5-1-3.6c-1.7-3-5.1-4.6-8.5-3.9c-3.2,0.4-5.8,2.9-6.3,6.1c-0.2,2.7-0.3,5.4-0.3,8.1
	c0,0,0,0.1,0.1,0.1L50,31.4z"/>
<path class="st0" d="M39.6,47.4c0-1.1-0.1-2.2,0-3.3c0-1.2,1.1-2.2,2.3-2.2c1.2-0.1,2.3,0.9,2.3,2.1c0,0,0,0.1,0,0.1
	c0.1,2.2,0.1,4.5,0,6.8c0,1.2-1,2.2-2.3,2.2c0,0-0.1,0-0.1,0c-1.3-0.1-2.4-1.2-2.3-2.6c0,0,0,0,0,0C39.5,49.4,39.5,48.4,39.6,47.4
	L39.6,47.4z"/>
</svg>
