<svg id="Capa_1" data-name="Capa 1" xmlns="http://www.w3.org/2000/svg" viewBox="0 0 83.86 75.67"><defs><style>.cls-1{fill:#e31a52;}</style></defs><title>icon_</title><path class="cls-1" d="M41.94,64.2A26.37,26.37,0,1,1,68.28,37.79,26.29,26.29,0,0,1,41.94,64.2ZM38.58,37.9C37,39.4,35.46,40.82,34,42.26a4.25,4.25,0,0,0-.72.91,2.27,2.27,0,0,0,.44,3,2.13,2.13,0,0,0,3,.17,8,8,0,0,0,.82-.72c1.45-1.4,2.88-2.81,4.35-4.24,1.09,1,2.15,2.06,3.21,3.06a27.81,27.81,0,0,0,2.14,1.93,2.09,2.09,0,0,0,3-.25,2.12,2.12,0,0,0,.34-3,19.3,19.3,0,0,0-1.6-1.79c-1.12-1.2-2.26-2.38-3.38-3.55.07-.1.08-.15.12-.18.87-.9,1.76-1.8,2.63-2.71s1.53-1.52,2.2-2.36A2.17,2.17,0,0,0,50,29.3a2.38,2.38,0,0,0-3.44.37c-1.53,1.55-3,3.16-4.52,4.79-1.49-1.49-2.76-2.77-4.05-4a10.08,10.08,0,0,0-1.43-1.27,2.29,2.29,0,0,0-3.31.8,2.39,2.39,0,0,0,.55,3.16C35.3,34.64,36.83,36.15,38.58,37.9Z"/></svg>