<svg id="Capa_1" data-name="Capa 1" xmlns="http://www.w3.org/2000/svg" viewBox="0 0 83.86 75.67"><defs><style>.cls-1{fill:#e31a52;}</style></defs><title>icon_</title><path class="cls-1" d="M55.1,54.24V50c0-1.8,0-3.61,0-5.41a3.23,3.23,0,0,1,4.75-3.06,3,3,0,0,1,1.76,2.88c0,3.28.08,6.57,0,9.86a6.43,6.43,0,0,1-5,6.33,7.58,7.58,0,0,1-2,.25q-14.38,0-28.76,0a6.6,6.6,0,0,1-6.71-5.06A7,7,0,0,1,19,53.88q0-14.41,0-28.83a6.87,6.87,0,0,1,6.78-6.91c3.15,0,6.31,0,9.45,0a3.25,3.25,0,0,1,3.08,4.79,3.16,3.16,0,0,1-3.17,1.74H25.53V54.24Z"/><path class="cls-1" d="M58.15,26a6.76,6.76,0,0,1-.44.61L41.35,43.11a3.56,3.56,0,0,1-3.73,1.11,3.26,3.26,0,0,1-1.72-4.86,6.16,6.16,0,0,1,.87-1Q44.94,30.18,53.13,22c.17-.17.33-.35.62-.66h-.93c-1.66,0-3.34,0-5-.13a3,3,0,0,1-2.58-3.13A3.09,3.09,0,0,1,47.8,15,6.42,6.42,0,0,1,49,14.84H61.14c2.5,0,3.78,1.29,3.78,3.8V31a3.21,3.21,0,0,1-1.84,3.24,3.25,3.25,0,0,1-4.69-3c0-1.44,0-2.88,0-4.31v-.67Z"/></svg>