<?xml version="1.0" encoding="utf-8"?>
<!-- Generator: Adobe Illustrator 24.0.1, SVG Export Plug-In . SVG Version: 6.00 Build 0)  -->
<svg version="1.1" id="Capa_1" xmlns="http://www.w3.org/2000/svg" xmlns:xlink="http://www.w3.org/1999/xlink" x="0px" y="0px"
	 viewBox="0 0 124 50" style="enable-background:new 0 0 124 50;" xml:space="preserve">
<style type="text/css">
	.st0{fill:none;stroke:#E31A52;stroke-width:1.6364;stroke-miterlimit:10;}
	.st1{fill:#E31A52;}
	.st2{fill:#FFFFFF;}
	.st3{opacity:0.52;}
	.st4{clip-path:url(#SVGID_2_);fill:url(#SVGID_3_);}
	.st5{fill:none;stroke:#FFFFFF;stroke-width:0.2508;stroke-miterlimit:10;}
	.st6{enable-background:new    ;}
	.st7{fill:#1C1C1B;}
</style>
<g>
	<path class="st0" d="M38.7,37.6c0.7,0,48,0,48.7,0c1.7,0,3.5,0,5.2,0c0.8,0,1.6-0.3,2.1-0.9c0.5-0.6,0.7-1.3,0.6-2.1
		c0-0.2-0.1-0.4-0.1-0.6l0,0l0,0c0.9,0,1.7,0,2.6,0c1.1,0,2.3,0,3.4,0c0.1,0.4,0.2,0.9,0.3,1.3c0.3,1.4,1.4,2.3,2.9,2.4
		c0.4,0,0.8,0,1.1,0c0.5,0,1,0,1.4,0c0.3,0,0.6,0,0.9-0.1c0.5-0.1,0.9-0.4,1.2-0.8l6.4-4.1c1.2-0.3,2-1.4,2-2.6c0-0.2,0-0.6-0.1-1
		c0-0.2-0.1-0.3-0.1-0.5c0.1,0,0.1,0,0.2,0c1.4-0.2,2.4-1.4,2.5-2.8c0-0.2,0-0.6-0.1-1c-0.2-0.9-0.4-1.7-0.6-2.5
		c-0.3-1.3-1.3-2.2-2.6-2.5c-0.2,0-0.4-0.1-0.5-0.1l-2.5-10.4c-0.5-2-2.2-3.3-4.2-3.3H13c-0.5,0-0.9,0.1-1.3,0.2
		c-0.2,0-0.4,0.1-0.5,0.1c-1.2,0.3-2,1.3-2.3,2.5C8.5,9.9,8.2,11.2,8,12.5l-2.2,9.7c-0.5,2-0.9,4-1.4,6c0,0.1,0,0.1,0,0.2
		c-0.1,0.2-0.1,0.5-0.2,0.8c-0.2,0.8,0,1.7,0.5,2.4c0.4,0.5,1,0.9,1.7,1.1l6.4,4c0.5,0.6,1.1,0.9,1.9,1c0.1,0,0.2,0,0.3,0l0,0h2
		c0.7,0,1.3,0,2,0c1.3,0,2.5,0,3.8,0c0.6,0,1.1,0,1.7-0.1c1.1-0.2,2.2-0.5,3.1-1.1c0.1,0.1,0.2,0.3,0.3,0.4c0.5,0.5,1.1,0.8,1.9,0.9
		c0.1,0,0.3,0,0.4,0s0.1,0,0.2,0s0.1,0,0.2,0h0.5c0.6,0,1.1,0,1.7,0c1.1,0,1.9-0.5,2.5-1.3c0.4,0.3,0.8,0.5,1.2,0.7
		C37.1,37.3,37.8,37.5,38.7,37.6"/>
	<g>
		<g>
			<path d="M4.7,27.1L8.8,9C9.2,7,11,5.6,13,5.6h96.4c2,0,3.8,1.4,4.2,3.3l3.6,15.2l-30.8,7.7L4.7,27.1z"/>
			<g>
				<path d="M119.8,24.5c-0.2-0.9-0.4-1.7-0.6-2.5c-0.3-1.3-1.3-2.2-2.6-2.5c-0.3-0.1-0.6-0.1-0.8-0.1c-0.2,0-0.3,0-0.5,0
					c0-0.1,0-0.1,0-0.2L113.1,9c-0.3-1.4-1.3-2.5-2.8-3c-0.1,0-0.3-0.1-0.3-0.1h-0.1c-0.2-0.1-0.4-0.1-0.6-0.1H105
					c-0.2,0-0.4,0-0.7,0.1c-1,0.2-1.8,0.8-2.3,1.6c-0.1,0.3-0.3,0.5-0.4,0.9c-0.8,1.9-1.6,3.9-2.4,5.8c-0.8,2-1.7,4.1-2.5,6.1
					c-0.3,0.8-0.5,1.7-0.4,2.5c0,0.2,0.1,0.5,0.1,0.7h-5.3l-1.3-12.4c-0.1-0.8-0.2-1.6-0.3-2.4c-0.1-1.3-1-2.3-2.2-2.7
					c-0.3-0.1-0.6-0.1-0.8-0.1h-3.3c-0.3,0-0.6,0-0.8,0.1l0,0c-1.4,0.4-2.3,1.7-2.2,3.2c0,0.1,0,0.2,0,0.3l0.1,1.5
					c0.1,0.7,0.1,1.5,0.2,2.2c-0.6-1.6-1.2-3.3-1.7-4.9C78.4,7,77.5,6.2,76.4,6h-0.1c-0.2-0.1-0.5-0.1-0.7-0.1h-5
					c-0.3,0-0.5,0-0.8,0.1S69.3,6.2,69,6.3c-0.2-0.1-0.3-0.2-0.5-0.2h-0.1c-0.3-0.1-0.6-0.2-0.9-0.2H54.3c-0.3,0-0.6,0.1-0.9,0.2
					c0,0,0,0-0.1,0h-0.1l0,0C52.9,6,52.7,6,52.4,6h-3.3c-0.3,0-0.7,0.1-1,0.2c-0.6,0.2-1.1,0.6-1.4,1c-0.8-0.5-1.8-0.9-2.9-1.1
					C43.5,6.1,43.3,6,43,6c-0.1,0-0.2,0-0.3,0s-0.2,0-0.3,0h-4.7c-0.1,0-0.3,0-0.4,0l0,0c-0.6-0.1-1.3,0-2,0.2
					C34.6,6.4,34,6.7,33.5,7c-0.3-0.4-0.8-0.7-1.3-1c-0.3-0.1-0.7-0.2-1-0.2h-3.3c-0.3,0-0.6,0-0.8,0.1c-0.7,0.2-1.2,0.6-1.6,1.1
					c-0.8-0.6-1.8-0.9-2.9-1.1c-0.3,0-0.5-0.1-0.7-0.1c-0.1,0-0.2,0-0.3,0c-0.1,0-0.2,0-0.3,0H12c-0.3,0-0.6,0-0.8,0.1
					c-1.2,0.3-2,1.3-2.3,2.5C8.5,9.8,8.2,11.1,8,12.3L5.7,22c-0.5,2-0.9,4-1.4,6c0,0.1,0,0.1,0,0.2c-0.1,0.2-0.1,0.5-0.2,0.8
					c-0.2,0.9,0.1,1.8,0.6,2.4C5.2,32.1,6,32.5,7,32.5c0.1,0,0.2,0,0.3,0l0,0h2.3c0.8,0,1.5,0,2.3,0c1.5,0,3,0,4.4,0
					c0.7,0,1.3,0,1.9-0.1c1.3-0.2,2.5-0.6,3.6-1.3c0.1,0.2,0.2,0.3,0.3,0.4c0.6,0.6,1.3,1,2.2,1c0.1,0,0.3,0,0.4,0s0.2,0,0.2,0
					c0.1,0,0.1,0,0.2,0h0.5c0.7,0,1.3,0,2,0c1.2,0,2.3-0.6,2.9-1.5c0.4,0.3,0.9,0.6,1.4,0.8c1.1,0.5,2.3,0.7,3.7,0.7
					c0.6,0,1.3,0,1.9,0c0.8,0,1.5,0,2.3,0l0,0c0.9,0,1.8-0.1,2.6-0.3c1-0.2,1.8-0.6,2.6-1.1c0.1,0.2,0.2,0.3,0.3,0.4
					c0.6,0.6,1.4,1,2.2,1c0.1,0,0.2,0,0.2,0l0,0h2.2c0.1,0,0.3,0,0.4,0c0.2,0,0.4,0,0.6,0c1.6,0,2.9-1.1,3.2-2.6
					c0-0.2,0.1-0.4,0.1-0.5v-0.6c0.1-2,0.2-4.1,0.3-6.1c0-0.9,0.1-1.7,0.1-2.6s0.1-1.8,0.1-2.8s0.1-2,0.1-3c0.3,0,0.6,0,0.9,0
					c0,2-0.1,4.1-0.1,6.1c0,0.8,0,1.5,0,2.3v2.5c0,1.4,0,2.7-0.1,4.1c0,1.9,1.3,3.2,3.2,3.3c0.1,0,0.1,0,0.2,0h2c0.1,0,0.2,0,0.3,0
					s0.2,0,0.3,0c0.2,0,0.4,0,0.6,0c0.4,0,0.9-0.1,1.2-0.2c0.1,0,0.1,0.1,0.2,0.1c0.3,0.1,0.7,0.2,1.1,0.2c0.7,0,1.4,0,2.1,0
					c0.5,0,1,0,1.5,0c1.6,0,2.8-0.9,3.2-2.5l0.3-1.3c0.1-0.3,0.1-0.6,0.2-0.9c1.2,0,2.3,0,3.3,0c0.1,0.2,0.2,0.5,0.2,0.7
					c0.1,0.4,0.3,0.8,0.4,1.2l0.2,0.5c0.5,1.5,1.6,2.3,3.1,2.3l0,0h0.7c1,0,1.9,0,2.9,0c0.2,0,0.4,0,0.6-0.1c0.1,0,0.3-0.1,0.4-0.1
					c0.3,0.1,0.7,0.2,1.1,0.2c2.1,0,4.2,0,6.3,0c2,0,4.1,0,6.1,0c1,0,1.8-0.4,2.4-1c0.6-0.7,0.8-1.6,0.7-2.5c0-0.2-0.1-0.5-0.1-0.7
					l0,0l0,0c1,0,2,0,3,0c1.3,0,2.7,0,4,0c0.1,0.5,0.2,1,0.3,1.5c0.3,1.6,1.7,2.7,3.3,2.7c0.5,0,0.9,0,1.3,0c0.6,0,1.1,0,1.7,0
					c0.3,0,0.7-0.1,1-0.2c1.2-0.3,2-1.4,2-2.6c0-0.2,0-0.6-0.1-1c0-0.2-0.1-0.3-0.1-0.5c0.1,0,0.1,0,0.2,0c1.4-0.2,2.4-1.4,2.5-2.8
					C119.9,25.2,119.9,24.9,119.8,24.5z"/>
				<path d="M111.6,30.5c-0.2-0.8-0.3-1.5-0.5-2.2c-0.3-1.1-1.1-1.9-2.2-2.1c-0.3-0.1-0.5-0.1-0.7-0.1c-0.1,0-0.3,0-0.4,0
					c0-0.1,0-0.1,0-0.2l-1.9-8.8c-0.3-1.2-1.1-2.2-2.4-2.5c-0.1,0-0.2-0.1-0.3-0.1l0,0c-0.2,0-0.3-0.1-0.5-0.1h-3.8
					c-0.2,0-0.4,0-0.6,0.1c-0.8,0.2-1.5,0.7-2,1.4c-0.1,0.2-0.3,0.5-0.4,0.8c-0.7,1.7-1.4,3.3-2,5c-0.7,1.7-1.4,3.5-2.1,5.2
					c-0.3,0.7-0.4,1.4-0.3,2.1c0,0.2,0,0.4,0.1,0.6h-4.5L85.8,19c-0.1-0.7-0.1-1.4-0.2-2.1c-0.1-1.1-0.9-2-1.9-2.3
					c-0.2-0.1-0.5-0.1-0.7-0.1h-2.8c-0.2,0-0.5,0-0.7,0.1l0,0c-1.2,0.4-1.9,1.4-1.8,2.7c0,0.1,0,0.2,0,0.3l0.1,1.3
					c0.1,0.6,0.1,1.3,0.2,1.9c-0.5-1.4-1-2.8-1.5-4.2c-0.3-1-1.1-1.7-2.1-1.9h-0.1c-0.2-0.1-0.4-0.1-0.6-0.1h-4.3
					c-0.2,0-0.4,0-0.7,0.1c-0.2,0.1-0.4,0.1-0.7,0.2c-0.1-0.1-0.3-0.1-0.4-0.2l0,0c-0.2-0.1-0.5-0.1-0.8-0.1l-11.4-0.8
					c-0.3,0-0.5,0.8-0.7,0.9l0,0h-0.1l0,0c-0.2-0.1-0.5-0.1-0.7-0.1H51c-0.3,0-0.6,0.1-0.9,0.2c-0.5,0.2-0.9,0.5-1.2,0.9
					c-0.7-0.5-1.6-0.8-2.5-0.9c-0.2,0-0.5-0.1-0.7-0.1c-0.1,0-0.2,0-0.2,0c-0.1,0-0.2,0-0.3,0h-4c-0.1,0-0.2,0-0.3,0l0,0
					c-0.6,0-1.2,0.1-1.8,0.3s-1.1,0.4-1.6,0.7c-0.3-0.4-0.7-0.6-1.1-0.8c-0.3-0.1-0.6-0.2-0.9-0.2h-2.8c-0.2,0-0.5,0-0.7,0.1
					c-0.6,0.2-1.1,0.5-1.4,1c-0.7-0.5-1.5-0.8-2.5-1c-0.2,0-0.4-0.1-0.6-0.1c-0.1,0-0.1,0-0.2,0s-0.2,0-0.3,0h-8
					c-0.2,0-0.5,0-0.7,0.1c-1,0.3-1.7,1.1-2,2.2c-0.2,1.1-0.5,2.2-0.7,3.3l-1.9,8.3c-0.4,1.7-0.8,3.4-1.2,5.1c0,0.1,0,0.1,0,0.2
					c0,0.2-0.1,0.4-0.1,0.7c-0.1,0.8,0,1.5,0.5,2.1s1.1,0.9,1.9,1c0.1,0,0.2,0,0.3,0l0,0h2c0.7,0,1.3,0,2,0c1.3,0,2.5,0,3.8,0
					c0.6,0,1.1,0,1.7-0.1c1.1-0.2,2.2-0.5,3.1-1.1c0.1,0.1,0.2,0.3,0.3,0.4c0.5,0.5,1.1,0.8,1.9,0.9c0.1,0,0.3,0,0.4,0s0.1,0,0.2,0
					s0.1,0,0.2,0h0.5c0.6,0,1.1,0,1.7,0c1.1,0,1.9-0.5,2.5-1.3c0.4,0.3,0.8,0.5,1.2,0.7c0.9,0.4,2,0.6,3.2,0.6c0.6,0,1.1,0,1.7,0
					c0.7,0,1.3,0,2,0l0,0c0.8,0,1.5-0.1,2.2-0.3c0.8-0.2,1.6-0.5,2.2-1c0.1,0.1,0.2,0.3,0.3,0.4c0.5,0.5,1.2,0.8,1.9,0.9
					c0.1,0,0.1,0,0.2,0l0,0h1.9c0.1,0,0.2,0,0.3,0c0.2,0,0.4,0,0.5,0c1.4,0,2.5-0.9,2.7-2.3c0-0.2,0-0.4,0.1-0.5v-0.5
					c0.1-1.8,0.2-3.5,0.2-5.3c0-0.7,0.1-1.5,0.1-2.2c0-0.8,0.1-1.6,0.1-2.4c0-0.9,0.1-1.7,0.1-2.6c0.3,0,0.5,0,0.8,0
					c0,1.8-0.1,3.5-0.1,5.3c0,0.6,0,1.3,0,1.9v2.2c0,1.2,0,2.3-0.1,3.5c0,1.6,1.1,2.8,2.7,2.8c0.1,0,0.1,0,0.2,0h1.7
					c0.1,0,0.2,0,0.3,0s0.2,0,0.3,0c0.2,0,0.3,0,0.5,0c0.4,0,0.7-0.1,1.1-0.2c0.1,0,0.1,0,0.2,0.1c0.3,0.1,0.6,0.1,0.9,0.2
					c0.6,0,1.2,0,1.8,0c0.4,0,0.8,0,1.3,0c1.4,0,2.4-0.8,2.7-2.2l0.3-1.1c0.1-0.3,0.1-0.5,0.2-0.8c1,0,2,0,2.9,0
					c0.1,0.2,0.1,0.4,0.2,0.6c0.1,0.3,0.2,0.7,0.3,1.1l0.1,0.4c0.4,1.3,1.4,2,2.7,2l0,0h0.6c0.8,0,1.7,0,2.5,0c0.1,0,0.3,0,0.5,0
					c0.1,0,0.2-0.1,0.4-0.1c0.3,0.1,0.6,0.1,0.9,0.1c1.8,0,3.6,0,5.4,0c1.7,0,3.5,0,5.2,0c0.8,0,1.6-0.3,2.1-0.9
					c0.5-0.6,0.7-1.3,0.6-2.1c0-0.2-0.1-0.4-0.1-0.6l0,0l0,0c0.9,0,1.7,0,2.6,0c1.1,0,2.3,0,3.4,0c0.1,0.4,0.2,0.9,0.3,1.3
					c0.3,1.4,1.4,2.3,2.9,2.4c0.4,0,0.8,0,1.1,0c0.5,0,1,0,1.4,0c0.3,0,0.6,0,0.9-0.1c1-0.3,1.7-1.2,1.8-2.2c0-0.2,0-0.5-0.1-0.9
					c0-0.1-0.1-0.3-0.1-0.4h0.1c1.2-0.2,2.1-1.2,2.1-2.4C111.7,31.2,111.7,30.9,111.6,30.5z"/>
				<polygon points="4.7,31.4 12.9,36.4 21.1,28.6 				"/>
				<polygon points="107.8,37.3 115.4,32.4 111.7,25.8 				"/>
			</g>
			<g>
				<polygon points="42.9,27.5 81.1,27.5 86,43.7 38,43.7 				"/>
				<polygon class="st1" points="42.5,33.4 81.7,33.4 84,42.5 40,42.5 				"/>
			</g>
			<g>
				<path class="st2" d="M21.1,8.3c0.3,0,0.6,0.1,0.9,0.1c0.8,0.1,1.5,0.4,2.1,0.8c0.8,0.6,1.2,1.5,1.3,2.5c0.1,0.8,0,1.5-0.1,2.2
					c-0.4,2.4-0.8,4.8-1.2,7.2c-0.2,1.2-0.4,2.3-0.6,3.5c-0.3,1.6-1.1,3-2.4,4c-0.9,0.7-2,1.1-3.2,1.3c-0.5,0.1-1,0.1-1.5,0.1
					c-3,0-6,0-9,0c-0.1,0-0.1,0-0.2,0c-0.4,0-0.6-0.3-0.5-0.6c0-0.3,0.1-0.6,0.2-0.8c0.6-2.4,1.1-4.8,1.7-7.3
					c0.5-2.4,1.1-4.8,1.6-7.1c0.4-1.7,0.8-3.4,1.2-5.1c0.1-0.4,0.3-0.6,0.7-0.7l0,0C15,8.3,18.1,8.3,21.1,8.3z M14.6,26
					c0.6,0,1.2,0,1.8,0c0.3,0,0.5,0,0.8-0.1c0.7-0.1,1.3-0.4,1.6-1.1c0.1-0.3,0.2-0.5,0.3-0.8c0.2-0.9,0.3-1.8,0.5-2.7
					c0.4-2.4,0.9-4.8,1.3-7.2c0.1-0.4,0.1-0.8,0.1-1.2c0-0.6-0.3-1-0.9-1.1c-0.3-0.1-0.6-0.1-0.9-0.1c-0.9,0-1.7,0-2.6,0
					c-0.4,0-0.8,0-1.2,0c-0.3,0-0.4,0.1-0.5,0.4v0.1c-0.9,4.4-1.9,8.9-2.8,13.3c0,0.1,0,0.1,0,0.2c0,0.2,0.1,0.3,0.2,0.3
					c0.1,0,0.1,0,0.2,0C13.2,26,13.9,26,14.6,26z"/>
				<path class="st2" d="M42.5,8.3c0.3,0,0.6,0.1,0.9,0.1c0.9,0.1,1.6,0.4,2.3,1c0.9,0.7,1.3,1.7,1.5,2.8c0.1,0.6,0,1.2,0,1.7
					c0,0.2,0,0.4,0,0.5c0,0.4-0.2,0.6-0.6,0.6c-0.1,0-0.2,0-0.2,0c-1,0-1.9,0-2.9,0c-0.6,0-0.8-0.2-0.7-0.8c0-0.3,0.1-0.7,0.1-1
					c0-0.2,0-0.5-0.1-0.7c-0.1-0.3-0.3-0.6-0.6-0.7c-0.2-0.1-0.5-0.2-0.7-0.2c-1,0-2.1,0-3.1,0c-0.1,0-0.3,0-0.4,0.1
					c-0.8,0.2-1.2,0.7-1.3,1.4s-0.2,1.3-0.2,2c-0.2,2-0.5,3.9-0.7,5.9c-0.1,1-0.2,1.9-0.3,2.9c0,0.3,0,0.6,0,0.9
					c0.1,0.4,0.4,0.7,0.8,0.9c0.3,0.1,0.6,0.2,1,0.2c0.9,0,1.7,0,2.6,0c0.3,0,0.5,0,0.8-0.1c0.8-0.1,1.2-0.6,1.3-1.4
					c0.1-0.5,0.1-1,0.2-1.5c0-0.4,0.1-0.8,0.1-1.2c0-0.3-0.1-0.4-0.4-0.4c-0.7,0-1.3,0-2,0c-0.1,0-0.2,0-0.3,0
					c-0.4,0-0.6-0.3-0.6-0.7c0.1-0.8,0.2-1.6,0.2-2.4c0-0.4,0.3-0.6,0.6-0.6c0.1,0,0.2,0,0.3,0c2,0,4,0,6,0c0.1,0,0.2,0,0.3,0
					c0.4,0,0.6,0.3,0.6,0.7c0,0.7-0.1,1.4-0.1,2.1c-0.1,0.8-0.1,1.5-0.2,2.3c-0.1,0.8-0.1,1.6-0.2,2.4c-0.4,2.4-2,4.1-4.3,4.7
					c-0.6,0.2-1.3,0.2-2,0.2c-1.4,0-2.8,0-4.3,0c-0.9,0-1.9-0.1-2.7-0.5c-1.5-0.6-2.3-1.8-2.5-3.3c-0.1-0.7-0.1-1.5,0-2.2
					c0.1-0.8,0.2-1.6,0.3-2.4c0.1-0.8,0.2-1.6,0.3-2.4c0.1-0.7,0.2-1.4,0.3-2.2c0.1-0.7,0.2-1.4,0.3-2.2c0.1-0.6,0.2-1.2,0.3-1.9
					c0.1-0.9,0.5-1.7,1-2.4c0.7-1,1.7-1.6,2.9-2c0.6-0.2,1.1-0.2,1.7-0.3h0.1C39.4,8.3,40.9,8.3,42.5,8.3z"/>
				<path class="st2" d="M75.6,8.3c0.1,0,0.1,0,0.2,0c0.3,0.1,0.6,0.3,0.7,0.6c0.8,2.4,1.7,4.7,2.5,7.1c1,2.8,2,5.6,3,8.4
					c0.6,1.6,1.1,3.2,1.7,4.8c0,0.1,0.1,0.2,0.1,0.3c0,0.2-0.1,0.4-0.3,0.4c-0.1,0-0.1,0-0.2,0c-1.2,0-2.4,0-3.6,0l0,0
					c-0.4,0-0.6-0.1-0.8-0.6c-0.2-0.6-0.4-1.2-0.6-1.7c-0.2-0.8-0.5-1.5-0.7-2.3c0-0.1-0.1-0.2-0.2-0.2c-2.3,0-4.6,0-6.8,0
					c-0.1,0-0.2,0-0.2,0.1c-0.3,1.3-0.6,2.7-0.9,4c-0.1,0.4-0.3,0.6-0.7,0.6c-1.2,0-2.4,0-3.6,0c-0.1,0-0.2,0-0.3,0
					c-0.1,0-0.2-0.1-0.2-0.3c0-0.1,0-0.3,0-0.4c1.3-4.9,2.5-9.8,3.8-14.7c0.5-1.8,1-3.7,1.4-5.5c0.1-0.4,0.4-0.7,0.8-0.7l0,0
					C72.3,8.3,73.9,8.3,75.6,8.3z M76.4,21.7c0-0.1,0-0.1,0-0.1c-0.1-0.4-0.2-0.7-0.3-1.1c-0.9-2.7-1.7-5.5-2.6-8.2
					c0-0.1,0-0.2-0.1-0.1l-0.1,0.1c-0.1,0.6-0.3,1.1-0.4,1.7c-0.5,2.3-1,4.6-1.6,6.9c-0.1,0.3-0.1,0.5-0.2,0.8
					C72.8,21.7,74.6,21.7,76.4,21.7z"/>
				<path class="st2" d="M109.4,8.3c0.1,0,0.2,0,0.3,0.1c0.6,0.2,0.9,0.5,1,1.1c0.7,3.2,1.4,6.5,2.1,9.7c0.2,0.9,0.4,1.7,0.6,2.6
					c0,0.1,0.1,0.1,0.2,0.1c0.8,0,1.6,0,2.4,0c0.1,0,0.2,0,0.3,0c0.3,0.1,0.5,0.3,0.6,0.6c0.2,0.8,0.4,1.7,0.6,2.5
					c0,0.1,0,0.2,0,0.3c0,0.2-0.1,0.4-0.4,0.4c-0.1,0-0.2,0-0.3,0c-0.8,0-1.6,0-2.4,0c0,0-0.1,0-0.2,0c0.1,0.3,0.1,0.5,0.2,0.8
					c0.2,0.9,0.4,1.8,0.6,2.7c0,0.1,0,0.3,0,0.4s-0.1,0.2-0.2,0.3c-0.1,0-0.2,0.1-0.3,0.1c-1,0-2,0-3,0c-0.5,0-0.8-0.3-0.9-0.7
					c-0.2-1.1-0.4-2.2-0.7-3.3c0-0.1-0.1-0.2-0.2-0.2c-3,0-5.9,0-8.9,0c-0.4,0-0.8-0.1-1.1-0.4c-0.3-0.2-0.4-0.5-0.5-0.8
					c-0.1-0.7-0.2-1.4-0.3-2.1c0-0.4,0-0.9,0.2-1.3c1.6-4,3.3-7.9,4.9-11.9c0.1-0.2,0.2-0.4,0.3-0.6c0.1-0.3,0.4-0.4,0.7-0.4h0.1
					C106.4,8.3,107.9,8.3,109.4,8.3z M103.2,21.9c2,0,3.9,0,5.9,0c-0.7-3.4-1.3-6.8-2-10.2l0,0C105.7,15.1,104.4,18.5,103.2,21.9z"
					/>
				<path class="st2" d="M86.4,8.3C86.4,8.4,86.5,8.4,86.4,8.3C86.8,8.4,87,8.6,87,9c0.1,1.1,0.2,2.2,0.4,3.3
					c0.1,1.3,0.3,2.6,0.4,3.9c0.1,1.3,0.3,2.6,0.4,3.9c0.2,1.5,0.3,3,0.5,4.4c0,0.3,0.1,0.6,0.1,0.9c0,0.4,0.2,0.5,0.6,0.5
					c2.5,0,5,0,7.5,0c0.7,0,1,0.2,1.1,0.9c0.1,0.8,0.2,1.6,0.4,2.4c0.1,0.5-0.2,0.7-0.6,0.7c-4.1,0-8.2,0-12.4,0
					c-0.5,0-0.8-0.2-0.8-0.7c-0.1-0.8-0.1-1.5-0.2-2.3c-0.1-1.6-0.3-3.2-0.4-4.8c-0.1-1.4-0.2-2.8-0.4-4.2c-0.1-1.5-0.3-3-0.4-4.5
					c-0.1-1.4-0.2-2.8-0.4-4.2c0-0.1,0-0.3,0-0.4c0-0.3,0.1-0.5,0.4-0.6h0.1C84.2,8.3,85.3,8.3,86.4,8.3z"/>
				<path class="st2" d="M67.6,8.3L67.6,8.3c0.3,0.1,0.5,0.2,0.5,0.5c0,0.8,0,1.5,0.1,2.3c0,0.3-0.2,0.5-0.5,0.5c-0.1,0-0.2,0-0.3,0
					c-1.3,0-2.5,0-3.8,0c-0.1,0-0.1,0-0.2,0c-0.2,0-0.3,0.1-0.3,0.3c0,0.1,0,0.1,0,0.2c0,5.6,0,11.2,0,16.8c0,0.1,0,0.2,0,0.3
					c0,0.4-0.3,0.6-0.7,0.6s-0.8,0-1.2,0c-0.6,0-1.3,0-1.9,0c-0.1,0-0.1,0-0.2,0c-0.5,0-0.7-0.3-0.7-0.8c0-1.6,0.1-3.1,0.1-4.7
					c0-1.4,0-2.7,0.1-4.1c0-2.8,0.1-5.5,0.1-8.3c0-0.3-0.1-0.4-0.4-0.4c-1.3,0-2.6,0-3.8,0c-0.1,0-0.2,0-0.3,0
					c-0.3-0.1-0.5-0.2-0.5-0.6c0-0.4,0-0.7,0-1.1c0-0.3,0-0.6,0-1c0-0.5,0.1-0.6,0.6-0.8C58.8,8.3,63.2,8.3,67.6,8.3z"/>
				<path class="st2" d="M31.1,8.3C31.1,8.4,31.1,8.4,31.1,8.3c0.4,0.1,0.5,0.3,0.4,0.6c0,0.3-0.1,0.7-0.1,1
					c-0.3,1.9-0.5,3.8-0.8,5.7c-0.3,2.1-0.6,4.1-0.9,6.2s-0.6,4.3-0.9,6.4c0,0.3-0.1,0.6-0.1,0.9c-0.1,0.5-0.4,0.8-0.9,0.8
					c-0.8,0-1.7,0-2.5,0c-0.3,0-0.5,0-0.8,0c-0.4,0-0.6-0.2-0.6-0.6c0-0.2,0-0.3,0.1-0.5c0.2-1.4,0.5-2.9,0.7-4.3
					c0.2-1.4,0.4-2.7,0.6-4.1c0.2-1.2,0.4-2.5,0.6-3.7c0.2-1.1,0.4-2.3,0.5-3.4c0.2-1.1,0.4-2.3,0.5-3.4C27,9.5,27,9.2,27.1,8.8
					c0.1-0.3,0.2-0.5,0.6-0.6l0,0C28.9,8.3,30,8.3,31.1,8.3z"/>
				<path class="st2" d="M52.5,8.3C52.5,8.4,52.5,8.4,52.5,8.3C52.8,8.4,53,8.6,53,8.9c0,0.3,0,0.7,0,1c-0.1,2.4-0.2,4.9-0.3,7.3
					c-0.1,1.8-0.2,3.6-0.2,5.4c-0.1,2.2-0.2,4.4-0.3,6.7c0,0.1,0,0.1,0,0.2C52,29.8,51.8,30,51.3,30s-0.9,0-1.4,0
					c-0.6,0-1.2,0-1.8,0c-0.1,0-0.1,0-0.2,0c-0.4,0-0.7-0.3-0.6-0.7c0-0.6,0.1-1.2,0.1-1.8c0.1-1.5,0.2-3.1,0.3-4.6
					c0.1-2.1,0.3-4.3,0.4-6.4c0.1-1.5,0.2-3,0.3-4.5c0.1-1,0.1-2,0.2-3c0-0.4,0.2-0.5,0.5-0.6l0,0C50.3,8.3,51.4,8.3,52.5,8.3z"/>
			</g>
			<g class="st3">
				<g>
					<defs>
						<rect id="SVGID_1_" x="4.7" y="17.2" width="113.8" height="22.3"/>
					</defs>
					<clipPath id="SVGID_2_">
						<use xlink:href="#SVGID_1_"  style="overflow:visible;"/>
					</clipPath>
					
						<linearGradient id="SVGID_3_" gradientUnits="userSpaceOnUse" x1="59.9" y1="22.7378" x2="59.9" y2="28.7157" gradientTransform="matrix(1 0 0 -1 0 51.2756)">
						<stop  offset="0" style="stop-color:#FFFFFF"/>
						<stop  offset="0.1275" style="stop-color:#FAFAFA"/>
						<stop  offset="0.2878" style="stop-color:#EAEAEA"/>
						<stop  offset="0.4656" style="stop-color:#D1D1D0"/>
						<stop  offset="0.6561" style="stop-color:#ADADAD"/>
						<stop  offset="0.8544" style="stop-color:#80807F"/>
						<stop  offset="1" style="stop-color:#5A5A59"/>
					</linearGradient>
					<path class="st4" d="M123.5-14.5H-3.7v25.3h14.6c-0.3,1.1-0.5,2.3-0.8,3.4C9.6,16.6,9,19,8.5,21.3c-0.6,2.4-1.1,4.8-1.7,7.3
						c-0.1,0.3-0.1,0.6-0.2,0.8c0,0.4,0.2,0.6,0.6,0.6c0.1,0,0.1,0,0.2,0c3,0,6,0,9,0c0.5,0,1.1,0,1.6-0.1c1.2-0.2,2.2-0.6,3.2-1.3
						c1.3-1,2.1-2.4,2.4-4c0.2-1.2,0.4-2.3,0.6-3.5c0.4-2.4,0.8-4.8,1.2-7.2c0.1-0.7,0.2-1.5,0.1-2.2c0-0.4-0.1-0.7-0.2-1H27
						c-0.1,0.9-0.3,1.8-0.4,2.7c-0.2,1.1-0.4,2.3-0.5,3.4c-0.2,1.2-0.4,2.5-0.6,3.7c-0.2,1.4-0.4,2.7-0.6,4.1s-0.5,2.9-0.7,4.3
						c0,0.2-0.1,0.3-0.1,0.5c0,0.4,0.2,0.6,0.6,0.6c0.3,0,0.5,0,0.8,0c0.8,0,1.7,0,2.5,0c0.5,0,0.8-0.2,0.9-0.8
						c0-0.3,0.1-0.6,0.1-0.9c0.3-2.1,0.6-4.3,0.9-6.4s0.6-4.1,0.9-6.2c0.2-1.6,0.5-3.3,0.7-4.9H33c-0.5,0.7-0.8,1.5-0.9,2.3
						c-0.1,0.6-0.2,1.2-0.3,1.9c-0.1,0.7-0.2,1.4-0.3,2.2c-0.1,0.7-0.2,1.4-0.3,2.2c-0.1,0.8-0.2,1.6-0.3,2.4
						c-0.1,0.8-0.2,1.6-0.3,2.4c-0.1,0.7-0.1,1.5,0,2.2c0.2,1.6,1,2.7,2.5,3.3c0.9,0.4,1.8,0.5,2.7,0.5c1.4,0,2.8,0,4.3,0
						c0.7,0,1.3-0.1,2-0.2c2.3-0.6,3.9-2.2,4.3-4.7c0.1-0.8,0.2-1.6,0.2-2.4c0.1-0.8,0.1-1.5,0.2-2.3c0-0.7,0.1-1.4,0.1-2.1
						c0-0.4-0.2-0.7-0.6-0.7c-0.1,0-0.2,0-0.3,0c-2,0-4,0-6,0c-0.1,0-0.2,0-0.3,0c-0.4,0-0.6,0.3-0.6,0.6c-0.1,0.8-0.2,1.6-0.2,2.4
						c0,0.4,0.2,0.6,0.6,0.7c0.1,0,0.2,0,0.3,0c0.7,0,1.3,0,2,0c0.3,0,0.4,0.1,0.4,0.4c0,0.4-0.1,0.8-0.1,1.2
						c-0.1,0.5-0.1,1-0.2,1.5c-0.1,0.7-0.6,1.2-1.3,1.4c-0.3,0-0.5,0.1-0.8,0.1c-0.9,0-1.7,0-2.6,0c-0.3,0-0.7-0.1-1-0.2
						c-0.4-0.1-0.7-0.4-0.8-0.9c-0.1-0.3-0.1-0.6,0-0.9c0.1-1,0.2-1.9,0.3-2.9c0.2-2,0.4-3.9,0.7-5.9c0.1-0.7,0.1-1.3,0.2-2
						c0.1-0.8,0.5-1.3,1.3-1.4c0.1,0,0.3-0.1,0.4-0.1c1,0,2.1,0,3.1,0c0.2,0,0.5,0.1,0.7,0.2c0.3,0.1,0.5,0.4,0.6,0.7
						c0.1,0.2,0.1,0.5,0.1,0.7c0,0.3,0,0.7-0.1,1c0,0.6,0.1,0.8,0.7,0.8c1,0,1.9,0,2.9,0c0.1,0,0.2,0,0.2,0c0.4,0,0.6-0.3,0.6-0.6
						c0-0.2,0-0.4,0-0.5c0-0.6,0.1-1.2,0-1.7s-0.2-1-0.4-1.5h1.7c0,0.4-0.1,0.8-0.1,1.3c-0.1,1.5-0.2,3-0.3,4.5
						c-0.1,2.1-0.3,4.3-0.4,6.4c-0.1,1.5-0.2,3.1-0.3,4.6c0,0.6-0.1,1.2-0.1,1.8c0,0.4,0.2,0.7,0.6,0.7c0.1,0,0.1,0,0.2,0
						c0.6,0,1.2,0,1.8,0c0.5,0,0.9,0,1.4,0c0.4,0,0.7-0.2,0.7-0.6c0-0.1,0-0.1,0-0.2c0.1-2.2,0.2-4.4,0.3-6.7
						c0.1-1.8,0.2-3.6,0.2-5.4c0.1-2.2,0.2-4.3,0.3-6.5h0.8c0,0.2,0,0.3,0,0.5c0,0.3,0.2,0.5,0.5,0.6c0.1,0,0.2,0,0.3,0
						c1.3,0,2.6,0,3.8,0c0.3,0,0.4,0.1,0.4,0.4c0,2.8-0.1,5.5-0.1,8.3c0,1.4,0,2.7-0.1,4.1c0,1.6-0.1,3.1-0.1,4.7
						c0,0.5,0.2,0.7,0.7,0.8c0.1,0,0.1,0,0.2,0c0.6,0,1.3,0,1.9,0c0.4,0,0.8,0,1.2,0s0.7-0.2,0.7-0.6c0-0.1,0-0.2,0-0.3
						c0-5.6,0-11.2,0-16.8c0-0.1,0-0.1,0-0.2c0-0.2,0.1-0.3,0.3-0.3c0.1,0,0.1,0,0.2,0c1.3,0,2.5,0,3.8,0c0.1,0,0.2,0,0.3,0
						c0.3-0.1,0.5-0.3,0.5-0.5s0-0.3,0-0.5h1.1c-0.3,1.3-0.7,2.6-1,3.9c-1.3,4.9-2.5,9.8-3.8,14.7c0,0.1,0,0.3,0,0.4
						s0.1,0.2,0.2,0.3c0.1,0,0.2,0,0.3,0c1.2,0,2.4,0,3.6,0c0.4,0,0.6-0.2,0.7-0.6c0.3-1.3,0.6-2.7,0.9-4c0-0.1,0.1-0.1,0.2-0.1
						c2.3,0,4.6,0,6.8,0c0.1,0,0.2,0,0.2,0.2c0.2,0.8,0.5,1.5,0.7,2.3c0.2,0.6,0.4,1.2,0.6,1.7c0.1,0.4,0.3,0.6,0.8,0.6l0,0
						c1.2,0,2.4,0,3.6,0c0.1,0,0.1,0,0.2,0c0.2,0,0.3-0.2,0.3-0.4c0-0.1,0-0.2-0.1-0.3c-0.6-1.6-1.1-3.2-1.7-4.8c-1-2.8-2-5.6-3-8.4
						c-0.6-1.8-1.3-3.6-1.9-5.4h5.8c0.1,0.9,0.2,1.9,0.3,2.8c0.1,1.5,0.3,3,0.4,4.5c0.1,1.4,0.2,2.8,0.4,4.2
						c0.1,1.6,0.3,3.2,0.4,4.8c0.1,0.8,0.1,1.5,0.2,2.3c0.1,0.5,0.3,0.7,0.8,0.7c4.1,0,8.2,0,12.4,0c0.5,0,0.7-0.2,0.6-0.7
						c-0.1-0.8-0.2-1.6-0.4-2.4c-0.1-0.7-0.3-0.9-1.1-0.9c-2.5,0-5,0-7.5,0c-0.4,0-0.5-0.1-0.6-0.5c0-0.3-0.1-0.6-0.1-0.9
						c-0.2-1.5-0.3-3-0.5-4.4c-0.1-1.3-0.3-2.6-0.4-3.9s-0.3-2.6-0.4-3.9c-0.1-0.5-0.1-1-0.2-1.6h16.1c-1.4,3.5-2.9,7-4.3,10.5
						c-0.2,0.4-0.3,0.8-0.2,1.3c0.1,0.7,0.2,1.4,0.3,2.1c0.1,0.3,0.2,0.6,0.5,0.8c0.3,0.3,0.7,0.4,1.1,0.4c3,0,5.9,0,8.9,0
						c0.2,0,0.2,0,0.2,0.2c0.2,1.1,0.4,2.2,0.7,3.3c0.1,0.5,0.4,0.7,0.9,0.7c1,0,2,0,3,0c0.1,0,0.2,0,0.3-0.1c0.1,0,0.2-0.1,0.2-0.3
						c0-0.1,0-0.3,0-0.4c-0.2-0.9-0.4-1.8-0.6-2.7c-0.1-0.3-0.1-0.5-0.2-0.8c0.1,0,0.1,0,0.2,0c0.8,0,1.6,0,2.4,0c0.1,0,0.2,0,0.3,0
						c0.2,0,0.4-0.2,0.4-0.4c0-0.1,0-0.2,0-0.3c-0.2-0.8-0.4-1.7-0.6-2.5c-0.1-0.3-0.3-0.5-0.6-0.6c-0.1,0-0.2,0-0.3,0
						c-0.8,0-1.6,0-2.4,0c-0.1,0-0.1,0-0.2-0.1c-0.2-0.9-0.4-1.7-0.6-2.6c-0.6-2.8-1.2-5.6-1.8-8.4h12.6v-25.8H123.5z M20.8,14.1
						c-0.4,2.4-0.9,4.8-1.3,7.2c-0.2,0.9-0.3,1.8-0.5,2.7c-0.1,0.3-0.1,0.6-0.3,0.8c-0.3,0.7-0.9,1-1.6,1.1c-0.3,0-0.5,0-0.8,0.1
						c-0.6,0-1.2,0-1.8,0c-0.7,0-1.4,0-2.1,0c-0.1,0-0.1,0-0.2,0C12,26,12,25.9,12,25.7c0-0.1,0-0.1,0-0.2c0.9-4.4,1.9-8.9,2.8-13.3
						v-0.1c0.1-0.3,0.2-0.4,0.5-0.4c0.4,0,0.8,0,1.2,0c0.9,0,1.7,0,2.6,0c0.3,0,0.6,0,0.9,0.1c0.7,0.2,1,0.5,1,1.2
						C21,13.4,20.9,13.7,20.8,14.1z M71,21.7c0.1-0.3,0.1-0.5,0.2-0.8c0.5-2.3,1-4.6,1.6-6.9c0.1-0.6,0.3-1.1,0.4-1.7
						c0-0.1,0.1-0.1,0.1-0.1c0.1,0,0.1,0.1,0.1,0.1c0.9,2.7,1.7,5.5,2.6,8.2c0.1,0.4,0.2,0.7,0.3,1.1v0.1
						C74.6,21.7,72.8,21.7,71,21.7z M103.2,21.9c1.3-3.4,2.6-6.8,3.8-10.2l0,0c0.7,3.4,1.3,6.8,2,10.2
						C107.1,21.9,105.1,21.9,103.2,21.9z"/>
				</g>
			</g>
			<g>
				<path class="st5" d="M21.1,8.3c0.3,0,0.6,0.1,0.9,0.1c0.8,0.1,1.5,0.4,2.1,0.8c0.8,0.6,1.2,1.5,1.3,2.5c0.1,0.8,0,1.5-0.1,2.2
					c-0.4,2.4-0.8,4.8-1.2,7.2c-0.2,1.2-0.4,2.3-0.6,3.5c-0.3,1.6-1.1,3-2.4,4c-0.9,0.7-2,1.1-3.2,1.3c-0.5,0.1-1,0.1-1.5,0.1
					c-3,0-6,0-9,0c-0.1,0-0.1,0-0.2,0c-0.4,0-0.6-0.3-0.5-0.6c0-0.3,0.1-0.6,0.2-0.8c0.6-2.4,1.1-4.8,1.7-7.3
					c0.5-2.4,1.1-4.8,1.6-7.1c0.4-1.7,0.8-3.4,1.2-5.1c0.1-0.4,0.3-0.6,0.7-0.7l0,0C15,8.3,18.1,8.3,21.1,8.3z M14.6,26
					c0.6,0,1.2,0,1.8,0c0.3,0,0.5,0,0.8-0.1c0.7-0.1,1.3-0.4,1.6-1.1c0.1-0.3,0.2-0.5,0.3-0.8c0.2-0.9,0.3-1.8,0.5-2.7
					c0.4-2.4,0.9-4.8,1.3-7.2c0.1-0.4,0.1-0.8,0.1-1.2c0-0.6-0.3-1-0.9-1.1c-0.3-0.1-0.6-0.1-0.9-0.1c-0.9,0-1.7,0-2.6,0
					c-0.4,0-0.8,0-1.2,0c-0.3,0-0.4,0.1-0.5,0.4v0.1c-0.9,4.4-1.9,8.9-2.8,13.3c0,0.1,0,0.1,0,0.2c0,0.2,0.1,0.3,0.2,0.3
					c0.1,0,0.1,0,0.2,0C13.2,26,13.9,26,14.6,26z"/>
				<path class="st5" d="M42.5,8.3c0.3,0,0.6,0.1,0.9,0.1c0.9,0.1,1.6,0.4,2.3,1c0.9,0.7,1.3,1.7,1.5,2.8c0.1,0.6,0,1.2,0,1.7
					c0,0.2,0,0.4,0,0.5c0,0.4-0.2,0.6-0.6,0.6c-0.1,0-0.2,0-0.2,0c-1,0-1.9,0-2.9,0c-0.6,0-0.8-0.2-0.7-0.8c0-0.3,0.1-0.7,0.1-1
					c0-0.2,0-0.5-0.1-0.7c-0.1-0.3-0.3-0.6-0.6-0.7c-0.2-0.1-0.5-0.2-0.7-0.2c-1,0-2.1,0-3.1,0c-0.1,0-0.3,0-0.4,0.1
					c-0.8,0.2-1.2,0.7-1.3,1.4s-0.2,1.3-0.2,2c-0.2,2-0.5,3.9-0.7,5.9c-0.1,1-0.2,1.9-0.3,2.9c0,0.3,0,0.6,0,0.9
					c0.1,0.4,0.4,0.7,0.8,0.9c0.3,0.1,0.6,0.2,1,0.2c0.9,0,1.7,0,2.6,0c0.3,0,0.5,0,0.8-0.1c0.8-0.1,1.2-0.6,1.3-1.4
					c0.1-0.5,0.1-1,0.2-1.5c0-0.4,0.1-0.8,0.1-1.2c0-0.3-0.1-0.4-0.4-0.4c-0.7,0-1.3,0-2,0c-0.1,0-0.2,0-0.3,0
					c-0.4,0-0.6-0.3-0.6-0.7c0.1-0.8,0.2-1.6,0.2-2.4c0-0.4,0.3-0.6,0.6-0.6c0.1,0,0.2,0,0.3,0c2,0,4,0,6,0c0.1,0,0.2,0,0.3,0
					c0.4,0,0.6,0.3,0.6,0.7c0,0.7-0.1,1.4-0.1,2.1c-0.1,0.8-0.1,1.5-0.2,2.3c-0.1,0.8-0.1,1.6-0.2,2.4c-0.4,2.4-2,4.1-4.3,4.7
					c-0.6,0.2-1.3,0.2-2,0.2c-1.4,0-2.8,0-4.3,0c-0.9,0-1.9-0.1-2.7-0.5c-1.5-0.6-2.3-1.8-2.5-3.3c-0.1-0.7-0.1-1.5,0-2.2
					c0.1-0.8,0.2-1.6,0.3-2.4c0.1-0.8,0.2-1.6,0.3-2.4c0.1-0.7,0.2-1.4,0.3-2.2c0.1-0.7,0.2-1.4,0.3-2.2c0.1-0.6,0.2-1.2,0.3-1.9
					c0.1-0.9,0.5-1.7,1-2.4c0.7-1,1.7-1.6,2.9-2c0.6-0.2,1.1-0.2,1.7-0.3h0.1C39.4,8.3,40.9,8.3,42.5,8.3z"/>
				<path class="st5" d="M75.6,8.3c0.1,0,0.1,0,0.2,0c0.3,0.1,0.6,0.3,0.7,0.6c0.8,2.4,1.7,4.7,2.5,7.1c1,2.8,2,5.6,3,8.4
					c0.6,1.6,1.1,3.2,1.7,4.8c0,0.1,0.1,0.2,0.1,0.3c0,0.2-0.1,0.4-0.3,0.4c-0.1,0-0.1,0-0.2,0c-1.2,0-2.4,0-3.6,0l0,0
					c-0.4,0-0.6-0.1-0.8-0.6c-0.2-0.6-0.4-1.2-0.6-1.7c-0.2-0.8-0.5-1.5-0.7-2.3c0-0.1-0.1-0.2-0.2-0.2c-2.3,0-4.6,0-6.8,0
					c-0.1,0-0.2,0-0.2,0.1c-0.3,1.3-0.6,2.7-0.9,4c-0.1,0.4-0.3,0.6-0.7,0.6c-1.2,0-2.4,0-3.6,0c-0.1,0-0.2,0-0.3,0
					c-0.1,0-0.2-0.1-0.2-0.3c0-0.1,0-0.3,0-0.4c1.3-4.9,2.5-9.8,3.8-14.7c0.5-1.8,1-3.7,1.4-5.5c0.1-0.4,0.4-0.7,0.8-0.7l0,0
					C72.3,8.3,73.9,8.3,75.6,8.3z M76.4,21.7c0-0.1,0-0.1,0-0.1c-0.1-0.4-0.2-0.7-0.3-1.1c-0.9-2.7-1.7-5.5-2.6-8.2
					c0-0.1,0-0.2-0.1-0.1l-0.1,0.1c-0.1,0.6-0.3,1.1-0.4,1.7c-0.5,2.3-1,4.6-1.6,6.9c-0.1,0.3-0.1,0.5-0.2,0.8
					C72.8,21.7,74.6,21.7,76.4,21.7z"/>
				<path class="st5" d="M109.4,8.3c0.1,0,0.2,0,0.3,0.1c0.6,0.2,0.9,0.5,1,1.1c0.7,3.2,1.4,6.5,2.1,9.7c0.2,0.9,0.4,1.7,0.6,2.6
					c0,0.1,0.1,0.1,0.2,0.1c0.8,0,1.6,0,2.4,0c0.1,0,0.2,0,0.3,0c0.3,0.1,0.5,0.3,0.6,0.6c0.2,0.8,0.4,1.7,0.6,2.5
					c0,0.1,0,0.2,0,0.3c0,0.2-0.1,0.4-0.4,0.4c-0.1,0-0.2,0-0.3,0c-0.8,0-1.6,0-2.4,0c0,0-0.1,0-0.2,0c0.1,0.3,0.1,0.5,0.2,0.8
					c0.2,0.9,0.4,1.8,0.6,2.7c0,0.1,0,0.3,0,0.4s-0.1,0.2-0.2,0.3c-0.1,0-0.2,0.1-0.3,0.1c-1,0-2,0-3,0c-0.5,0-0.8-0.3-0.9-0.7
					c-0.2-1.1-0.4-2.2-0.7-3.3c0-0.1-0.1-0.2-0.2-0.2c-3,0-5.9,0-8.9,0c-0.4,0-0.8-0.1-1.1-0.4c-0.3-0.2-0.4-0.5-0.5-0.8
					c-0.1-0.7-0.2-1.4-0.3-2.1c0-0.4,0-0.9,0.2-1.3c1.6-4,3.3-7.9,4.9-11.9c0.1-0.2,0.2-0.4,0.3-0.6c0.1-0.3,0.4-0.4,0.7-0.4h0.1
					C106.4,8.3,107.9,8.3,109.4,8.3z M103.2,21.9c2,0,3.9,0,5.9,0c-0.7-3.4-1.3-6.8-2-10.2l0,0C105.7,15.1,104.4,18.5,103.2,21.9z"
					/>
				<path class="st5" d="M86.4,8.3C86.4,8.4,86.5,8.4,86.4,8.3C86.8,8.4,87,8.6,87,9c0.1,1.1,0.2,2.2,0.4,3.3
					c0.1,1.3,0.3,2.6,0.4,3.9c0.1,1.3,0.3,2.6,0.4,3.9c0.2,1.5,0.3,3,0.5,4.4c0,0.3,0.1,0.6,0.1,0.9c0,0.4,0.2,0.5,0.6,0.5
					c2.5,0,5,0,7.5,0c0.7,0,1,0.2,1.1,0.9c0.1,0.8,0.2,1.6,0.4,2.4c0.1,0.5-0.2,0.7-0.6,0.7c-4.1,0-8.2,0-12.4,0
					c-0.5,0-0.8-0.2-0.8-0.7c-0.1-0.8-0.1-1.5-0.2-2.3c-0.1-1.6-0.3-3.2-0.4-4.8c-0.1-1.4-0.2-2.8-0.4-4.2c-0.1-1.5-0.3-3-0.4-4.5
					c-0.1-1.4-0.2-2.8-0.4-4.2c0-0.1,0-0.3,0-0.4c0-0.3,0.1-0.5,0.4-0.6h0.1C84.2,8.3,85.3,8.3,86.4,8.3z"/>
				<path class="st5" d="M67.6,8.3L67.6,8.3c0.3,0.1,0.5,0.2,0.5,0.5c0,0.8,0,1.5,0.1,2.3c0,0.3-0.2,0.5-0.5,0.5c-0.1,0-0.2,0-0.3,0
					c-1.3,0-2.5,0-3.8,0c-0.1,0-0.1,0-0.2,0c-0.2,0-0.3,0.1-0.3,0.3c0,0.1,0,0.1,0,0.2c0,5.6,0,11.2,0,16.8c0,0.1,0,0.2,0,0.3
					c0,0.4-0.3,0.6-0.7,0.6s-0.8,0-1.2,0c-0.6,0-1.3,0-1.9,0c-0.1,0-0.1,0-0.2,0c-0.5,0-0.7-0.3-0.7-0.8c0-1.6,0.1-3.1,0.1-4.7
					c0-1.4,0-2.7,0.1-4.1c0-2.8,0.1-5.5,0.1-8.3c0-0.3-0.1-0.4-0.4-0.4c-1.3,0-2.6,0-3.8,0c-0.1,0-0.2,0-0.3,0
					c-0.3-0.1-0.5-0.2-0.5-0.6c0-0.4,0-0.7,0-1.1c0-0.3,0-0.6,0-1c0-0.5,0.1-0.6,0.6-0.8C58.8,8.3,63.2,8.3,67.6,8.3z"/>
				<path class="st5" d="M31.1,8.3C31.1,8.4,31.1,8.4,31.1,8.3c0.4,0.1,0.5,0.3,0.4,0.6c0,0.3-0.1,0.7-0.1,1
					c-0.3,1.9-0.5,3.8-0.8,5.7c-0.3,2.1-0.6,4.1-0.9,6.2s-0.6,4.3-0.9,6.4c0,0.3-0.1,0.6-0.1,0.9c-0.1,0.5-0.4,0.8-0.9,0.8
					c-0.8,0-1.7,0-2.5,0c-0.3,0-0.5,0-0.8,0c-0.4,0-0.6-0.2-0.6-0.6c0-0.2,0-0.3,0.1-0.5c0.2-1.4,0.5-2.9,0.7-4.3
					c0.2-1.4,0.4-2.7,0.6-4.1c0.2-1.2,0.4-2.5,0.6-3.7c0.2-1.1,0.4-2.3,0.5-3.4c0.2-1.1,0.4-2.3,0.5-3.4C27,9.5,27,9.2,27.1,8.8
					c0.1-0.3,0.2-0.5,0.6-0.6l0,0C28.9,8.3,30,8.3,31.1,8.3z"/>
				<path class="st5" d="M52.5,8.3C52.5,8.4,52.5,8.4,52.5,8.3C52.8,8.4,53,8.6,53,8.9c0,0.3,0,0.7,0,1c-0.1,2.4-0.2,4.9-0.3,7.3
					c-0.1,1.8-0.2,3.6-0.2,5.4c-0.1,2.2-0.2,4.4-0.3,6.7c0,0.1,0,0.1,0,0.2C52,29.8,51.8,30,51.3,30s-0.9,0-1.4,0
					c-0.6,0-1.2,0-1.8,0c-0.1,0-0.1,0-0.2,0c-0.4,0-0.7-0.3-0.6-0.7c0-0.6,0.1-1.2,0.1-1.8c0.1-1.5,0.2-3.1,0.3-4.6
					c0.1-2.1,0.3-4.3,0.4-6.4c0.1-1.5,0.2-3,0.3-4.5c0.1-1,0.1-2,0.2-3c0-0.4,0.2-0.5,0.5-0.6l0,0C50.3,8.3,51.4,8.3,52.5,8.3z"/>
			</g>
			<g class="st6">
				<path class="st1" d="M92.3,17.1h-0.5c-0.2,0-0.2-0.1-0.2-0.2c0.1-0.4,0.6-1.7,1.5-4.1c0.9-2.4,1.3-3.7,1.4-4
					c0.1-0.1,0.1-0.2,0.3-0.2h0.6c0.2,0,0.2,0.1,0.1,0.2l-2.9,8.1C92.5,17.1,92.5,17.1,92.3,17.1z"/>
				<path class="st1" d="M97.6,17.1h-0.5c-0.2,0-0.2-0.1-0.2-0.2c0.1-0.4,0.6-1.7,1.5-4.1c0.9-2.4,1.3-3.7,1.4-4
					c0.1-0.1,0.1-0.2,0.3-0.2h0.6c0.2,0,0.2,0.1,0.1,0.2l-2.9,8.1C97.8,17.1,97.8,17.1,97.6,17.1z"/>
			</g>
			<g class="st6">
				<path class="st2" d="M54.7,41.1h-0.6c-0.1,0-0.2-0.1-0.2-0.2v-5.1c0-0.1,0-0.1-0.1-0.1h-1.2c-0.1,0-0.2-0.1-0.2-0.2v-0.5
					c0-0.1,0.1-0.2,0.2-0.2h3.6c0.1,0,0.2,0.1,0.2,0.2v0.5c0,0.1-0.1,0.2-0.2,0.2H55c-0.1,0-0.1,0-0.1,0.1V41
					C54.9,41.1,54.8,41.1,54.7,41.1z"/>
				<path class="st2" d="M60.4,41.1h-3.1c-0.1,0-0.2-0.1-0.2-0.2v-5.8c0-0.1,0.1-0.2,0.2-0.2h3.1c0.1,0,0.2,0.1,0.2,0.2v0.5
					c0,0.1-0.1,0.2-0.2,0.2h-2.2c-0.1,0-0.1,0-0.1,0.1v1.6c0,0.1,0,0.1,0.1,0.1h1.9c0.1,0,0.2,0.1,0.2,0.2v0.5
					c0,0.1-0.1,0.2-0.2,0.2h-1.9c-0.1,0-0.1,0-0.1,0.1v1.7c0,0.1,0,0.1,0.1,0.1h2.2c0.1,0,0.2,0.1,0.2,0.2V41
					C60.6,41.1,60.5,41.1,60.4,41.1z"/>
				<path class="st2" d="M64.3,41.1h-1.1c-0.5,0-0.8-0.1-1.1-0.4s-0.4-0.6-0.4-1.1v-3.2c0-0.5,0.1-0.8,0.4-1.1
					c0.3-0.3,0.6-0.4,1.1-0.4h1.1c0.5,0,0.8,0.1,1.1,0.4c0.3,0.3,0.4,0.6,0.4,1.1v0.5c0,0.1-0.1,0.2-0.2,0.2H65
					c-0.1,0-0.2-0.1-0.2-0.2v-0.4c0-0.5-0.2-0.7-0.7-0.7h-0.8c-0.5,0-0.7,0.2-0.7,0.7v3.1c0,0.5,0.2,0.7,0.7,0.7h0.8
					c0.5,0,0.7-0.2,0.7-0.7v-0.4c0-0.1,0.1-0.2,0.2-0.2h0.6c0.1,0,0.2,0.1,0.2,0.2v0.5c0,0.5-0.1,0.8-0.4,1.1S64.8,41.1,64.3,41.1z"
					/>
				<path class="st2" d="M67.8,41.1h-0.6C67,41.1,67,41.1,67,41v-5.8C67,35,67,35,67.1,35h0.6c0.1,0,0.2,0.1,0.2,0.2v2.4
					c0,0.1,0,0.1,0.1,0.1h2c0.1,0,0.1,0,0.1-0.1v-2.4c0-0.1,0.1-0.2,0.2-0.2h0.6c0.1,0,0.2,0.1,0.2,0.2V41c0,0.1-0.1,0.2-0.2,0.2
					h-0.6c-0.1,0-0.2-0.1-0.2-0.2v-2.4c0-0.1,0-0.1-0.1-0.1h-2c-0.1,0-0.1,0-0.1,0.1V41C67.9,41.1,67.9,41.1,67.8,41.1z"/>
			</g>
			<g>
				<rect x="46.6" y="35.8" class="st7" width="1.1" height="4.1"/>
				<rect x="45.1" y="37.2" class="st7" width="4.1" height="1.1"/>
			</g>
			<g>
				<circle class="st7" cx="76.8" cy="36.1" r="0.8"/>
				<circle class="st7" cx="76.8" cy="39.5" r="0.8"/>
				<circle class="st7" cx="78.5" cy="37.8" r="0.8"/>
				<circle class="st7" cx="75.2" cy="37.8" r="0.8"/>
			</g>
		</g>
	</g>
</g>
</svg>
