<?xml version="1.0" encoding="utf-8"?>
<!-- Generator: Adobe Illustrator 24.0.1, SVG Export Plug-In . SVG Version: 6.00 Build 0)  -->
<svg version="1.1" id="Capa_1" xmlns="http://www.w3.org/2000/svg" xmlns:xlink="http://www.w3.org/1999/xlink" x="0px" y="0px"
	 viewBox="0 0 50 50" style="enable-background:new 0 0 50 50;" xml:space="preserve">
<style type="text/css">
	.st0{clip-path:url(#SVGID_2_);}
	.st1{opacity:0.9;}
	.st2{fill:#FFFFFF;}
	.st3{fill:none;stroke:#E31A52;stroke-width:0.2165;stroke-miterlimit:10;}
	.st4{fill:#E31A52;}
	.st5{clip-path:url(#SVGID_2_);fill:none;stroke:#E31A52;stroke-width:0.3632;stroke-miterlimit:10;}
	.st6{fill:#131313;}
	.st7{fill:none;stroke:#E31A52;stroke-width:2.5368;stroke-miterlimit:10;}
	.st8{opacity:0.52;}
	.st9{clip-path:url(#SVGID_4_);fill:url(#SVGID_5_);}
	.st10{fill:none;stroke:#FFFFFF;stroke-width:0.3888;stroke-miterlimit:10;}
	.st11{fill:#1C1C1B;}
	.st12{fill:#CECECE;}
	.st13{fill:#545454;}
	.st14{fill:#E31A52;stroke:#E31A52;stroke-width:0.5;stroke-miterlimit:10;}
	.st15{fill:#848484;}
	.st16{opacity:0.2;}
	.st17{fill:none;stroke:#E31A52;stroke-width:0.478;stroke-miterlimit:10;}
	.st18{clip-path:url(#SVGID_7_);fill:url(#SVGID_8_);}
	.st19{clip-path:url(#SVGID_10_);fill:url(#SVGID_11_);}
	.st20{clip-path:url(#SVGID_13_);}
	.st21{clip-path:url(#SVGID_13_);fill:url(#SVGID_14_);}
	.st22{clip-path:url(#SVGID_13_);fill:url(#SVGID_15_);}
	.st23{opacity:0.4;}
	.st24{fill:none;stroke:#E31A52;stroke-width:0.75;stroke-miterlimit:10;}
	.st25{fill:#C1C1C1;}
	.st26{fill:#808080;}
	.st27{clip-path:url(#SVGID_17_);fill:url(#SVGID_18_);}
	.st28{clip-path:url(#SVGID_20_);}
	.st29{clip-path:url(#SVGID_20_);fill:url(#SVGID_21_);}
	.st30{clip-path:url(#SVGID_20_);fill:url(#SVGID_22_);}
	.st31{opacity:0.33;fill:#131313;stroke:#E31A52;stroke-width:1.52;stroke-miterlimit:10;}
	.st32{fill:#FFFFFF;stroke:#E31A52;stroke-miterlimit:10;}
	.st33{fill:none;stroke:#E31A52;stroke-width:0.7184;stroke-miterlimit:10;}
	.st34{fill:#5E5E5E;}
	.st35{clip-path:url(#SVGID_24_);fill:url(#SVGID_25_);}
	.st36{fill:none;stroke:#E31A52;stroke-width:0.5;stroke-miterlimit:10;}
	.st37{fill:#005EA9;}
	.st38{fill:#E1061D;}
	.st39{fill:#005EA8;}
	.st40{clip-path:url(#SVGID_29_);}
	.st41{clip-path:url(#SVGID_35_);}
	.st42{clip-path:url(#SVGID_39_);}
	.st43{fill:#9B9B9B;}
	.st44{fill:none;stroke:#000000;stroke-width:0.478;stroke-miterlimit:10;}
	.st45{opacity:0.9;fill:#E31A52;}
	.st46{clip-path:url(#SVGID_43_);fill:url(#SVGID_44_);}
	.st47{fill:#E31A52;stroke:#E31A52;stroke-width:1.2934;stroke-miterlimit:10;}
	.st48{fill:none;stroke:#9B9B9B;stroke-width:0.5;stroke-miterlimit:10;}
	.st49{fill:none;stroke:#D80ECF;stroke-width:2;stroke-miterlimit:10;}
	.st50{fill:#D80ECF;}
	.st51{fill:none;stroke:#D80ECF;stroke-width:0.7382;stroke-miterlimit:10;}
	.st52{fill:none;stroke:#E31A52;stroke-width:1.1487;stroke-miterlimit:10;}
	.st53{clip-path:url(#SVGID_46_);fill:url(#SVGID_47_);}
	.st54{fill:none;stroke:#FFFFFF;stroke-width:0.1761;stroke-miterlimit:10;}
	.st55{fill:#E31A52;stroke:#E31A52;stroke-width:0.2264;stroke-miterlimit:10;}
	.st56{clip-path:url(#SVGID_49_);}
	.st57{clip-path:url(#SVGID_49_);fill:url(#SVGID_50_);}
	.st58{clip-path:url(#SVGID_49_);fill:url(#SVGID_51_);}
	.st59{fill:none;stroke:#E31A52;stroke-width:0.3396;stroke-miterlimit:10;}
	.st60{fill:none;stroke:#E31A52;stroke-width:1.6364;stroke-miterlimit:10;}
	.st61{clip-path:url(#SVGID_53_);fill:url(#SVGID_54_);}
	.st62{fill:none;stroke:#FFFFFF;stroke-width:0.2508;stroke-miterlimit:10;}
	.st63{clip-path:url(#SVGID_56_);fill:url(#SVGID_57_);}
	.st64{fill:#E31A52;stroke:#E31A52;stroke-width:0.4189;stroke-miterlimit:10;}
	.st65{fill:none;stroke:#E31A52;stroke-width:0.3632;stroke-miterlimit:10;}
	.st66{clip-path:url(#SVGID_59_);}
	.st67{fill:#888888;}
</style>
<g>
	<defs>
		<rect id="SVGID_48_" x="-485" y="-13.2" width="380" height="151.5"/>
	</defs>
	<clipPath id="SVGID_2_">
		<use xlink:href="#SVGID_48_"  style="overflow:visible;"/>
	</clipPath>
	<g id="OJZ6yf_2_" class="st0">
		
			<image style="overflow:visible;" width="1366" height="768" id="OJZ6yf_3_" xlink:href="5993EBDDD23FE5B6.jpg"  transform="matrix(0.2464 0 0 0.2464 -333.6476 -25.4969)">
		</image>
	</g>
	
		<linearGradient id="SVGID_4_" gradientUnits="userSpaceOnUse" x1="11772.0176" y1="-7674.8022" x2="11835.5537" y2="-7674.8022" gradientTransform="matrix(-1 0 0 -1 11804 -7608)">
		<stop  offset="0" style="stop-color:#131313"/>
		<stop  offset="1" style="stop-color:#151515;stop-opacity:0"/>
	</linearGradient>
	<polygon style="clip-path:url(#SVGID_2_);fill:url(#SVGID_4_);" points="-37.5,-1 241.8,-1 241.8,134.6 -37.5,134.6 	"/>
</g>
<g>
	<g>
		<g>
			<g class="st8">
				<defs>
					<rect id="SVGID_55_" x="-47.3" y="74.2" class="st8" width="113.8" height="22.3"/>
				</defs>
				<clipPath id="SVGID_5_">
					<use xlink:href="#SVGID_55_"  style="overflow:visible;"/>
				</clipPath>
				<linearGradient id="SVGID_7_" gradientUnits="userSpaceOnUse" x1="7.8856" y1="85.5378" x2="7.8856" y2="79.5599">
					<stop  offset="0" style="stop-color:#FFFFFF"/>
					<stop  offset="0.1275" style="stop-color:#FAFAFA"/>
					<stop  offset="0.2878" style="stop-color:#EAEAEA"/>
					<stop  offset="0.4656" style="stop-color:#D1D1D0"/>
					<stop  offset="0.6561" style="stop-color:#ADADAD"/>
					<stop  offset="0.8544" style="stop-color:#80807F"/>
					<stop  offset="1" style="stop-color:#5A5A59"/>
				</linearGradient>
				<path style="clip-path:url(#SVGID_5_);fill:url(#SVGID_7_);" d="M71.5,42.5H-55.7v25.3h14.6c-0.3,1.1-0.5,2.3-0.8,3.4
					c-0.5,2.4-1.1,4.8-1.6,7.1c-0.6,2.4-1.1,4.8-1.7,7.3c-0.1,0.3-0.1,0.6-0.2,0.8c-0.1,0.4,0.1,0.6,0.5,0.6c0.1,0,0.1,0,0.2,0
					c3,0,6,0,9,0c0.5,0,1.1,0,1.6-0.1c1.2-0.2,2.2-0.6,3.2-1.3c1.3-1,2.1-2.4,2.4-4c0.2-1.2,0.4-2.3,0.6-3.5
					c0.4-2.4,0.8-4.8,1.2-7.2c0.1-0.7,0.2-1.5,0.1-2.2c0-0.4-0.1-0.7-0.2-1h1.7c-0.1,0.9-0.3,1.8-0.4,2.7c-0.2,1.1-0.4,2.3-0.5,3.4
					c-0.2,1.2-0.4,2.5-0.6,3.7c-0.2,1.4-0.4,2.7-0.6,4.1c-0.2,1.4-0.5,2.9-0.7,4.3c0,0.2-0.1,0.3-0.1,0.5c0,0.4,0.2,0.6,0.6,0.6
					c0.3,0,0.5,0,0.8,0c0.8,0,1.7,0,2.5,0c0.5,0,0.8-0.2,0.9-0.8c0-0.3,0.1-0.6,0.1-0.9c0.3-2.1,0.6-4.3,0.9-6.4
					c0.3-2.1,0.6-4.1,0.9-6.2c0.2-1.6,0.5-3.3,0.7-4.9h1.7c-0.5,0.7-0.8,1.5-0.9,2.3c-0.1,0.6-0.2,1.2-0.3,1.9
					c-0.1,0.7-0.2,1.4-0.3,2.2c-0.1,0.7-0.2,1.4-0.3,2.2c-0.1,0.8-0.2,1.6-0.3,2.4c-0.1,0.8-0.2,1.6-0.3,2.4c-0.1,0.7-0.1,1.5,0,2.2
					c0.2,1.6,1,2.7,2.5,3.3c0.9,0.4,1.8,0.5,2.7,0.5c1.4,0,2.8,0,4.3,0c0.7,0,1.3-0.1,2-0.2c2.3-0.6,3.9-2.2,4.3-4.7
					c0.1-0.8,0.2-1.6,0.2-2.4c0.1-0.8,0.1-1.5,0.2-2.3c0-0.7,0.1-1.4,0.1-2.1c0-0.4-0.2-0.7-0.6-0.7c-0.1,0-0.2,0-0.3,0
					c-2,0-4,0-6,0c-0.1,0-0.2,0-0.3,0c-0.4,0-0.6,0.3-0.6,0.6c-0.1,0.8-0.2,1.6-0.2,2.4c0,0.4,0.2,0.6,0.6,0.7c0.1,0,0.2,0,0.3,0
					c0.7,0,1.3,0,2,0c0.3,0,0.4,0.1,0.4,0.4c0,0.4-0.1,0.8-0.1,1.2c-0.1,0.5-0.1,1-0.2,1.5c-0.1,0.7-0.6,1.2-1.3,1.4
					c-0.3,0-0.5,0.1-0.8,0.1c-0.9,0-1.7,0-2.6,0c-0.3,0-0.7-0.1-1-0.2c-0.4-0.1-0.7-0.4-0.8-0.9c-0.1-0.3-0.1-0.6,0-0.9
					c0.1-1,0.2-1.9,0.3-2.9c0.2-2,0.4-3.9,0.7-5.9c0.1-0.7,0.1-1.3,0.2-2c0.1-0.8,0.5-1.3,1.3-1.4c0.1,0,0.3-0.1,0.4-0.1
					c1,0,2.1,0,3.1,0c0.2,0,0.5,0.1,0.7,0.2c0.3,0.1,0.5,0.4,0.6,0.7c0.1,0.2,0.1,0.5,0.1,0.7c0,0.3,0,0.7-0.1,1
					c0,0.6,0.1,0.8,0.7,0.8c1,0,1.9,0,2.9,0c0.1,0,0.2,0,0.2,0c0.4,0,0.6-0.3,0.6-0.6c0-0.2,0-0.4,0-0.5c0-0.6,0.1-1.2,0-1.7
					c-0.1-0.5-0.2-1-0.4-1.5h1.7c0,0.4-0.1,0.8-0.1,1.3c-0.1,1.5-0.2,3-0.3,4.5c-0.1,2.1-0.3,4.3-0.4,6.4c-0.1,1.5-0.2,3.1-0.3,4.6
					c0,0.6-0.1,1.2-0.1,1.8c0,0.4,0.2,0.7,0.6,0.7c0.1,0,0.1,0,0.2,0c0.6,0,1.2,0,1.8,0c0.5,0,0.9,0,1.4,0c0.4,0,0.7-0.2,0.7-0.6
					c0-0.1,0-0.1,0-0.2c0.1-2.2,0.2-4.4,0.3-6.7c0.1-1.8,0.2-3.6,0.2-5.4c0.1-2.2,0.2-4.3,0.3-6.5h0.8c0,0.2,0,0.3,0,0.5
					c0,0.3,0.2,0.5,0.5,0.6c0.1,0,0.2,0,0.3,0c1.3,0,2.6,0,3.8,0c0.3,0,0.4,0.1,0.4,0.4c0,2.8-0.1,5.5-0.1,8.3c0,1.4,0,2.7-0.1,4.1
					c0,1.6-0.1,3.1-0.1,4.7c0,0.5,0.2,0.7,0.7,0.8c0.1,0,0.1,0,0.2,0c0.6,0,1.3,0,1.9,0c0.4,0,0.8,0,1.2,0c0.4,0,0.7-0.2,0.7-0.6
					c0-0.1,0-0.2,0-0.3c0-5.6,0-11.2,0-16.8c0-0.1,0-0.1,0-0.2c0-0.2,0.1-0.3,0.3-0.3c0.1,0,0.1,0,0.2,0c1.3,0,2.5,0,3.8,0
					c0.1,0,0.2,0,0.3,0c0.3-0.1,0.5-0.3,0.5-0.5c0-0.2,0-0.3,0-0.5h1.1c-0.3,1.3-0.7,2.6-1,3.9c-1.3,4.9-2.5,9.8-3.8,14.7
					c0,0.1,0,0.3,0,0.4c0,0.1,0.1,0.2,0.2,0.3c0.1,0,0.2,0,0.3,0c1.2,0,2.4,0,3.6,0c0.4,0,0.6-0.2,0.7-0.6c0.3-1.3,0.6-2.7,0.9-4
					c0-0.1,0.1-0.1,0.2-0.1c2.3,0,4.6,0,6.8,0c0.1,0,0.2,0,0.2,0.2c0.2,0.8,0.5,1.5,0.7,2.3c0.2,0.6,0.4,1.2,0.6,1.7
					c0.1,0.4,0.3,0.6,0.8,0.6c0,0,0,0,0,0c1.2,0,2.4,0,3.6,0c0.1,0,0.1,0,0.2,0c0.2,0,0.3-0.2,0.3-0.4c0-0.1,0-0.2-0.1-0.3
					c-0.6-1.6-1.1-3.2-1.7-4.8c-1-2.8-2-5.6-3-8.4c-0.6-1.8-1.3-3.6-1.9-5.4h5.8c0.1,0.9,0.2,1.9,0.3,2.8c0.1,1.5,0.3,3,0.4,4.5
					c0.1,1.4,0.2,2.8,0.4,4.2c0.1,1.6,0.3,3.2,0.4,4.8c0.1,0.8,0.1,1.5,0.2,2.3c0.1,0.5,0.3,0.7,0.8,0.7c4.1,0,8.2,0,12.4,0
					c0.5,0,0.7-0.2,0.6-0.7c-0.1-0.8-0.2-1.6-0.4-2.4c-0.1-0.7-0.3-0.9-1.1-0.9c-2.5,0-5,0-7.5,0c-0.4,0-0.5-0.1-0.6-0.5
					c0-0.3-0.1-0.6-0.1-0.9c-0.2-1.5-0.3-3-0.5-4.4c-0.1-1.3-0.3-2.6-0.4-3.9c-0.1-1.3-0.3-2.6-0.4-3.9c-0.1-0.5-0.1-1-0.2-1.6h16.1
					c-1.4,3.5-2.9,7-4.3,10.5c-0.2,0.4-0.3,0.8-0.2,1.3c0.1,0.7,0.2,1.4,0.3,2.1c0.1,0.3,0.2,0.6,0.5,0.8c0.3,0.3,0.7,0.4,1.1,0.4
					c3,0,5.9,0,8.9,0c0.2,0,0.2,0,0.2,0.2c0.2,1.1,0.4,2.2,0.7,3.3c0.1,0.5,0.4,0.7,0.9,0.7c1,0,2,0,3,0c0.1,0,0.2,0,0.3-0.1
					c0.1,0,0.2-0.1,0.2-0.3c0-0.1,0-0.3,0-0.4c-0.2-0.9-0.4-1.8-0.6-2.7c-0.1-0.3-0.1-0.5-0.2-0.8c0.1,0,0.1,0,0.2,0
					c0.8,0,1.6,0,2.4,0c0.1,0,0.2,0,0.3,0c0.2,0,0.4-0.2,0.4-0.4c0-0.1,0-0.2,0-0.3c-0.2-0.8-0.4-1.7-0.6-2.5
					c-0.1-0.3-0.3-0.5-0.6-0.6c-0.1,0-0.2,0-0.3,0c-0.8,0-1.6,0-2.4,0c-0.1,0-0.1,0-0.2-0.1c-0.2-0.9-0.4-1.7-0.6-2.6
					c-0.6-2.8-1.2-5.6-1.8-8.4h12.6V42.5z M-31.2,71.1c-0.4,2.4-0.9,4.8-1.3,7.2c-0.2,0.9-0.3,1.8-0.5,2.7c-0.1,0.3-0.1,0.6-0.3,0.8
					c-0.3,0.7-0.9,1-1.6,1.1c-0.3,0-0.5,0-0.8,0.1c-0.6,0-1.2,0-1.8,0c-0.7,0-1.4,0-2.1,0c-0.1,0-0.1,0-0.2,0
					c-0.2,0-0.2-0.1-0.2-0.3c0-0.1,0-0.1,0-0.2c0.9-4.4,1.9-8.9,2.8-13.3c0,0,0-0.1,0-0.1c0.1-0.3,0.2-0.4,0.5-0.4
					c0.4,0,0.8,0,1.2,0c0.9,0,1.7,0,2.6,0c0.3,0,0.6,0,0.9,0.1C-31.3,69-31,69.3-31,70C-31,70.4-31.1,70.7-31.2,71.1z M19,78.7
					c0.1-0.3,0.1-0.5,0.2-0.8c0.5-2.3,1-4.6,1.6-6.9c0.1-0.6,0.3-1.1,0.4-1.7c0-0.1,0.1-0.1,0.1-0.1c0.1,0,0.1,0.1,0.1,0.1
					c0.9,2.7,1.7,5.5,2.6,8.2c0.1,0.4,0.2,0.7,0.3,1.1c0,0,0,0.1,0,0.1C22.6,78.7,20.8,78.7,19,78.7z M51.2,78.9
					c1.3-3.4,2.6-6.8,3.8-10.2c0,0,0,0,0,0c0.7,3.4,1.3,6.8,2,10.2C55.1,78.9,53.1,78.9,51.2,78.9z"/>
			</g>
		</g>
	</g>
</g>
<g>
	<path class="st4" d="M11.2,11c1.5,0.6,2.9,1.2,4.4,1.7c0.5,0.2,0.8,0.5,0.8,1c0.7,3.9,1.4,7.7,2.1,11.6c0.2,0.9,0.3,1.8,0.5,2.8
		c0,0.2,0.1,0.3,0.3,0.3c4.8,0,9.7,0,14.5,0c0.2,0,0.3,0,0.4-0.2c1.1-3.4,2.2-6.8,3.3-10.2c0,0,0-0.1,0-0.1c-0.2,0-0.4,0-0.6,0
		c-2.9-0.1-5.8-0.2-8.7-0.4c-2.6-0.1-5.3-0.2-7.9-0.3c-0.6,0-0.9-0.5-0.9-1c0-0.5,0.4-0.9,1-0.9c0.5,0,1,0,1.5,0.1
		c3.1,0.1,6.1,0.3,9.2,0.4c2.6,0.1,5.2,0.2,7.8,0.3c0.5,0,0.8,0.3,1,0.8c0,0.1,0,0.3,0,0.4c-0.4,1.1-0.7,2.2-1.1,3.3
		c-1,3-1.9,6-2.9,8.9c-0.2,0.7-0.5,0.9-1.2,0.9c-4.6,0-9.2,0-13.9,0c-0.3,0-0.4,0.1-0.5,0.3c-0.2,0.7-0.5,1.3-0.7,2.1
		c0.2,0,0.3,0,0.4,0c4.9,0,9.7,0,14.6,0c0.1,0,0.2,0,0.3,0c0.5,0,0.8,0.4,0.8,0.8c0,0.4-0.4,0.8-0.8,0.8c-0.3,0-0.5,0-0.8,0
		c0.6,0.8,0.9,1.6,0.6,2.6c-0.2,0.7-0.6,1.3-1.1,1.7c-1.1,0.8-2.6,0.7-3.6-0.3c-0.9-0.8-1.3-2.4-0.2-3.9c-2.1,0-4.1,0-6.2,0
		c0.7,0.9,0.9,1.9,0.5,2.9c-0.2,0.6-0.6,1-1.1,1.4c-1.2,0.7-2.6,0.6-3.6-0.4c-0.9-0.9-1.2-2.5-0.1-3.9c-0.2,0-0.4,0-0.6,0
		c-0.7,0-1.1-0.5-0.8-1.2c0.3-0.8,0.6-1.7,0.9-2.5c0-0.1,0.1-0.2,0.1-0.3c-0.2,0-0.3,0-0.4,0c-0.5,0-0.9-0.3-1-0.8
		c-0.4-2.2-0.8-4.5-1.2-6.7c-0.5-2.7-1-5.4-1.5-8.1c0-0.2-0.1-0.3-0.3-0.3c-1.2-0.5-2.5-1-3.7-1.4c-0.4-0.2-0.6-0.5-0.7-0.9
		c0-0.4,0.2-0.7,0.7-0.9c0,0,0.1,0,0.1-0.1C11,11,11.1,11,11.2,11z M32,34.9c-0.7,0-1.3,0.6-1.3,1.3c0,0.7,0.6,1.3,1.3,1.3
		c0.7,0,1.3-0.6,1.3-1.3C33.2,35.5,32.7,34.9,32,34.9z M22.7,36.2c0-0.7-0.6-1.3-1.3-1.3c-0.7,0-1.3,0.6-1.3,1.3
		c0,0.7,0.6,1.3,1.2,1.3C22.1,37.5,22.7,36.9,22.7,36.2z"/>
</g>
</svg>
