<?xml version="1.0" encoding="utf-8"?>
<!-- Generator: Adobe Illustrator 24.0.1, SVG Export Plug-In . SVG Version: 6.00 Build 0)  -->
<svg version="1.1" id="Capa_1" xmlns="http://www.w3.org/2000/svg" xmlns:xlink="http://www.w3.org/1999/xlink" x="0px" y="0px"
	 viewBox="0 0 50 50" style="enable-background:new 0 0 50 50;" xml:space="preserve">
<style type="text/css">
	.st0{clip-path:url(#SVGID_2_);}
	.st1{opacity:0.9;}
	.st2{fill:#FFFFFF;}
	.st3{fill:none;stroke:#E31A52;stroke-width:0.2165;stroke-miterlimit:10;}
	.st4{fill:#E31A52;}
	.st5{clip-path:url(#SVGID_2_);fill:none;stroke:#E31A52;stroke-width:0.3632;stroke-miterlimit:10;}
	.st6{fill:#131313;}
	.st7{fill:none;stroke:#E31A52;stroke-width:2.5368;stroke-miterlimit:10;}
	.st8{opacity:0.52;}
	.st9{clip-path:url(#SVGID_4_);fill:url(#SVGID_5_);}
	.st10{fill:none;stroke:#FFFFFF;stroke-width:0.3888;stroke-miterlimit:10;}
	.st11{fill:#1C1C1B;}
	.st12{fill:#CECECE;}
	.st13{fill:#545454;}
	.st14{fill:#E31A52;stroke:#E31A52;stroke-width:0.5;stroke-miterlimit:10;}
	.st15{fill:#848484;}
	.st16{opacity:0.2;}
	.st17{fill:none;stroke:#E31A52;stroke-width:0.478;stroke-miterlimit:10;}
	.st18{clip-path:url(#SVGID_7_);fill:url(#SVGID_8_);}
	.st19{clip-path:url(#SVGID_10_);fill:url(#SVGID_11_);}
	.st20{clip-path:url(#SVGID_13_);}
	.st21{clip-path:url(#SVGID_13_);fill:url(#SVGID_14_);}
	.st22{clip-path:url(#SVGID_13_);fill:url(#SVGID_15_);}
	.st23{opacity:0.4;}
	.st24{fill:none;stroke:#E31A52;stroke-width:0.75;stroke-miterlimit:10;}
	.st25{fill:#C1C1C1;}
	.st26{fill:#808080;}
	.st27{clip-path:url(#SVGID_17_);fill:url(#SVGID_18_);}
	.st28{clip-path:url(#SVGID_20_);}
	.st29{clip-path:url(#SVGID_20_);fill:url(#SVGID_21_);}
	.st30{clip-path:url(#SVGID_20_);fill:url(#SVGID_22_);}
	.st31{fill:none;stroke:#E31A52;stroke-width:0.7184;stroke-miterlimit:10;}
	.st32{clip-path:url(#SVGID_24_);fill:url(#SVGID_25_);}
	.st33{clip-path:url(#SVGID_27_);}
	.st34{clip-path:url(#SVGID_27_);fill:url(#SVGID_28_);}
	.st35{clip-path:url(#SVGID_27_);fill:url(#SVGID_29_);}
	.st36{opacity:0.33;fill:#131313;stroke:#E31A52;stroke-width:1.52;stroke-miterlimit:10;}
	.st37{fill:#FFFFFF;stroke:#E31A52;stroke-miterlimit:10;}
	.st38{fill:#5E5E5E;}
	.st39{clip-path:url(#SVGID_31_);fill:url(#SVGID_32_);}
	.st40{fill:none;stroke:#E31A52;stroke-width:0.5;stroke-miterlimit:10;}
	.st41{fill:#005EA9;}
	.st42{fill:#E1061D;}
	.st43{fill:#005EA8;}
	.st44{clip-path:url(#SVGID_36_);}
	.st45{clip-path:url(#SVGID_42_);}
	.st46{clip-path:url(#SVGID_46_);}
	.st47{clip-path:url(#SVGID_52_);}
	.st48{clip-path:url(#SVGID_58_);}
	.st49{clip-path:url(#SVGID_62_);}
	.st50{fill:#9B9B9B;}
	.st51{fill:none;stroke:#000000;stroke-width:0.478;stroke-miterlimit:10;}
	.st52{opacity:0.9;fill:#E31A52;}
	.st53{clip-path:url(#SVGID_66_);fill:url(#SVGID_67_);}
	.st54{fill:#E31A52;stroke:#E31A52;stroke-width:1.2934;stroke-miterlimit:10;}
	.st55{fill:none;stroke:#9B9B9B;stroke-width:0.5;stroke-miterlimit:10;}
	.st56{fill:none;stroke:#D80ECF;stroke-width:2;stroke-miterlimit:10;}
	.st57{fill:#D80ECF;}
	.st58{fill:none;stroke:#D80ECF;stroke-width:0.7382;stroke-miterlimit:10;}
	.st59{fill:none;stroke:#E31A52;stroke-width:1.1487;stroke-miterlimit:10;}
	.st60{clip-path:url(#SVGID_69_);fill:url(#SVGID_70_);}
	.st61{fill:none;stroke:#FFFFFF;stroke-width:0.1761;stroke-miterlimit:10;}
	.st62{fill:#E31A52;stroke:#E31A52;stroke-width:0.2264;stroke-miterlimit:10;}
	.st63{clip-path:url(#SVGID_72_);}
	.st64{clip-path:url(#SVGID_72_);fill:url(#SVGID_73_);}
	.st65{clip-path:url(#SVGID_72_);fill:url(#SVGID_74_);}
	.st66{fill:none;stroke:#E31A52;stroke-width:0.3396;stroke-miterlimit:10;}
	.st67{fill:none;stroke:#E31A52;stroke-width:1.6364;stroke-miterlimit:10;}
	.st68{clip-path:url(#SVGID_76_);fill:url(#SVGID_77_);}
	.st69{fill:none;stroke:#FFFFFF;stroke-width:0.2508;stroke-miterlimit:10;}
	.st70{clip-path:url(#SVGID_79_);fill:url(#SVGID_80_);}
	.st71{fill:#E31A52;stroke:#E31A52;stroke-width:0.4189;stroke-miterlimit:10;}
	.st72{fill:none;stroke:#E31A52;stroke-width:0.3411;stroke-miterlimit:10;}
	.st73{fill:none;stroke:#E31A52;stroke-width:0.3632;stroke-miterlimit:10;}
	.st74{clip-path:url(#SVGID_82_);}
	.st75{fill:#888888;}
	.st76{clip-path:url(#SVGID_84_);fill:url(#SVGID_85_);}
	.st77{clip-path:url(#SVGID_87_);}
	.st78{clip-path:url(#SVGID_87_);fill:none;stroke:#E31A52;stroke-width:0.3632;stroke-miterlimit:10;}
	.st79{clip-path:url(#SVGID_89_);}
	.st80{clip-path:url(#SVGID_89_);fill:url(#SVGID_90_);}
	.st81{clip-path:url(#SVGID_89_);fill:url(#SVGID_91_);}
	.st82{clip-path:url(#SVGID_93_);fill:url(#SVGID_94_);}
	.st83{clip-path:url(#SVGID_96_);}
	.st84{fill:#2B2B2B;}
	.st85{fill:none;stroke:#000000;stroke-width:0.25;stroke-miterlimit:10;}
	.st86{clip-path:url(#SVGID_98_);}
	.st87{clip-path:url(#SVGID_98_);fill:url(#SVGID_99_);}
	.st88{clip-path:url(#SVGID_98_);fill:url(#SVGID_100_);}
	.st89{clip-path:url(#SVGID_102_);fill:url(#SVGID_103_);}
	.st90{clip-path:url(#SVGID_105_);fill:url(#SVGID_106_);}
	.st91{clip-path:url(#SVGID_108_);fill:url(#SVGID_109_);}
	.st92{fill:none;stroke:#E31A52;stroke-width:0.2548;stroke-miterlimit:10;}
	.st93{clip-path:url(#SVGID_113_);}
	.st94{clip-path:url(#SVGID_119_);}
	.st95{clip-path:url(#SVGID_123_);}
	.st96{fill:none;stroke:#E31A52;stroke-width:0.2436;stroke-miterlimit:10;}
	.st97{fill:#E31A52;stroke:#E31A52;stroke-width:0.8479;stroke-miterlimit:10;}
	.st98{fill:none;stroke:#000000;stroke-width:0.5;stroke-miterlimit:10;}
	.st99{fill:none;stroke:#E31A52;stroke-width:0.4602;stroke-miterlimit:10;}
	.st100{clip-path:url(#SVGID_127_);}
	.st101{clip-path:url(#SVGID_129_);fill:url(#SVGID_130_);}
	.st102{clip-path:url(#SVGID_134_);}
	.st103{clip-path:url(#SVGID_140_);}
	.st104{clip-path:url(#SVGID_144_);}
</style>
<g>
	<defs>
		<rect id="SVGID_88_" x="-672" y="32.8" width="380" height="185.2"/>
	</defs>
	<clipPath id="SVGID_2_">
		<use xlink:href="#SVGID_88_"  style="overflow:visible;"/>
	</clipPath>
	
		<linearGradient id="SVGID_4_" gradientUnits="userSpaceOnUse" x1="11585.0176" y1="-7628.8022" x2="11648.5537" y2="-7628.8022" gradientTransform="matrix(-1 0 0 -1 11430 -7516)">
		<stop  offset="0" style="stop-color:#131313"/>
		<stop  offset="1" style="stop-color:#151515;stop-opacity:0"/>
	</linearGradient>
	<polygon style="clip-path:url(#SVGID_2_);fill:url(#SVGID_4_);" points="-224.5,45 54.8,45 54.8,180.6 -224.5,180.6 	"/>
</g>
<path class="st4" d="M18.4,37.7c4.2,0,8.4,0,12.5,0c0.5,0,1-0.1,1.5-0.2c2.7-0.6,4.5-3,4.5-5.8c0-1.8,0-3.6,0-5.3l0-2.1
	c0-0.1,0-0.2,0-0.2c0-0.2-0.1-0.4-0.3-0.5c-0.2-0.1-0.4-0.2-0.6-0.2c-0.6,0.1-0.7,0.5-0.7,0.9l0,7.4c0,2.6-1.9,4.4-4.4,4.4
	c-4.2,0-8.3,0-12.5,0c-2.6,0-4.4-1.9-4.4-4.4c0-4.2,0-8.3,0-12.5c0-0.4,0-0.7,0.1-0.9c0.4-2.1,2.1-3.5,4.2-3.5c1.3,0,2.6,0,3.9,0
	l2.5,0c0.4,0,0.8,0,1.3,0c0.4,0,0.7-0.3,0.7-0.6c0.1-0.3,0-0.5-0.1-0.7c-0.2-0.2-0.4-0.3-0.7-0.3c-1.1,0-2.2,0-3.3,0
	c-1.4,0-2.9,0-4.3,0c-0.4,0-0.7,0-1,0.1c-2.9,0.6-4.8,2.9-4.8,5.8c0,1.5,0,2.9,0,4.4l0,2l0,1.6c0,1.5,0,3.1,0,4.6
	c0,0.4,0,0.8,0.1,1.3C13.1,35.8,15.5,37.7,18.4,37.7z"/>
<path class="st4" d="M25.2,29.1c0.3-0.1,0.6-0.2,0.8-0.5c2.5-2.5,5-5,7.6-7.6l2.4-2.4c0.1-0.1,0.2-0.2,0.2-0.2
	c0.6-0.6,0.8-1.3,0.8-2.1l0-0.4c-0.3-1.4-1-2.2-2.2-2.6c-0.4-0.1-0.7-0.2-1-0.2c-0.8,0-1.5,0.3-2.2,1c-3.4,3.4-6.8,6.8-10.2,10.2
	c-0.1,0.1-0.3,0.3-0.3,0.5c-0.3,1.2-0.6,2.4-0.9,3.6L20.1,29c-0.1,0.4,0,0.7,0.2,0.9c0.2,0.2,0.5,0.3,0.9,0.2l1.7-0.4
	C23.6,29.4,24.4,29.3,25.2,29.1z M30.9,17.2C31,17.1,31,17,31.1,17l0.1-0.1c0.5-0.5,1-1,1.5-1.5c0.6-0.6,1.5-0.7,2.1-0.1
	c0.6,0.6,0.6,1.5-0.1,2.1c-0.4,0.4-0.9,0.9-1.3,1.3l-0.8,0.8l-2-2L30.9,17.2z M22.3,27c0.1-0.5,0.2-0.9,0.4-1.4
	c0-0.1,0.1-0.3,0.2-0.4l6.3-6.3l0.4,0.1l1.8,1.8l-0.3,0.3c-0.1,0.1-0.1,0.1-0.2,0.2l-1,1c-1.6,1.6-3.3,3.3-4.9,4.9
	c-0.2,0.2-0.4,0.3-0.6,0.4c-0.4,0.1-0.8,0.2-1.2,0.3L22,28.1L22.3,27z"/>
</svg>
