<?xml version="1.0" encoding="utf-8"?>
<!-- Generator: Adobe Illustrator 24.0.1, SVG Export Plug-In . SVG Version: 6.00 Build 0)  -->
<svg version="1.1" id="Capa_1" xmlns="http://www.w3.org/2000/svg" xmlns:xlink="http://www.w3.org/1999/xlink" x="0px" y="0px"
	 viewBox="0 0 663.9 646.4" style="enable-background:new 0 0 663.9 646.4;" xml:space="preserve">
<style type="text/css">
	.st0{fill-rule:evenodd;clip-rule:evenodd;fill:#0072B7;}
	.st1{fill-rule:evenodd;clip-rule:evenodd;}
	.st2{fill-rule:evenodd;clip-rule:evenodd;fill:#169F6F;}
</style>
<g>
	<path class="st0" d="M112.5,348.2V360c0,20.6,8.2,39,16.5,51.5c9.4,14.1,22,22.5,36.4,31.6c11.4,7.2,34.3,15.1,49.8,18.2
		c19.1,3.8,38.4,6.6,61.4,6.6h11.3c70.7,0,142.5-20.5,188.7-45v-33.3c-12.5,6.6-27.9,15.4-42.4,19.8c-3.1,0.9-7.9,3-11.1,4.2
		c-4,1.5-7.8,2.4-11.8,4c-5.9,2.3-17.7,5.5-24.2,6.9c-8.4,1.8-16.4,4.1-25.2,5.9c-9.1,1.8-17.2,2.8-26.6,4.5
		c-8.7,1.5-19.1,2.1-28.4,2.7c-9.7,0.7-19.8,1.1-30.4,1.1h-2.2c-37.5,0-73.2-5.9-98.3-18.4c-24.1-12-46.6-34.4-46.6-70.1v-3.3
		c0-16.8,5.2-29.7,10-41.9c2.1-5.3,6.2-12.2,9.2-16.8c1.9-2.9,3.5-5,5.5-7.7c1.8-2.4,4.6-5.1,6-7.2v-11.7
		c-5.8,3.9-12,11.6-16.9,16.7c-5.6,5.8-9.8,12.4-14.4,19.2C122.3,307.8,112.5,331.5,112.5,348.2L112.5,348.2z"/>
	<path class="st0" d="M551.4,285v-10.6c-0.1-0.2-1.7-11.9-2-13.4c-0.7-3.8-2.1-8.7-3.4-12c-3.3-8.1-6-13.6-11-20.1
		c-9.1-12-20-20.7-33.6-28.2c-25-13.8-63-22.2-101.8-22.2h-3.3c-40,0-73.2,6.7-104.5,15.5c-8.3,2.3-15,4.8-22.7,7.3
		c-6.4,2.1-15.7,5.6-21.5,8.5c-6.8,3.4-13.7,6.3-20.4,9.6c-3.5,1.8-17.2,10.1-19.4,10.6v8.8c3-0.7,14.1-6.8,18.4-8.7
		c5.9-2.5,13.4-6.3,19.3-8.1c2.7-0.8,7.2-2.5,9.9-3.7c3.3-1.4,6.7-2.2,10.1-3.4c6.6-2.2,14-4.7,21-6.5c15-3.8,28.3-6.8,44.8-9.7
		c14-2.5,33.7-5,49.5-5h16.5c32,0,66.7,7.4,87.3,18.8c12.5,6.9,20.9,12.8,29.5,23.6c6.5,8.2,14.6,24.4,14.6,38.8v6.2
		c0,15.2-7.9,31.5-14.5,40.4c-4,5.4-8,10.2-12.9,14.6c-2.4,2.1-13.5,11-16.2,11.6V372c5.2-0.4,20.7-10.4,24.7-13.4
		c7.3-5.5,13.9-11.7,19.5-18.9c6.4-8.1,9.8-14,14.5-24c2.1-4.5,3.3-9.1,4.8-14.2C549.3,299.6,551.4,285,551.4,285L551.4,285z"/>
	<path class="st0" d="M354.3,325.6v4.4c0,25.1,15.4,43.5,40.6,43.5h4.8c7.6,0,13.1-1.8,18.5-4.2c5.9-2.5,9-6.8,13.4-9.8l-14.4-13.4
		c-2.8,4.2-10.7,8.4-17.9,8.4h-4c-9.5,0-18.3-8.1-18.3-17.2v-2.6H434v-9.9c0-11.6-4.2-22.8-9.2-29.5c-4.8-6.3-14.6-13.6-25.5-13.6
		h-6.9c-11.5,0-21.9,7.2-27.5,13.4C359.1,301.5,354.3,313.5,354.3,325.6L354.3,325.6z M377,316.8v2.6h34.4v-1.8
		c0-9.1-6.5-17.2-16.1-17.2h-1.8C385,300.3,377,308.6,377,316.8L377,316.8z"/>
	<path class="st0" d="M219.3,372h22.3v-70.6h20.1c4.4,0,8,3.4,8,7.7V372h22.7v-62.5c0-14.8-10.1-26.3-24.9-26.3h-48.3V372L219.3,372
		z"/>
	<path class="st0" d="M308.9,345.7c0,15,9.8,26.3,24.5,26.3h15.4v-19h-11.3c-3.4,0-5.9-3.9-5.9-7.3v-44.3h17.2v-18.3h-17.2v-24.5
		h-22.7V345.7L308.9,345.7z"/>
	<path class="st0" d="M447.2,350.4c0,6.1,3.7,11.6,6.9,14.7c1.7,1.7,4.4,3.1,6.9,4.1c3.5,1.4,5.3,1.2,8.9,2V246.2h-22.7V350.4
		L447.2,350.4z"/>
	<path class="st0" d="M176.1,304l0.1,44.3c0,15,8.8,24.6,23,24.9v-90l-22.6,0L176.1,304L176.1,304z"/>
	<polygon class="st0" points="176.5,270.7 199.2,270.7 199.2,249.1 176.5,249.1 176.5,270.7 	"/>
	<path class="st0" d="M494.3,246.1c1.5,0,3,0.4,4.5,1.2c1.4,0.8,2.6,1.9,3.4,3.4c0.8,1.5,1.2,3,1.2,4.6c0,1.6-0.4,3.1-1.2,4.5
		c-0.8,1.4-1.9,2.6-3.4,3.4c-1.4,0.8-2.9,1.2-4.5,1.2c-1.6,0-3.1-0.4-4.5-1.2c-1.4-0.8-2.6-1.9-3.4-3.4c-0.8-1.4-1.2-2.9-1.2-4.5
		c0-1.6,0.4-3.1,1.2-4.6c0.8-1.5,1.9-2.6,3.4-3.4C491.3,246.5,492.8,246.1,494.3,246.1L494.3,246.1z M494.3,247.6
		c-1.3,0-2.5,0.3-3.7,1c-1.2,0.7-2.2,1.6-2.8,2.8c-0.7,1.2-1,2.5-1,3.8c0,1.3,0.3,2.6,1,3.8c0.7,1.2,1.6,2.1,2.8,2.8
		c1.2,0.7,2.5,1,3.8,1c1.3,0,2.6-0.3,3.8-1c1.2-0.7,2.1-1.6,2.8-2.8c0.7-1.2,1-2.5,1-3.8c0-1.3-0.3-2.6-1-3.8
		c-0.7-1.2-1.6-2.1-2.8-2.8C496.8,247.9,495.6,247.6,494.3,247.6L494.3,247.6z M490.3,260.2v-9.8h3.4c1.1,0,2,0.1,2.5,0.3
		c0.5,0.2,0.9,0.5,1.2,0.9c0.3,0.5,0.5,0.9,0.5,1.4c0,0.7-0.3,1.3-0.8,1.9c-0.5,0.5-1.2,0.8-2,0.9c0.3,0.1,0.6,0.3,0.8,0.5
		c0.4,0.4,0.9,1,1.4,1.9l1.2,1.9h-1.9l-0.9-1.5c-0.7-1.2-1.2-2-1.6-2.3c-0.3-0.2-0.7-0.3-1.3-0.3h-0.9v4.1H490.3L490.3,260.2z
		 M491.9,254.7h1.9c0.9,0,1.5-0.1,1.9-0.4c0.3-0.3,0.5-0.6,0.5-1.1c0-0.3-0.1-0.5-0.2-0.8c-0.2-0.2-0.4-0.4-0.7-0.5
		c-0.3-0.1-0.8-0.2-1.6-0.2h-1.8V254.7L491.9,254.7z"/>
</g>
</svg>
