<?xml version="1.0" encoding="utf-8"?>
<!-- Generator: Adobe Illustrator 24.0.1, SVG Export Plug-In . SVG Version: 6.00 Build 0)  -->
<svg version="1.1" id="Capa_1" xmlns="http://www.w3.org/2000/svg" xmlns:xlink="http://www.w3.org/1999/xlink" x="0px" y="0px"
	 viewBox="0 0 124 50" style="enable-background:new 0 0 124 50;" xml:space="preserve">
<style type="text/css">
	.st0{clip-path:url(#SVGID_2_);}
	.st1{opacity:0.9;}
	.st2{fill:#FFFFFF;}
	.st3{fill:none;stroke:#E31A52;stroke-width:0.2165;stroke-miterlimit:10;}
	.st4{fill:#E31A52;}
	.st5{clip-path:url(#SVGID_2_);fill:none;stroke:#E31A52;stroke-width:0.3632;stroke-miterlimit:10;}
	.st6{fill:#131313;}
	.st7{fill:none;stroke:#E31A52;stroke-width:2.5368;stroke-miterlimit:10;}
	.st8{opacity:0.52;}
	.st9{clip-path:url(#SVGID_4_);fill:url(#SVGID_5_);}
	.st10{fill:none;stroke:#FFFFFF;stroke-width:0.3888;stroke-miterlimit:10;}
	.st11{fill:#1C1C1B;}
	.st12{fill:#CECECE;}
	.st13{fill:#545454;}
	.st14{fill:#E31A52;stroke:#E31A52;stroke-width:0.5;stroke-miterlimit:10;}
	.st15{fill:#848484;}
	.st16{opacity:0.2;}
	.st17{fill:none;stroke:#E31A52;stroke-width:0.478;stroke-miterlimit:10;}
	.st18{clip-path:url(#SVGID_7_);fill:url(#SVGID_8_);}
	.st19{clip-path:url(#SVGID_10_);fill:url(#SVGID_11_);}
	.st20{clip-path:url(#SVGID_13_);}
	.st21{clip-path:url(#SVGID_13_);fill:url(#SVGID_14_);}
	.st22{clip-path:url(#SVGID_13_);fill:url(#SVGID_15_);}
	.st23{opacity:0.4;}
	.st24{fill:none;stroke:#E31A52;stroke-width:0.75;stroke-miterlimit:10;}
	.st25{fill:#C1C1C1;}
	.st26{fill:#808080;}
	.st27{clip-path:url(#SVGID_17_);fill:url(#SVGID_18_);}
	.st28{clip-path:url(#SVGID_20_);}
	.st29{clip-path:url(#SVGID_20_);fill:url(#SVGID_21_);}
	.st30{clip-path:url(#SVGID_20_);fill:url(#SVGID_22_);}
	.st31{opacity:0.33;fill:#131313;stroke:#E31A52;stroke-width:1.52;stroke-miterlimit:10;}
	.st32{fill:#FFFFFF;stroke:#E31A52;stroke-miterlimit:10;}
	.st33{fill:none;stroke:#E31A52;stroke-width:0.7184;stroke-miterlimit:10;}
	.st34{fill:#5E5E5E;}
	.st35{clip-path:url(#SVGID_24_);fill:url(#SVGID_25_);}
	.st36{fill:none;stroke:#E31A52;stroke-width:0.5;stroke-miterlimit:10;}
	.st37{fill:#005EA9;}
	.st38{fill:#E1061D;}
	.st39{fill:#005EA8;}
	.st40{clip-path:url(#SVGID_29_);}
	.st41{clip-path:url(#SVGID_35_);}
	.st42{clip-path:url(#SVGID_39_);}
	.st43{fill:#9B9B9B;}
	.st44{fill:none;stroke:#000000;stroke-width:0.478;stroke-miterlimit:10;}
	.st45{opacity:0.9;fill:#E31A52;}
	.st46{clip-path:url(#SVGID_43_);fill:url(#SVGID_44_);}
	.st47{fill:#E31A52;stroke:#E31A52;stroke-width:1.2934;stroke-miterlimit:10;}
	.st48{fill:none;stroke:#9B9B9B;stroke-width:0.5;stroke-miterlimit:10;}
	.st49{fill:none;stroke:#D80ECF;stroke-width:2;stroke-miterlimit:10;}
	.st50{fill:#D80ECF;}
	.st51{fill:none;stroke:#D80ECF;stroke-width:0.7382;stroke-miterlimit:10;}
	.st52{fill:none;stroke:#E31A52;stroke-width:1.1487;stroke-miterlimit:10;}
	.st53{clip-path:url(#SVGID_46_);fill:url(#SVGID_47_);}
	.st54{fill:none;stroke:#FFFFFF;stroke-width:0.1761;stroke-miterlimit:10;}
	.st55{fill:#E31A52;stroke:#E31A52;stroke-width:0.2264;stroke-miterlimit:10;}
	.st56{clip-path:url(#SVGID_49_);}
	.st57{clip-path:url(#SVGID_49_);fill:url(#SVGID_50_);}
	.st58{clip-path:url(#SVGID_49_);fill:url(#SVGID_51_);}
	.st59{fill:none;stroke:#E31A52;stroke-width:0.3396;stroke-miterlimit:10;}
	.st60{fill:none;stroke:#E31A52;stroke-width:1.6364;stroke-miterlimit:10;}
	.st61{clip-path:url(#SVGID_53_);fill:url(#SVGID_54_);}
	.st62{fill:none;stroke:#FFFFFF;stroke-width:0.2508;stroke-miterlimit:10;}
	.st63{clip-path:url(#SVGID_56_);fill:url(#SVGID_57_);}
	.st64{font-family:'Rajdhani-Medium';}
	.st65{font-size:13.2378px;}
	.st66{font-family:'Rajdhani-SemiBold';}
	.st67{font-size:9.6055px;}
	.st68{fill:#E31A52;stroke:#E31A52;stroke-width:0.4189;stroke-miterlimit:10;}
	.st69{fill:none;stroke:#E31A52;stroke-width:0.3632;stroke-miterlimit:10;}
	.st70{clip-path:url(#SVGID_59_);}
	.st71{fill:#888888;}
</style>
<g>
	<defs>
		<rect id="SVGID_48_" x="-433" y="-70.2" width="380" height="151.5"/>
	</defs>
	<clipPath id="SVGID_2_">
		<use xlink:href="#SVGID_48_"  style="overflow:visible;"/>
	</clipPath>
	<g id="OJZ6yf_2_" class="st0">
		
			<image style="overflow:visible;" width="1366" height="768" id="OJZ6yf_3_" xlink:href="C7A5F0D03BB9407F.jpg"  transform="matrix(0.2464 0 0 0.2464 -281.6476 -82.4969)">
		</image>
	</g>
	
		<linearGradient id="SVGID_4_" gradientUnits="userSpaceOnUse" x1="11824.0176" y1="-7731.8022" x2="11887.5537" y2="-7731.8022" gradientTransform="matrix(-1 0 0 -1 11908 -7722)">
		<stop  offset="0" style="stop-color:#131313"/>
		<stop  offset="1" style="stop-color:#151515;stop-opacity:0"/>
	</linearGradient>
	<polygon style="clip-path:url(#SVGID_2_);fill:url(#SVGID_4_);" points="14.5,-58 293.8,-58 293.8,77.6 14.5,77.6 	"/>
</g>
<g>
	<path class="st60" d="M38.7,37.6c0.7,0,48,0,48.7,0c1.7,0,3.5,0,5.2,0c0.8,0,1.6-0.3,2.1-0.9c0.5-0.6,0.7-1.3,0.6-2.1
		c0-0.2-0.1-0.4-0.1-0.6c0,0,0,0,0,0c0,0,0,0,0,0c0.9,0,1.7,0,2.6,0c1.1,0,2.3,0,3.4,0c0.1,0.4,0.2,0.9,0.3,1.3
		c0.3,1.4,1.4,2.3,2.9,2.4c0.4,0,0.8,0,1.1,0c0.5,0,1,0,1.4,0c0.3,0,0.6,0,0.9-0.1c0.5-0.1,0.9-0.4,1.2-0.8l6.4-4.1
		c1.2-0.3,2-1.4,2-2.6c0-0.2,0-0.6-0.1-1c0-0.2-0.1-0.3-0.1-0.5c0.1,0,0.1,0,0.2,0c1.4-0.2,2.4-1.4,2.5-2.8c0-0.2,0-0.6-0.1-1
		c-0.2-0.9-0.4-1.7-0.6-2.5c-0.3-1.3-1.3-2.2-2.6-2.5c-0.2,0-0.4-0.1-0.5-0.1l-2.5-10.4c-0.5-2-2.2-3.3-4.2-3.3H13
		c-0.5,0-0.9,0.1-1.3,0.2c-0.2,0-0.4,0.1-0.5,0.1c-1.2,0.3-2,1.3-2.3,2.5C8.5,9.9,8.2,11.2,8,12.5l-2.2,9.7c-0.5,2-0.9,4-1.4,6
		c0,0.1,0,0.1,0,0.2c-0.1,0.2-0.1,0.5-0.2,0.8C4,30,4.2,30.9,4.7,31.6c0.4,0.5,1,0.9,1.7,1.1l6.4,4c0.5,0.6,1.1,0.9,1.9,1
		c0.1,0,0.2,0,0.3,0l0,0l2,0c0.7,0,1.3,0,2,0c1.3,0,2.5,0,3.8,0c0.6,0,1.1,0,1.7-0.1c1.1-0.2,2.2-0.5,3.1-1.1
		c0.1,0.1,0.2,0.3,0.3,0.4c0.5,0.5,1.1,0.8,1.9,0.9c0.1,0,0.3,0,0.4,0c0.1,0,0.1,0,0.2,0c0.1,0,0.1,0,0.2,0l0.5,0c0.6,0,1.1,0,1.7,0
		c1.1,0,1.9-0.5,2.5-1.3c0.4,0.3,0.8,0.5,1.2,0.7C37.1,37.3,37.8,37.5,38.7,37.6"/>
	<g>
		<g>
			<path d="M4.7,27.1L8.8,9C9.2,7,11,5.6,13,5.6h96.4c2,0,3.8,1.4,4.2,3.3l3.6,15.2l-30.8,7.7L4.7,27.1z"/>
			<g>
				<path d="M119.8,24.5c-0.2-0.9-0.4-1.7-0.6-2.5c-0.3-1.3-1.3-2.2-2.6-2.5c-0.3-0.1-0.6-0.1-0.8-0.1c-0.2,0-0.3,0-0.5,0
					c0-0.1,0-0.1,0-0.2L113.1,9c-0.3-1.4-1.3-2.5-2.8-3c-0.1,0-0.3-0.1-0.3-0.1l-0.1,0c-0.2-0.1-0.4-0.1-0.6-0.1H105
					c-0.2,0-0.4,0-0.7,0.1c-1,0.2-1.8,0.8-2.3,1.6c-0.1,0.3-0.3,0.5-0.4,0.9c-0.8,1.9-1.6,3.9-2.4,5.8c-0.8,2-1.7,4.1-2.5,6.1
					c-0.3,0.8-0.5,1.7-0.4,2.5c0,0.2,0.1,0.5,0.1,0.7l-5.3,0l-1.3-12.4c-0.1-0.8-0.2-1.6-0.3-2.4c-0.1-1.3-1-2.3-2.2-2.7
					c-0.3-0.1-0.6-0.1-0.8-0.1h-3.3c-0.3,0-0.6,0-0.8,0.1c0,0,0,0,0,0c-1.4,0.4-2.3,1.7-2.2,3.2c0,0.1,0,0.2,0,0.3l0.1,1.5
					c0.1,0.7,0.1,1.5,0.2,2.2c-0.6-1.6-1.2-3.3-1.7-4.9C78.4,7,77.5,6.2,76.4,6l-0.1,0c-0.2-0.1-0.5-0.1-0.7-0.1h-5
					c-0.3,0-0.5,0-0.8,0.1c-0.3,0.1-0.5,0.2-0.8,0.3c-0.2-0.1-0.3-0.2-0.5-0.2l-0.1,0c-0.3-0.1-0.6-0.2-0.9-0.2H54.3
					c-0.3,0-0.6,0.1-0.9,0.2c0,0,0,0-0.1,0c0,0-0.1,0-0.1,0c0,0,0,0,0,0c-0.3-0.1-0.5-0.1-0.8-0.1h-3.3c-0.3,0-0.7,0.1-1,0.2
					c-0.6,0.2-1.1,0.6-1.4,1c-0.8-0.5-1.8-0.9-2.9-1.1c-0.3,0-0.5-0.1-0.8-0.1c-0.1,0-0.2,0-0.3,0c-0.1,0-0.2,0-0.3,0h-4.7
					c-0.1,0-0.3,0-0.4,0c0,0,0,0,0,0C36.7,5.9,36,6,35.3,6.2C34.6,6.4,34,6.7,33.5,7c-0.3-0.4-0.8-0.7-1.3-1c-0.3-0.1-0.7-0.2-1-0.2
					h-3.3c-0.3,0-0.6,0-0.8,0.1c-0.7,0.2-1.2,0.6-1.6,1.1c-0.8-0.6-1.8-0.9-2.9-1.1c-0.3,0-0.5-0.1-0.7-0.1c-0.1,0-0.2,0-0.3,0
					c-0.1,0-0.2,0-0.3,0H12c-0.3,0-0.6,0-0.8,0.1c-1.2,0.3-2,1.3-2.3,2.5C8.5,9.8,8.2,11.1,8,12.3L5.7,22c-0.5,2-0.9,4-1.4,6
					c0,0.1,0,0.1,0,0.2c-0.1,0.2-0.1,0.5-0.2,0.8c-0.2,0.9,0.1,1.8,0.6,2.4c0.5,0.7,1.3,1.1,2.3,1.1c0.1,0,0.2,0,0.3,0l0,0l2.3,0
					c0.8,0,1.5,0,2.3,0c1.5,0,3,0,4.4,0c0.7,0,1.3,0,1.9-0.1c1.3-0.2,2.5-0.6,3.6-1.3c0.1,0.2,0.2,0.3,0.3,0.4c0.6,0.6,1.3,1,2.2,1
					c0.1,0,0.3,0,0.4,0c0.1,0,0.2,0,0.2,0c0.1,0,0.1,0,0.2,0l0.5,0c0.7,0,1.3,0,2,0c1.2,0,2.3-0.6,2.9-1.5c0.4,0.3,0.9,0.6,1.4,0.8
					c1.1,0.5,2.3,0.7,3.7,0.7c0.6,0,1.3,0,1.9,0c0.8,0,1.5,0,2.3,0l0,0c0.9,0,1.8-0.1,2.6-0.3c1-0.2,1.8-0.6,2.6-1.1
					c0.1,0.2,0.2,0.3,0.3,0.4c0.6,0.6,1.4,1,2.2,1c0.1,0,0.2,0,0.2,0l0,0l2.2,0c0.1,0,0.3,0,0.4,0c0.2,0,0.4,0,0.6,0
					c1.6,0,2.9-1.1,3.2-2.6c0-0.2,0.1-0.4,0.1-0.5l0-0.6c0.1-2,0.2-4.1,0.3-6.1c0-0.9,0.1-1.7,0.1-2.6c0-0.9,0.1-1.8,0.1-2.8
					c0-1,0.1-2,0.1-3c0.3,0,0.6,0,0.9,0c0,2-0.1,4.1-0.1,6.1c0,0.8,0,1.5,0,2.3l0,2.5c0,1.4,0,2.7-0.1,4.1c0,1.9,1.3,3.2,3.2,3.3
					c0.1,0,0.1,0,0.2,0h2c0.1,0,0.2,0,0.3,0c0.1,0,0.2,0,0.3,0c0.2,0,0.4,0,0.6,0c0.4,0,0.9-0.1,1.2-0.2c0.1,0,0.1,0.1,0.2,0.1
					c0.3,0.1,0.7,0.2,1.1,0.2c0.7,0,1.4,0,2.1,0c0.5,0,1,0,1.5,0c1.6,0,2.8-0.9,3.2-2.5l0.3-1.3c0.1-0.3,0.1-0.6,0.2-0.9
					c1.2,0,2.3,0,3.3,0c0.1,0.2,0.2,0.5,0.2,0.7c0.1,0.4,0.3,0.8,0.4,1.2l0.2,0.5c0.5,1.5,1.6,2.3,3.1,2.3c0,0,0,0,0,0h0.7
					c1,0,1.9,0,2.9,0c0.2,0,0.4,0,0.6-0.1c0.1,0,0.3-0.1,0.4-0.1c0.3,0.1,0.7,0.2,1.1,0.2c2.1,0,4.2,0,6.3,0c2,0,4.1,0,6.1,0
					c1,0,1.8-0.4,2.4-1c0.6-0.7,0.8-1.6,0.7-2.5c0-0.2-0.1-0.5-0.1-0.7c0,0,0,0,0,0c0,0,0,0,0,0c1,0,2,0,3,0c1.3,0,2.7,0,4,0
					c0.1,0.5,0.2,1,0.3,1.5c0.3,1.6,1.7,2.7,3.3,2.7c0.5,0,0.9,0,1.3,0c0.6,0,1.1,0,1.7,0c0.3,0,0.7-0.1,1-0.2c1.2-0.3,2-1.4,2-2.6
					c0-0.2,0-0.6-0.1-1c0-0.2-0.1-0.3-0.1-0.5c0.1,0,0.1,0,0.2,0c1.4-0.2,2.4-1.4,2.5-2.8C119.9,25.2,119.9,24.9,119.8,24.5z"/>
				<path d="M111.6,30.5c-0.2-0.8-0.3-1.5-0.5-2.2c-0.3-1.1-1.1-1.9-2.2-2.1c-0.3-0.1-0.5-0.1-0.7-0.1c-0.1,0-0.3,0-0.4,0
					c0-0.1,0-0.1,0-0.2l-1.9-8.8c-0.3-1.2-1.1-2.2-2.4-2.5c-0.1,0-0.2-0.1-0.3-0.1l0,0c-0.2,0-0.3-0.1-0.5-0.1h-3.8
					c-0.2,0-0.4,0-0.6,0.1c-0.8,0.2-1.5,0.7-2,1.4c-0.1,0.2-0.3,0.5-0.4,0.8c-0.7,1.7-1.4,3.3-2,5c-0.7,1.7-1.4,3.5-2.1,5.2
					c-0.3,0.7-0.4,1.4-0.3,2.1c0,0.2,0,0.4,0.1,0.6l-4.5,0L85.8,19c-0.1-0.7-0.1-1.4-0.2-2.1c-0.1-1.1-0.9-2-1.9-2.3
					c-0.2-0.1-0.5-0.1-0.7-0.1h-2.8c-0.2,0-0.5,0-0.7,0.1c0,0,0,0,0,0c-1.2,0.4-1.9,1.4-1.8,2.7c0,0.1,0,0.2,0,0.3l0.1,1.3
					c0.1,0.6,0.1,1.3,0.2,1.9c-0.5-1.4-1-2.8-1.5-4.2c-0.3-1-1.1-1.7-2.1-1.9l-0.1,0c-0.2-0.1-0.4-0.1-0.6-0.1h-4.3
					c-0.2,0-0.4,0-0.7,0.1c-0.2,0.1-0.4,0.1-0.7,0.2c-0.1-0.1-0.3-0.1-0.4-0.2l0,0c-0.2-0.1-0.5-0.1-0.8-0.1l-11.4-0.8
					c-0.3,0-0.5,0.8-0.7,0.9c0,0,0,0,0,0c0,0-0.1,0-0.1,0c0,0,0,0,0,0c-0.2-0.1-0.5-0.1-0.7-0.1H51c-0.3,0-0.6,0.1-0.9,0.2
					c-0.5,0.2-0.9,0.5-1.2,0.9c-0.7-0.5-1.6-0.8-2.5-0.9c-0.2,0-0.5-0.1-0.7-0.1c-0.1,0-0.2,0-0.2,0c-0.1,0-0.2,0-0.3,0h-4
					c-0.1,0-0.2,0-0.3,0c0,0,0,0,0,0c-0.6,0-1.2,0.1-1.8,0.3c-0.6,0.2-1.1,0.4-1.6,0.7c-0.3-0.4-0.7-0.6-1.1-0.8
					c-0.3-0.1-0.6-0.2-0.9-0.2h-2.8c-0.2,0-0.5,0-0.7,0.1c-0.6,0.2-1.1,0.5-1.4,1c-0.7-0.5-1.5-0.8-2.5-1c-0.2,0-0.4-0.1-0.6-0.1
					c-0.1,0-0.1,0-0.2,0c-0.1,0-0.2,0-0.3,0H19c-0.2,0-0.5,0-0.7,0.1c-1,0.3-1.7,1.1-2,2.2c-0.2,1.1-0.5,2.2-0.7,3.3l-1.9,8.3
					c-0.4,1.7-0.8,3.4-1.2,5.1c0,0.1,0,0.1,0,0.2c0,0.2-0.1,0.4-0.1,0.7c-0.1,0.8,0,1.5,0.5,2.1c0.5,0.6,1.1,0.9,1.9,1
					c0.1,0,0.2,0,0.3,0l0,0l2,0c0.7,0,1.3,0,2,0c1.3,0,2.5,0,3.8,0c0.6,0,1.1,0,1.7-0.1c1.1-0.2,2.2-0.5,3.1-1.1
					c0.1,0.1,0.2,0.3,0.3,0.4c0.5,0.5,1.1,0.8,1.9,0.9c0.1,0,0.3,0,0.4,0c0.1,0,0.1,0,0.2,0c0.1,0,0.1,0,0.2,0l0.5,0
					c0.6,0,1.1,0,1.7,0c1.1,0,1.9-0.5,2.5-1.3c0.4,0.3,0.8,0.5,1.2,0.7c0.9,0.4,2,0.6,3.2,0.6c0.6,0,1.1,0,1.7,0c0.7,0,1.3,0,2,0
					l0,0c0.8,0,1.5-0.1,2.2-0.3c0.8-0.2,1.6-0.5,2.2-1c0.1,0.1,0.2,0.3,0.3,0.4c0.5,0.5,1.2,0.8,1.9,0.9c0.1,0,0.1,0,0.2,0l0,0
					l1.9,0c0.1,0,0.2,0,0.3,0c0.2,0,0.4,0,0.5,0c1.4,0,2.5-0.9,2.7-2.3c0-0.2,0-0.4,0.1-0.5l0-0.5c0.1-1.8,0.2-3.5,0.2-5.3
					c0-0.7,0.1-1.5,0.1-2.2c0-0.8,0.1-1.6,0.1-2.4c0-0.9,0.1-1.7,0.1-2.6c0.3,0,0.5,0,0.8,0c0,1.8-0.1,3.5-0.1,5.3
					c0,0.6,0,1.3,0,1.9l0,2.2c0,1.2,0,2.3-0.1,3.5c0,1.6,1.1,2.8,2.7,2.8c0.1,0,0.1,0,0.2,0h1.7c0.1,0,0.2,0,0.3,0
					c0.1,0,0.2,0,0.3,0c0.2,0,0.3,0,0.5,0c0.4,0,0.7-0.1,1.1-0.2c0.1,0,0.1,0,0.2,0.1c0.3,0.1,0.6,0.1,0.9,0.2c0.6,0,1.2,0,1.8,0
					c0.4,0,0.8,0,1.3,0c1.4,0,2.4-0.8,2.7-2.2l0.3-1.1c0.1-0.3,0.1-0.5,0.2-0.8c1,0,2,0,2.9,0c0.1,0.2,0.1,0.4,0.2,0.6
					c0.1,0.3,0.2,0.7,0.3,1.1l0.1,0.4c0.4,1.3,1.4,2,2.7,2c0,0,0,0,0,0h0.6c0.8,0,1.7,0,2.5,0c0.1,0,0.3,0,0.5,0
					c0.1,0,0.2-0.1,0.4-0.1c0.3,0.1,0.6,0.1,0.9,0.1c1.8,0,3.6,0,5.4,0c1.7,0,3.5,0,5.2,0c0.8,0,1.6-0.3,2.1-0.9
					c0.5-0.6,0.7-1.3,0.6-2.1c0-0.2-0.1-0.4-0.1-0.6c0,0,0,0,0,0c0,0,0,0,0,0c0.9,0,1.7,0,2.6,0c1.1,0,2.3,0,3.4,0
					c0.1,0.4,0.2,0.9,0.3,1.3c0.3,1.4,1.4,2.3,2.9,2.4c0.4,0,0.8,0,1.1,0c0.5,0,1,0,1.4,0c0.3,0,0.6,0,0.9-0.1
					c1-0.3,1.7-1.2,1.8-2.2c0-0.2,0-0.5-0.1-0.9c0-0.1-0.1-0.3-0.1-0.4c0,0,0.1,0,0.1,0c1.2-0.2,2.1-1.2,2.1-2.4
					C111.7,31.2,111.7,30.9,111.6,30.5z"/>
				<polygon points="4.7,31.4 12.9,36.4 21.1,28.6 				"/>
				<polygon points="107.8,37.3 115.4,32.4 111.7,25.8 				"/>
			</g>
			<g>
				<polygon points="42.9,27.5 81.1,27.5 86,43.7 38,43.7 				"/>
				<polygon class="st4" points="42.5,33.4 81.7,33.4 84,42.5 40,42.5 				"/>
			</g>
			<g>
				<path class="st2" d="M21.1,8.3c0.3,0,0.6,0.1,0.9,0.1c0.8,0.1,1.5,0.4,2.1,0.8c0.8,0.6,1.2,1.5,1.3,2.5c0.1,0.8,0,1.5-0.1,2.2
					c-0.4,2.4-0.8,4.8-1.2,7.2c-0.2,1.2-0.4,2.3-0.6,3.5c-0.3,1.6-1.1,3-2.4,4c-0.9,0.7-2,1.1-3.2,1.3C17.4,30,16.9,30,16.4,30
					c-3,0-6,0-9,0c-0.1,0-0.1,0-0.2,0c-0.4,0-0.6-0.3-0.5-0.6c0-0.3,0.1-0.6,0.2-0.8c0.6-2.4,1.1-4.8,1.7-7.3
					c0.5-2.4,1.1-4.8,1.6-7.1c0.4-1.7,0.8-3.4,1.2-5.1c0.1-0.4,0.3-0.6,0.7-0.7c0,0,0,0,0,0C15,8.3,18.1,8.3,21.1,8.3z M14.6,26
					c0.6,0,1.2,0,1.8,0c0.3,0,0.5,0,0.8-0.1c0.7-0.1,1.3-0.4,1.6-1.1c0.1-0.3,0.2-0.5,0.3-0.8c0.2-0.9,0.3-1.8,0.5-2.7
					c0.4-2.4,0.9-4.8,1.3-7.2c0.1-0.4,0.1-0.8,0.1-1.2c0-0.6-0.3-1-0.9-1.1c-0.3-0.1-0.6-0.1-0.9-0.1c-0.9,0-1.7,0-2.6,0
					c-0.4,0-0.8,0-1.2,0c-0.3,0-0.4,0.1-0.5,0.4c0,0,0,0.1,0,0.1c-0.9,4.4-1.9,8.9-2.8,13.3c0,0.1,0,0.1,0,0.2
					c0,0.2,0.1,0.3,0.2,0.3c0.1,0,0.1,0,0.2,0C13.2,26,13.9,26,14.6,26z"/>
				<path class="st2" d="M42.5,8.3c0.3,0,0.6,0.1,0.9,0.1c0.9,0.1,1.6,0.4,2.3,1c0.9,0.7,1.3,1.7,1.5,2.8c0.1,0.6,0,1.2,0,1.7
					c0,0.2,0,0.4,0,0.5c0,0.4-0.2,0.6-0.6,0.6c-0.1,0-0.2,0-0.2,0c-1,0-1.9,0-2.9,0c-0.6,0-0.8-0.2-0.7-0.8c0-0.3,0.1-0.7,0.1-1
					c0-0.2,0-0.5-0.1-0.7c-0.1-0.3-0.3-0.6-0.6-0.7c-0.2-0.1-0.5-0.2-0.7-0.2c-1,0-2.1,0-3.1,0c-0.1,0-0.3,0-0.4,0.1
					c-0.8,0.2-1.2,0.7-1.3,1.4c-0.1,0.7-0.2,1.3-0.2,2c-0.2,2-0.5,3.9-0.7,5.9c-0.1,1-0.2,1.9-0.3,2.9c0,0.3,0,0.6,0,0.9
					c0.1,0.4,0.4,0.7,0.8,0.9c0.3,0.1,0.6,0.2,1,0.2c0.9,0,1.7,0,2.6,0c0.3,0,0.5,0,0.8-0.1c0.8-0.1,1.2-0.6,1.3-1.4
					c0.1-0.5,0.1-1,0.2-1.5c0-0.4,0.1-0.8,0.1-1.2c0-0.3-0.1-0.4-0.4-0.4c-0.7,0-1.3,0-2,0c-0.1,0-0.2,0-0.3,0
					c-0.4,0-0.6-0.3-0.6-0.7c0.1-0.8,0.2-1.6,0.2-2.4c0-0.4,0.3-0.6,0.6-0.6c0.1,0,0.2,0,0.3,0c2,0,4,0,6,0c0.1,0,0.2,0,0.3,0
					c0.4,0,0.6,0.3,0.6,0.7c0,0.7-0.1,1.4-0.1,2.1c-0.1,0.8-0.1,1.5-0.2,2.3c-0.1,0.8-0.1,1.6-0.2,2.4c-0.4,2.4-2,4.1-4.3,4.7
					c-0.6,0.2-1.3,0.2-2,0.2c-1.4,0-2.8,0-4.3,0c-0.9,0-1.9-0.1-2.7-0.5c-1.5-0.6-2.3-1.8-2.5-3.3c-0.1-0.7-0.1-1.5,0-2.2
					c0.1-0.8,0.2-1.6,0.3-2.4c0.1-0.8,0.2-1.6,0.3-2.4c0.1-0.7,0.2-1.4,0.3-2.2c0.1-0.7,0.2-1.4,0.3-2.2c0.1-0.6,0.2-1.2,0.3-1.9
					c0.1-0.9,0.5-1.7,1-2.4c0.7-1,1.7-1.6,2.9-2c0.6-0.2,1.1-0.2,1.7-0.3c0,0,0.1,0,0.1,0C39.4,8.3,40.9,8.3,42.5,8.3z"/>
				<path class="st2" d="M75.6,8.3c0.1,0,0.1,0,0.2,0c0.3,0.1,0.6,0.3,0.7,0.6c0.8,2.4,1.7,4.7,2.5,7.1c1,2.8,2,5.6,3,8.4
					c0.6,1.6,1.1,3.2,1.7,4.8c0,0.1,0.1,0.2,0.1,0.3c0,0.2-0.1,0.4-0.3,0.4c-0.1,0-0.1,0-0.2,0c-1.2,0-2.4,0-3.6,0c0,0,0,0,0,0
					c-0.4,0-0.6-0.1-0.8-0.6c-0.2-0.6-0.4-1.2-0.6-1.7c-0.2-0.8-0.5-1.5-0.7-2.3c0-0.1-0.1-0.2-0.2-0.2c-2.3,0-4.6,0-6.8,0
					c-0.1,0-0.2,0-0.2,0.1c-0.3,1.3-0.6,2.7-0.9,4c-0.1,0.4-0.3,0.6-0.7,0.6c-1.2,0-2.4,0-3.6,0c-0.1,0-0.2,0-0.3,0
					c-0.1,0-0.2-0.1-0.2-0.3c0-0.1,0-0.3,0-0.4c1.3-4.9,2.5-9.8,3.8-14.7c0.5-1.8,1-3.7,1.4-5.5c0.1-0.4,0.4-0.7,0.8-0.7
					c0,0,0,0,0,0C72.3,8.3,73.9,8.3,75.6,8.3z M76.4,21.7c0-0.1,0-0.1,0-0.1c-0.1-0.4-0.2-0.7-0.3-1.1c-0.9-2.7-1.7-5.5-2.6-8.2
					c0-0.1,0-0.2-0.1-0.1c0,0-0.1,0.1-0.1,0.1c-0.1,0.6-0.3,1.1-0.4,1.7c-0.5,2.3-1,4.6-1.6,6.9c-0.1,0.3-0.1,0.5-0.2,0.8
					C72.8,21.7,74.6,21.7,76.4,21.7z"/>
				<path class="st2" d="M109.4,8.3c0.1,0,0.2,0,0.3,0.1c0.6,0.2,0.9,0.5,1,1.1c0.7,3.2,1.4,6.5,2.1,9.7c0.2,0.9,0.4,1.7,0.6,2.6
					c0,0.1,0.1,0.1,0.2,0.1c0.8,0,1.6,0,2.4,0c0.1,0,0.2,0,0.3,0c0.3,0.1,0.5,0.3,0.6,0.6c0.2,0.8,0.4,1.7,0.6,2.5
					c0,0.1,0,0.2,0,0.3c0,0.2-0.1,0.4-0.4,0.4c-0.1,0-0.2,0-0.3,0c-0.8,0-1.6,0-2.4,0c0,0-0.1,0-0.2,0c0.1,0.3,0.1,0.5,0.2,0.8
					c0.2,0.9,0.4,1.8,0.6,2.7c0,0.1,0,0.3,0,0.4c0,0.1-0.1,0.2-0.2,0.3c-0.1,0-0.2,0.1-0.3,0.1c-1,0-2,0-3,0c-0.5,0-0.8-0.3-0.9-0.7
					c-0.2-1.1-0.4-2.2-0.7-3.3c0-0.1-0.1-0.2-0.2-0.2c-3,0-5.9,0-8.9,0c-0.4,0-0.8-0.1-1.1-0.4c-0.3-0.2-0.4-0.5-0.5-0.8
					c-0.1-0.7-0.2-1.4-0.3-2.1c0-0.4,0-0.9,0.2-1.3c1.6-4,3.3-7.9,4.9-11.9c0.1-0.2,0.2-0.4,0.3-0.6c0.1-0.3,0.4-0.4,0.7-0.4
					c0,0,0.1,0,0.1,0C106.4,8.3,107.9,8.3,109.4,8.3z M103.2,21.9c2,0,3.9,0,5.9,0c-0.7-3.4-1.3-6.8-2-10.2c0,0,0,0,0,0
					C105.7,15.1,104.4,18.5,103.2,21.9z"/>
				<path class="st2" d="M86.4,8.3C86.4,8.4,86.5,8.4,86.4,8.3C86.8,8.4,87,8.6,87,9c0.1,1.1,0.2,2.2,0.4,3.3
					c0.1,1.3,0.3,2.6,0.4,3.9c0.1,1.3,0.3,2.6,0.4,3.9c0.2,1.5,0.3,3,0.5,4.4c0,0.3,0.1,0.6,0.1,0.9c0,0.4,0.2,0.5,0.6,0.5
					c2.5,0,5,0,7.5,0c0.7,0,1,0.2,1.1,0.9c0.1,0.8,0.2,1.6,0.4,2.4c0.1,0.5-0.2,0.7-0.6,0.7c-4.1,0-8.2,0-12.4,0
					c-0.5,0-0.8-0.2-0.8-0.7c-0.1-0.8-0.1-1.5-0.2-2.3c-0.1-1.6-0.3-3.2-0.4-4.8c-0.1-1.4-0.2-2.8-0.4-4.2c-0.1-1.5-0.3-3-0.4-4.5
					c-0.1-1.4-0.2-2.8-0.4-4.2c0-0.1,0-0.3,0-0.4c0-0.3,0.1-0.5,0.4-0.6c0,0,0.1,0,0.1,0C84.2,8.3,85.3,8.3,86.4,8.3z"/>
				<path class="st2" d="M67.6,8.3c0,0,0.1,0,0.1,0c0.2,0.1,0.4,0.2,0.4,0.5c0,0.8,0,1.5,0.1,2.3c0,0.3-0.2,0.5-0.5,0.5
					c-0.1,0-0.2,0-0.3,0c-1.3,0-2.5,0-3.8,0c-0.1,0-0.1,0-0.2,0c-0.2,0-0.3,0.1-0.3,0.3c0,0.1,0,0.1,0,0.2c0,5.6,0,11.2,0,16.8
					c0,0.1,0,0.2,0,0.3c0,0.4-0.3,0.6-0.7,0.6c-0.4,0-0.8,0-1.2,0c-0.6,0-1.3,0-1.9,0c-0.1,0-0.1,0-0.2,0c-0.5,0-0.7-0.3-0.7-0.8
					c0-1.6,0.1-3.1,0.1-4.7c0-1.4,0-2.7,0.1-4.1c0-2.8,0.1-5.5,0.1-8.3c0-0.3-0.1-0.4-0.4-0.4c-1.3,0-2.6,0-3.8,0
					c-0.1,0-0.2,0-0.3,0c-0.3-0.1-0.5-0.2-0.5-0.6c0-0.4,0-0.7,0-1.1c0-0.3,0-0.6,0-1c0-0.5,0.1-0.6,0.6-0.8
					C58.8,8.3,63.2,8.3,67.6,8.3z"/>
				<path class="st2" d="M31.1,8.3C31.1,8.4,31.1,8.4,31.1,8.3c0.4,0.1,0.5,0.3,0.4,0.6c0,0.3-0.1,0.7-0.1,1
					c-0.3,1.9-0.5,3.8-0.8,5.7c-0.3,2.1-0.6,4.1-0.9,6.2c-0.3,2.1-0.6,4.3-0.9,6.4c0,0.3-0.1,0.6-0.1,0.9c-0.1,0.5-0.4,0.8-0.9,0.8
					c-0.8,0-1.7,0-2.5,0c-0.3,0-0.5,0-0.8,0c-0.4,0-0.6-0.2-0.6-0.6c0-0.2,0-0.3,0.1-0.5c0.2-1.4,0.5-2.9,0.7-4.3
					c0.2-1.4,0.4-2.7,0.6-4.1c0.2-1.2,0.4-2.5,0.6-3.7c0.2-1.1,0.4-2.3,0.5-3.4c0.2-1.1,0.4-2.3,0.5-3.4c0.1-0.4,0.1-0.7,0.2-1.1
					c0.1-0.3,0.2-0.5,0.6-0.6c0,0,0,0,0,0C28.9,8.3,30,8.3,31.1,8.3z"/>
				<path class="st2" d="M52.5,8.3C52.5,8.4,52.5,8.4,52.5,8.3C52.8,8.4,53,8.6,53,8.9c0,0.3,0,0.7,0,1c-0.1,2.4-0.2,4.9-0.3,7.3
					c-0.1,1.8-0.2,3.6-0.2,5.4c-0.1,2.2-0.2,4.4-0.3,6.7c0,0.1,0,0.1,0,0.2C52,29.8,51.8,30,51.3,30c-0.5,0-0.9,0-1.4,0
					c-0.6,0-1.2,0-1.8,0c-0.1,0-0.1,0-0.2,0c-0.4,0-0.7-0.3-0.6-0.7c0-0.6,0.1-1.2,0.1-1.8c0.1-1.5,0.2-3.1,0.3-4.6
					c0.1-2.1,0.3-4.3,0.4-6.4c0.1-1.5,0.2-3,0.3-4.5c0.1-1,0.1-2,0.2-3c0-0.4,0.2-0.5,0.5-0.6c0,0,0,0,0,0
					C50.3,8.3,51.4,8.3,52.5,8.3z"/>
			</g>
			<g class="st8">
				<defs>
					<rect id="SVGID_55_" x="4.7" y="17.2" class="st8" width="113.8" height="22.3"/>
				</defs>
				<clipPath id="SVGID_5_">
					<use xlink:href="#SVGID_55_"  style="overflow:visible;"/>
				</clipPath>
				<linearGradient id="SVGID_7_" gradientUnits="userSpaceOnUse" x1="59.8856" y1="28.5378" x2="59.8856" y2="22.5599">
					<stop  offset="0" style="stop-color:#FFFFFF"/>
					<stop  offset="0.1275" style="stop-color:#FAFAFA"/>
					<stop  offset="0.2878" style="stop-color:#EAEAEA"/>
					<stop  offset="0.4656" style="stop-color:#D1D1D0"/>
					<stop  offset="0.6561" style="stop-color:#ADADAD"/>
					<stop  offset="0.8544" style="stop-color:#80807F"/>
					<stop  offset="1" style="stop-color:#5A5A59"/>
				</linearGradient>
				<path style="clip-path:url(#SVGID_5_);fill:url(#SVGID_7_);" d="M123.5-14.5H-3.7v25.3h14.6c-0.3,1.1-0.5,2.3-0.8,3.4
					c-0.5,2.4-1.1,4.8-1.6,7.1c-0.6,2.4-1.1,4.8-1.7,7.3c-0.1,0.3-0.1,0.6-0.2,0.8C6.6,29.8,6.8,30,7.2,30c0.1,0,0.1,0,0.2,0
					c3,0,6,0,9,0c0.5,0,1.1,0,1.6-0.1c1.2-0.2,2.2-0.6,3.2-1.3c1.3-1,2.1-2.4,2.4-4c0.2-1.2,0.4-2.3,0.6-3.5
					c0.4-2.4,0.8-4.8,1.2-7.2c0.1-0.7,0.2-1.5,0.1-2.2c0-0.4-0.1-0.7-0.2-1h1.7c-0.1,0.9-0.3,1.8-0.4,2.7c-0.2,1.1-0.4,2.3-0.5,3.4
					c-0.2,1.2-0.4,2.5-0.6,3.7c-0.2,1.4-0.4,2.7-0.6,4.1c-0.2,1.4-0.5,2.9-0.7,4.3c0,0.2-0.1,0.3-0.1,0.5c0,0.4,0.2,0.6,0.6,0.6
					c0.3,0,0.5,0,0.8,0c0.8,0,1.7,0,2.5,0c0.5,0,0.8-0.2,0.9-0.8c0-0.3,0.1-0.6,0.1-0.9c0.3-2.1,0.6-4.3,0.9-6.4
					c0.3-2.1,0.6-4.1,0.9-6.2c0.2-1.6,0.5-3.3,0.7-4.9H33c-0.5,0.7-0.8,1.5-0.9,2.3c-0.1,0.6-0.2,1.2-0.3,1.9
					c-0.1,0.7-0.2,1.4-0.3,2.2c-0.1,0.7-0.2,1.4-0.3,2.2c-0.1,0.8-0.2,1.6-0.3,2.4c-0.1,0.8-0.2,1.6-0.3,2.4c-0.1,0.7-0.1,1.5,0,2.2
					c0.2,1.6,1,2.7,2.5,3.3c0.9,0.4,1.8,0.5,2.7,0.5c1.4,0,2.8,0,4.3,0c0.7,0,1.3-0.1,2-0.2c2.3-0.6,3.9-2.2,4.3-4.7
					c0.1-0.8,0.2-1.6,0.2-2.4c0.1-0.8,0.1-1.5,0.2-2.3c0-0.7,0.1-1.4,0.1-2.1c0-0.4-0.2-0.7-0.6-0.7c-0.1,0-0.2,0-0.3,0
					c-2,0-4,0-6,0c-0.1,0-0.2,0-0.3,0c-0.4,0-0.6,0.3-0.6,0.6c-0.1,0.8-0.2,1.6-0.2,2.4c0,0.4,0.2,0.6,0.6,0.7c0.1,0,0.2,0,0.3,0
					c0.7,0,1.3,0,2,0c0.3,0,0.4,0.1,0.4,0.4c0,0.4-0.1,0.8-0.1,1.2c-0.1,0.5-0.1,1-0.2,1.5c-0.1,0.7-0.6,1.2-1.3,1.4
					c-0.3,0-0.5,0.1-0.8,0.1c-0.9,0-1.7,0-2.6,0c-0.3,0-0.7-0.1-1-0.2c-0.4-0.1-0.7-0.4-0.8-0.9c-0.1-0.3-0.1-0.6,0-0.9
					c0.1-1,0.2-1.9,0.3-2.9c0.2-2,0.4-3.9,0.7-5.9c0.1-0.7,0.1-1.3,0.2-2c0.1-0.8,0.5-1.3,1.3-1.4c0.1,0,0.3-0.1,0.4-0.1
					c1,0,2.1,0,3.1,0c0.2,0,0.5,0.1,0.7,0.2c0.3,0.1,0.5,0.4,0.6,0.7c0.1,0.2,0.1,0.5,0.1,0.7c0,0.3,0,0.7-0.1,1
					c0,0.6,0.1,0.8,0.7,0.8c1,0,1.9,0,2.9,0c0.1,0,0.2,0,0.2,0c0.4,0,0.6-0.3,0.6-0.6c0-0.2,0-0.4,0-0.5c0-0.6,0.1-1.2,0-1.7
					c-0.1-0.5-0.2-1-0.4-1.5h1.7c0,0.4-0.1,0.8-0.1,1.3c-0.1,1.5-0.2,3-0.3,4.5c-0.1,2.1-0.3,4.3-0.4,6.4c-0.1,1.5-0.2,3.1-0.3,4.6
					c0,0.6-0.1,1.2-0.1,1.8c0,0.4,0.2,0.7,0.6,0.7c0.1,0,0.1,0,0.2,0c0.6,0,1.2,0,1.8,0c0.5,0,0.9,0,1.4,0c0.4,0,0.7-0.2,0.7-0.6
					c0-0.1,0-0.1,0-0.2c0.1-2.2,0.2-4.4,0.3-6.7c0.1-1.8,0.2-3.6,0.2-5.4c0.1-2.2,0.2-4.3,0.3-6.5h0.8c0,0.2,0,0.3,0,0.5
					c0,0.3,0.2,0.5,0.5,0.6c0.1,0,0.2,0,0.3,0c1.3,0,2.6,0,3.8,0c0.3,0,0.4,0.1,0.4,0.4c0,2.8-0.1,5.5-0.1,8.3c0,1.4,0,2.7-0.1,4.1
					c0,1.6-0.1,3.1-0.1,4.7c0,0.5,0.2,0.7,0.7,0.8c0.1,0,0.1,0,0.2,0c0.6,0,1.3,0,1.9,0c0.4,0,0.8,0,1.2,0c0.4,0,0.7-0.2,0.7-0.6
					c0-0.1,0-0.2,0-0.3c0-5.6,0-11.2,0-16.8c0-0.1,0-0.1,0-0.2c0-0.2,0.1-0.3,0.3-0.3c0.1,0,0.1,0,0.2,0c1.3,0,2.5,0,3.8,0
					c0.1,0,0.2,0,0.3,0c0.3-0.1,0.5-0.3,0.5-0.5c0-0.2,0-0.3,0-0.5h1.1c-0.3,1.3-0.7,2.6-1,3.9c-1.3,4.9-2.5,9.8-3.8,14.7
					c0,0.1,0,0.3,0,0.4c0,0.1,0.1,0.2,0.2,0.3c0.1,0,0.2,0,0.3,0c1.2,0,2.4,0,3.6,0c0.4,0,0.6-0.2,0.7-0.6c0.3-1.3,0.6-2.7,0.9-4
					c0-0.1,0.1-0.1,0.2-0.1c2.3,0,4.6,0,6.8,0c0.1,0,0.2,0,0.2,0.2c0.2,0.8,0.5,1.5,0.7,2.3c0.2,0.6,0.4,1.2,0.6,1.7
					c0.1,0.4,0.3,0.6,0.8,0.6c0,0,0,0,0,0c1.2,0,2.4,0,3.6,0c0.1,0,0.1,0,0.2,0c0.2,0,0.3-0.2,0.3-0.4c0-0.1,0-0.2-0.1-0.3
					c-0.6-1.6-1.1-3.2-1.7-4.8c-1-2.8-2-5.6-3-8.4c-0.6-1.8-1.3-3.6-1.9-5.4h5.8c0.1,0.9,0.2,1.9,0.3,2.8c0.1,1.5,0.3,3,0.4,4.5
					c0.1,1.4,0.2,2.8,0.4,4.2c0.1,1.6,0.3,3.2,0.4,4.8c0.1,0.8,0.1,1.5,0.2,2.3c0.1,0.5,0.3,0.7,0.8,0.7c4.1,0,8.2,0,12.4,0
					c0.5,0,0.7-0.2,0.6-0.7c-0.1-0.8-0.2-1.6-0.4-2.4c-0.1-0.7-0.3-0.9-1.1-0.9c-2.5,0-5,0-7.5,0c-0.4,0-0.5-0.1-0.6-0.5
					c0-0.3-0.1-0.6-0.1-0.9c-0.2-1.5-0.3-3-0.5-4.4c-0.1-1.3-0.3-2.6-0.4-3.9c-0.1-1.3-0.3-2.6-0.4-3.9c-0.1-0.5-0.1-1-0.2-1.6h16.1
					c-1.4,3.5-2.9,7-4.3,10.5c-0.2,0.4-0.3,0.8-0.2,1.3c0.1,0.7,0.2,1.4,0.3,2.1c0.1,0.3,0.2,0.6,0.5,0.8c0.3,0.3,0.7,0.4,1.1,0.4
					c3,0,5.9,0,8.9,0c0.2,0,0.2,0,0.2,0.2c0.2,1.1,0.4,2.2,0.7,3.3c0.1,0.5,0.4,0.7,0.9,0.7c1,0,2,0,3,0c0.1,0,0.2,0,0.3-0.1
					c0.1,0,0.2-0.1,0.2-0.3c0-0.1,0-0.3,0-0.4c-0.2-0.9-0.4-1.8-0.6-2.7c-0.1-0.3-0.1-0.5-0.2-0.8c0.1,0,0.1,0,0.2,0
					c0.8,0,1.6,0,2.4,0c0.1,0,0.2,0,0.3,0c0.2,0,0.4-0.2,0.4-0.4c0-0.1,0-0.2,0-0.3c-0.2-0.8-0.4-1.7-0.6-2.5
					c-0.1-0.3-0.3-0.5-0.6-0.6c-0.1,0-0.2,0-0.3,0c-0.8,0-1.6,0-2.4,0c-0.1,0-0.1,0-0.2-0.1c-0.2-0.9-0.4-1.7-0.6-2.6
					c-0.6-2.8-1.2-5.6-1.8-8.4h12.6V-14.5z M20.8,14.1c-0.4,2.4-0.9,4.8-1.3,7.2c-0.2,0.9-0.3,1.8-0.5,2.7c-0.1,0.3-0.1,0.6-0.3,0.8
					c-0.3,0.7-0.9,1-1.6,1.1c-0.3,0-0.5,0-0.8,0.1c-0.6,0-1.2,0-1.8,0c-0.7,0-1.4,0-2.1,0c-0.1,0-0.1,0-0.2,0
					c-0.2,0-0.2-0.1-0.2-0.3c0-0.1,0-0.1,0-0.2c0.9-4.4,1.9-8.9,2.8-13.3c0,0,0-0.1,0-0.1c0.1-0.3,0.2-0.4,0.5-0.4
					c0.4,0,0.8,0,1.2,0c0.9,0,1.7,0,2.6,0c0.3,0,0.6,0,0.9,0.1C20.7,12,21,12.3,21,13C21,13.4,20.9,13.7,20.8,14.1z M71,21.7
					c0.1-0.3,0.1-0.5,0.2-0.8c0.5-2.3,1-4.6,1.6-6.9c0.1-0.6,0.3-1.1,0.4-1.7c0-0.1,0.1-0.1,0.1-0.1c0.1,0,0.1,0.1,0.1,0.1
					c0.9,2.7,1.7,5.5,2.6,8.2c0.1,0.4,0.2,0.7,0.3,1.1c0,0,0,0.1,0,0.1C74.6,21.7,72.8,21.7,71,21.7z M103.2,21.9
					c1.3-3.4,2.6-6.8,3.8-10.2c0,0,0,0,0,0c0.7,3.4,1.3,6.8,2,10.2C107.1,21.9,105.1,21.9,103.2,21.9z"/>
			</g>
			<g>
				<path class="st62" d="M21.1,8.3c0.3,0,0.6,0.1,0.9,0.1c0.8,0.1,1.5,0.4,2.1,0.8c0.8,0.6,1.2,1.5,1.3,2.5c0.1,0.8,0,1.5-0.1,2.2
					c-0.4,2.4-0.8,4.8-1.2,7.2c-0.2,1.2-0.4,2.3-0.6,3.5c-0.3,1.6-1.1,3-2.4,4c-0.9,0.7-2,1.1-3.2,1.3C17.4,30,16.9,30,16.4,30
					c-3,0-6,0-9,0c-0.1,0-0.1,0-0.2,0c-0.4,0-0.6-0.3-0.5-0.6c0-0.3,0.1-0.6,0.2-0.8c0.6-2.4,1.1-4.8,1.7-7.3
					c0.5-2.4,1.1-4.8,1.6-7.1c0.4-1.7,0.8-3.4,1.2-5.1c0.1-0.4,0.3-0.6,0.7-0.7c0,0,0,0,0,0C15,8.3,18.1,8.3,21.1,8.3z M14.6,26
					c0.6,0,1.2,0,1.8,0c0.3,0,0.5,0,0.8-0.1c0.7-0.1,1.3-0.4,1.6-1.1c0.1-0.3,0.2-0.5,0.3-0.8c0.2-0.9,0.3-1.8,0.5-2.7
					c0.4-2.4,0.9-4.8,1.3-7.2c0.1-0.4,0.1-0.8,0.1-1.2c0-0.6-0.3-1-0.9-1.1c-0.3-0.1-0.6-0.1-0.9-0.1c-0.9,0-1.7,0-2.6,0
					c-0.4,0-0.8,0-1.2,0c-0.3,0-0.4,0.1-0.5,0.4c0,0,0,0.1,0,0.1c-0.9,4.4-1.9,8.9-2.8,13.3c0,0.1,0,0.1,0,0.2
					c0,0.2,0.1,0.3,0.2,0.3c0.1,0,0.1,0,0.2,0C13.2,26,13.9,26,14.6,26z"/>
				<path class="st62" d="M42.5,8.3c0.3,0,0.6,0.1,0.9,0.1c0.9,0.1,1.6,0.4,2.3,1c0.9,0.7,1.3,1.7,1.5,2.8c0.1,0.6,0,1.2,0,1.7
					c0,0.2,0,0.4,0,0.5c0,0.4-0.2,0.6-0.6,0.6c-0.1,0-0.2,0-0.2,0c-1,0-1.9,0-2.9,0c-0.6,0-0.8-0.2-0.7-0.8c0-0.3,0.1-0.7,0.1-1
					c0-0.2,0-0.5-0.1-0.7c-0.1-0.3-0.3-0.6-0.6-0.7c-0.2-0.1-0.5-0.2-0.7-0.2c-1,0-2.1,0-3.1,0c-0.1,0-0.3,0-0.4,0.1
					c-0.8,0.2-1.2,0.7-1.3,1.4c-0.1,0.7-0.2,1.3-0.2,2c-0.2,2-0.5,3.9-0.7,5.9c-0.1,1-0.2,1.9-0.3,2.9c0,0.3,0,0.6,0,0.9
					c0.1,0.4,0.4,0.7,0.8,0.9c0.3,0.1,0.6,0.2,1,0.2c0.9,0,1.7,0,2.6,0c0.3,0,0.5,0,0.8-0.1c0.8-0.1,1.2-0.6,1.3-1.4
					c0.1-0.5,0.1-1,0.2-1.5c0-0.4,0.1-0.8,0.1-1.2c0-0.3-0.1-0.4-0.4-0.4c-0.7,0-1.3,0-2,0c-0.1,0-0.2,0-0.3,0
					c-0.4,0-0.6-0.3-0.6-0.7c0.1-0.8,0.2-1.6,0.2-2.4c0-0.4,0.3-0.6,0.6-0.6c0.1,0,0.2,0,0.3,0c2,0,4,0,6,0c0.1,0,0.2,0,0.3,0
					c0.4,0,0.6,0.3,0.6,0.7c0,0.7-0.1,1.4-0.1,2.1c-0.1,0.8-0.1,1.5-0.2,2.3c-0.1,0.8-0.1,1.6-0.2,2.4c-0.4,2.4-2,4.1-4.3,4.7
					c-0.6,0.2-1.3,0.2-2,0.2c-1.4,0-2.8,0-4.3,0c-0.9,0-1.9-0.1-2.7-0.5c-1.5-0.6-2.3-1.8-2.5-3.3c-0.1-0.7-0.1-1.5,0-2.2
					c0.1-0.8,0.2-1.6,0.3-2.4c0.1-0.8,0.2-1.6,0.3-2.4c0.1-0.7,0.2-1.4,0.3-2.2c0.1-0.7,0.2-1.4,0.3-2.2c0.1-0.6,0.2-1.2,0.3-1.9
					c0.1-0.9,0.5-1.7,1-2.4c0.7-1,1.7-1.6,2.9-2c0.6-0.2,1.1-0.2,1.7-0.3c0,0,0.1,0,0.1,0C39.4,8.3,40.9,8.3,42.5,8.3z"/>
				<path class="st62" d="M75.6,8.3c0.1,0,0.1,0,0.2,0c0.3,0.1,0.6,0.3,0.7,0.6c0.8,2.4,1.7,4.7,2.5,7.1c1,2.8,2,5.6,3,8.4
					c0.6,1.6,1.1,3.2,1.7,4.8c0,0.1,0.1,0.2,0.1,0.3c0,0.2-0.1,0.4-0.3,0.4c-0.1,0-0.1,0-0.2,0c-1.2,0-2.4,0-3.6,0c0,0,0,0,0,0
					c-0.4,0-0.6-0.1-0.8-0.6c-0.2-0.6-0.4-1.2-0.6-1.7c-0.2-0.8-0.5-1.5-0.7-2.3c0-0.1-0.1-0.2-0.2-0.2c-2.3,0-4.6,0-6.8,0
					c-0.1,0-0.2,0-0.2,0.1c-0.3,1.3-0.6,2.7-0.9,4c-0.1,0.4-0.3,0.6-0.7,0.6c-1.2,0-2.4,0-3.6,0c-0.1,0-0.2,0-0.3,0
					c-0.1,0-0.2-0.1-0.2-0.3c0-0.1,0-0.3,0-0.4c1.3-4.9,2.5-9.8,3.8-14.7c0.5-1.8,1-3.7,1.4-5.5c0.1-0.4,0.4-0.7,0.8-0.7
					c0,0,0,0,0,0C72.3,8.3,73.9,8.3,75.6,8.3z M76.4,21.7c0-0.1,0-0.1,0-0.1c-0.1-0.4-0.2-0.7-0.3-1.1c-0.9-2.7-1.7-5.5-2.6-8.2
					c0-0.1,0-0.2-0.1-0.1c0,0-0.1,0.1-0.1,0.1c-0.1,0.6-0.3,1.1-0.4,1.7c-0.5,2.3-1,4.6-1.6,6.9c-0.1,0.3-0.1,0.5-0.2,0.8
					C72.8,21.7,74.6,21.7,76.4,21.7z"/>
				<path class="st62" d="M109.4,8.3c0.1,0,0.2,0,0.3,0.1c0.6,0.2,0.9,0.5,1,1.1c0.7,3.2,1.4,6.5,2.1,9.7c0.2,0.9,0.4,1.7,0.6,2.6
					c0,0.1,0.1,0.1,0.2,0.1c0.8,0,1.6,0,2.4,0c0.1,0,0.2,0,0.3,0c0.3,0.1,0.5,0.3,0.6,0.6c0.2,0.8,0.4,1.7,0.6,2.5
					c0,0.1,0,0.2,0,0.3c0,0.2-0.1,0.4-0.4,0.4c-0.1,0-0.2,0-0.3,0c-0.8,0-1.6,0-2.4,0c0,0-0.1,0-0.2,0c0.1,0.3,0.1,0.5,0.2,0.8
					c0.2,0.9,0.4,1.8,0.6,2.7c0,0.1,0,0.3,0,0.4c0,0.1-0.1,0.2-0.2,0.3c-0.1,0-0.2,0.1-0.3,0.1c-1,0-2,0-3,0c-0.5,0-0.8-0.3-0.9-0.7
					c-0.2-1.1-0.4-2.2-0.7-3.3c0-0.1-0.1-0.2-0.2-0.2c-3,0-5.9,0-8.9,0c-0.4,0-0.8-0.1-1.1-0.4c-0.3-0.2-0.4-0.5-0.5-0.8
					c-0.1-0.7-0.2-1.4-0.3-2.1c0-0.4,0-0.9,0.2-1.3c1.6-4,3.3-7.9,4.9-11.9c0.1-0.2,0.2-0.4,0.3-0.6c0.1-0.3,0.4-0.4,0.7-0.4
					c0,0,0.1,0,0.1,0C106.4,8.3,107.9,8.3,109.4,8.3z M103.2,21.9c2,0,3.9,0,5.9,0c-0.7-3.4-1.3-6.8-2-10.2c0,0,0,0,0,0
					C105.7,15.1,104.4,18.5,103.2,21.9z"/>
				<path class="st62" d="M86.4,8.3C86.4,8.4,86.5,8.4,86.4,8.3C86.8,8.4,87,8.6,87,9c0.1,1.1,0.2,2.2,0.4,3.3
					c0.1,1.3,0.3,2.6,0.4,3.9c0.1,1.3,0.3,2.6,0.4,3.9c0.2,1.5,0.3,3,0.5,4.4c0,0.3,0.1,0.6,0.1,0.9c0,0.4,0.2,0.5,0.6,0.5
					c2.5,0,5,0,7.5,0c0.7,0,1,0.2,1.1,0.9c0.1,0.8,0.2,1.6,0.4,2.4c0.1,0.5-0.2,0.7-0.6,0.7c-4.1,0-8.2,0-12.4,0
					c-0.5,0-0.8-0.2-0.8-0.7c-0.1-0.8-0.1-1.5-0.2-2.3c-0.1-1.6-0.3-3.2-0.4-4.8c-0.1-1.4-0.2-2.8-0.4-4.2c-0.1-1.5-0.3-3-0.4-4.5
					c-0.1-1.4-0.2-2.8-0.4-4.2c0-0.1,0-0.3,0-0.4c0-0.3,0.1-0.5,0.4-0.6c0,0,0.1,0,0.1,0C84.2,8.3,85.3,8.3,86.4,8.3z"/>
				<path class="st62" d="M67.6,8.3c0,0,0.1,0,0.1,0c0.2,0.1,0.4,0.2,0.4,0.5c0,0.8,0,1.5,0.1,2.3c0,0.3-0.2,0.5-0.5,0.5
					c-0.1,0-0.2,0-0.3,0c-1.3,0-2.5,0-3.8,0c-0.1,0-0.1,0-0.2,0c-0.2,0-0.3,0.1-0.3,0.3c0,0.1,0,0.1,0,0.2c0,5.6,0,11.2,0,16.8
					c0,0.1,0,0.2,0,0.3c0,0.4-0.3,0.6-0.7,0.6c-0.4,0-0.8,0-1.2,0c-0.6,0-1.3,0-1.9,0c-0.1,0-0.1,0-0.2,0c-0.5,0-0.7-0.3-0.7-0.8
					c0-1.6,0.1-3.1,0.1-4.7c0-1.4,0-2.7,0.1-4.1c0-2.8,0.1-5.5,0.1-8.3c0-0.3-0.1-0.4-0.4-0.4c-1.3,0-2.6,0-3.8,0
					c-0.1,0-0.2,0-0.3,0c-0.3-0.1-0.5-0.2-0.5-0.6c0-0.4,0-0.7,0-1.1c0-0.3,0-0.6,0-1c0-0.5,0.1-0.6,0.6-0.8
					C58.8,8.3,63.2,8.3,67.6,8.3z"/>
				<path class="st62" d="M31.1,8.3C31.1,8.4,31.1,8.4,31.1,8.3c0.4,0.1,0.5,0.3,0.4,0.6c0,0.3-0.1,0.7-0.1,1
					c-0.3,1.9-0.5,3.8-0.8,5.7c-0.3,2.1-0.6,4.1-0.9,6.2c-0.3,2.1-0.6,4.3-0.9,6.4c0,0.3-0.1,0.6-0.1,0.9c-0.1,0.5-0.4,0.8-0.9,0.8
					c-0.8,0-1.7,0-2.5,0c-0.3,0-0.5,0-0.8,0c-0.4,0-0.6-0.2-0.6-0.6c0-0.2,0-0.3,0.1-0.5c0.2-1.4,0.5-2.9,0.7-4.3
					c0.2-1.4,0.4-2.7,0.6-4.1c0.2-1.2,0.4-2.5,0.6-3.7c0.2-1.1,0.4-2.3,0.5-3.4c0.2-1.1,0.4-2.3,0.5-3.4c0.1-0.4,0.1-0.7,0.2-1.1
					c0.1-0.3,0.2-0.5,0.6-0.6c0,0,0,0,0,0C28.9,8.3,30,8.3,31.1,8.3z"/>
				<path class="st62" d="M52.5,8.3C52.5,8.4,52.5,8.4,52.5,8.3C52.8,8.4,53,8.6,53,8.9c0,0.3,0,0.7,0,1c-0.1,2.4-0.2,4.9-0.3,7.3
					c-0.1,1.8-0.2,3.6-0.2,5.4c-0.1,2.2-0.2,4.4-0.3,6.7c0,0.1,0,0.1,0,0.2C52,29.8,51.8,30,51.3,30c-0.5,0-0.9,0-1.4,0
					c-0.6,0-1.2,0-1.8,0c-0.1,0-0.1,0-0.2,0c-0.4,0-0.7-0.3-0.6-0.7c0-0.6,0.1-1.2,0.1-1.8c0.1-1.5,0.2-3.1,0.3-4.6
					c0.1-2.1,0.3-4.3,0.4-6.4c0.1-1.5,0.2-3,0.3-4.5c0.1-1,0.1-2,0.2-3c0-0.4,0.2-0.5,0.5-0.6c0,0,0,0,0,0
					C50.3,8.3,51.4,8.3,52.5,8.3z"/>
			</g>
			<text transform="matrix(1 0 0 1 90.9341 17.124)" class="st4 st64 st65">//</text>
			<text transform="matrix(1 0 0 1 52.3166 41.1436)" class="st2 st66 st67">TECH</text>
			<g>
				<rect x="46.6" y="35.8" class="st11" width="1.1" height="4.1"/>
				
					<rect x="46.6" y="35.8" transform="matrix(-1.836970e-16 1 -1 -1.836970e-16 84.9764 -9.366)" class="st11" width="1.1" height="4.1"/>
			</g>
			<g>
				<circle class="st11" cx="76.8" cy="36.1" r="0.8"/>
				<circle class="st11" cx="76.8" cy="39.5" r="0.8"/>
				<circle class="st11" cx="78.5" cy="37.8" r="0.8"/>
				<circle class="st11" cx="75.2" cy="37.8" r="0.8"/>
			</g>
		</g>
	</g>
</g>
</svg>
