<?xml version="1.0" encoding="utf-8"?>
<!-- Generator: Adobe Illustrator 24.0.1, SVG Export Plug-In . SVG Version: 6.00 Build 0)  -->
<svg version="1.1" id="Capa_1" xmlns="http://www.w3.org/2000/svg" xmlns:xlink="http://www.w3.org/1999/xlink" x="0px" y="0px"
	 viewBox="0 0 663.9 646.4" style="enable-background:new 0 0 663.9 646.4;" xml:space="preserve">
<style type="text/css">
	.st0{fill-rule:evenodd;clip-rule:evenodd;fill:#0072B7;}
	.st1{fill-rule:evenodd;clip-rule:evenodd;}
	.st2{fill-rule:evenodd;clip-rule:evenodd;fill:#169F6F;}
</style>
<g>
	<path class="st1" d="M273.1,467.8h-25.5l-7.8-18.8h-42.5l-7.1,18.8h-25.1l38.3-94.9H231L273.1,467.8L273.1,467.8L273.1,467.8z
		 M217.6,395.6l-13.9,36.9h29.2L217.6,395.6L217.6,395.6z"/>
	<polygon class="st1" points="365.7,372.9 386.3,372.9 386.3,467.8 362.6,467.8 362.6,408.6 337,438.3 333.4,438.3 307.8,408.6 
		307.8,467.8 284.1,467.8 284.1,372.9 304.7,372.9 335.2,408.1 365.7,372.9 	"/>
	<path class="st1" d="M446.2,372.9c34.7,0,52.5,21.6,52.5,47.6c0,27.3-17.3,47.3-55.1,47.3h-39.2v-94.9H446.2L446.2,372.9
		L446.2,372.9z M428,450.4h15.4c23.8,0,30.9-16.1,30.9-30.1c0-16.3-8.8-30.1-31.2-30.1H428V450.4L428,450.4z"/>
	<polygon class="st2" points="376.1,226.5 297.9,226.5 250.3,178.8 424.7,178.5 424.7,353.1 376.1,304.3 376.1,226.5 	"/>
	<polygon class="st2" points="297.9,305.8 298.1,235.3 248.6,284.8 248.6,354.4 320.2,354.4 368.8,305.8 297.9,305.8 	"/>
</g>
</svg>
