<?xml version="1.0" encoding="utf-8"?>
<!-- Generator: Adobe Illustrator 24.0.1, SVG Export Plug-In . SVG Version: 6.00 Build 0)  -->
<svg version="1.1" id="Capa_1" xmlns="http://www.w3.org/2000/svg" xmlns:xlink="http://www.w3.org/1999/xlink" x="0px" y="0px"
	 viewBox="0 0 124 50" style="enable-background:new 0 0 124 50;" xml:space="preserve">
<style type="text/css">
	.st0{clip-path:url(#SVGID_2_);}
	.st1{opacity:0.9;}
	.st2{fill:#FFFFFF;}
	.st3{fill:none;stroke:#E31A52;stroke-width:0.2165;stroke-miterlimit:10;}
	.st4{fill:#E31A52;}
	.st5{clip-path:url(#SVGID_2_);fill:none;stroke:#E31A52;stroke-width:0.3632;stroke-miterlimit:10;}
	.st6{fill:#131313;}
	.st7{fill:none;stroke:#E31A52;stroke-width:2.5368;stroke-miterlimit:10;}
	.st8{opacity:0.52;}
	.st9{clip-path:url(#SVGID_4_);fill:url(#SVGID_5_);}
	.st10{fill:none;stroke:#FFFFFF;stroke-width:0.3888;stroke-miterlimit:10;}
	.st11{fill:#1C1C1B;}
	.st12{fill:#CECECE;}
	.st13{fill:#545454;}
	.st14{fill:#E31A52;stroke:#E31A52;stroke-width:0.5;stroke-miterlimit:10;}
	.st15{fill:#848484;}
	.st16{opacity:0.2;}
	.st17{fill:none;stroke:#E31A52;stroke-width:0.478;stroke-miterlimit:10;}
	.st18{clip-path:url(#SVGID_7_);fill:url(#SVGID_8_);}
	.st19{clip-path:url(#SVGID_10_);fill:url(#SVGID_11_);}
	.st20{clip-path:url(#SVGID_13_);}
	.st21{clip-path:url(#SVGID_13_);fill:url(#SVGID_14_);}
	.st22{clip-path:url(#SVGID_13_);fill:url(#SVGID_15_);}
	.st23{opacity:0.4;}
	.st24{fill:none;stroke:#E31A52;stroke-width:0.75;stroke-miterlimit:10;}
	.st25{fill:#C1C1C1;}
	.st26{fill:#808080;}
	.st27{clip-path:url(#SVGID_17_);fill:url(#SVGID_18_);}
	.st28{clip-path:url(#SVGID_20_);}
	.st29{clip-path:url(#SVGID_20_);fill:url(#SVGID_21_);}
	.st30{clip-path:url(#SVGID_20_);fill:url(#SVGID_22_);}
	.st31{opacity:0.33;fill:#131313;stroke:#E31A52;stroke-width:1.52;stroke-miterlimit:10;}
	.st32{fill:#FFFFFF;stroke:#E31A52;stroke-miterlimit:10;}
	.st33{fill:none;stroke:#E31A52;stroke-width:0.7184;stroke-miterlimit:10;}
	.st34{fill:#5E5E5E;}
	.st35{clip-path:url(#SVGID_24_);fill:url(#SVGID_25_);}
	.st36{fill:none;stroke:#E31A52;stroke-width:0.5;stroke-miterlimit:10;}
	.st37{fill:#005EA9;}
	.st38{fill:#E1061D;}
	.st39{fill:#005EA8;}
	.st40{clip-path:url(#SVGID_29_);}
	.st41{clip-path:url(#SVGID_35_);}
	.st42{clip-path:url(#SVGID_39_);}
	.st43{fill:#9B9B9B;}
	.st44{fill:none;stroke:#000000;stroke-width:0.478;stroke-miterlimit:10;}
	.st45{opacity:0.9;fill:#E31A52;}
	.st46{clip-path:url(#SVGID_43_);fill:url(#SVGID_44_);}
	.st47{fill:#E31A52;stroke:#E31A52;stroke-width:1.2934;stroke-miterlimit:10;}
	.st48{fill:none;stroke:#9B9B9B;stroke-width:0.5;stroke-miterlimit:10;}
	.st49{fill:none;stroke:#D80ECF;stroke-width:2;stroke-miterlimit:10;}
	.st50{fill:#D80ECF;}
	.st51{fill:none;stroke:#D80ECF;stroke-width:0.7382;stroke-miterlimit:10;}
	.st52{fill:none;stroke:#E31A52;stroke-width:1.1487;stroke-miterlimit:10;}
	.st53{clip-path:url(#SVGID_46_);fill:url(#SVGID_47_);}
	.st54{fill:none;stroke:#FFFFFF;stroke-width:0.1761;stroke-miterlimit:10;}
	.st55{fill:#E31A52;stroke:#E31A52;stroke-width:0.2264;stroke-miterlimit:10;}
	.st56{clip-path:url(#SVGID_49_);}
	.st57{clip-path:url(#SVGID_49_);fill:url(#SVGID_50_);}
	.st58{clip-path:url(#SVGID_49_);fill:url(#SVGID_51_);}
	.st59{fill:none;stroke:#E31A52;stroke-width:0.3396;stroke-miterlimit:10;}
	.st60{fill:none;stroke:#E31A52;stroke-width:1.6364;stroke-miterlimit:10;}
	.st61{clip-path:url(#SVGID_53_);fill:url(#SVGID_54_);}
	.st62{fill:none;stroke:#FFFFFF;stroke-width:0.2508;stroke-miterlimit:10;}
	.st63{clip-path:url(#SVGID_56_);fill:url(#SVGID_57_);}
	.st64{fill:#E31A52;stroke:#E31A52;stroke-width:0.4189;stroke-miterlimit:10;}
	.st65{fill:none;stroke:#E31A52;stroke-width:0.3632;stroke-miterlimit:10;}
	.st66{clip-path:url(#SVGID_59_);}
	.st67{fill:#888888;}
</style>
<g>
	<defs>
		<rect id="SVGID_48_" x="-598" y="-70.2" width="380" height="151.5"/>
	</defs>
	<clipPath id="SVGID_2_">
		<use xlink:href="#SVGID_48_"  style="overflow:visible;"/>
	</clipPath>
	
		<linearGradient id="SVGID_4_" gradientUnits="userSpaceOnUse" x1="11659.0176" y1="-7731.8022" x2="11722.5537" y2="-7731.8022" gradientTransform="matrix(-1 0 0 -1 11578 -7722)">
		<stop  offset="0" style="stop-color:#131313"/>
		<stop  offset="1" style="stop-color:#151515;stop-opacity:0"/>
	</linearGradient>
	<polygon style="clip-path:url(#SVGID_2_);fill:url(#SVGID_4_);" points="-150.5,-58 128.8,-58 128.8,77.6 -150.5,77.6 	"/>
</g>
<g class="st16">
	<g>
		<path class="st15" d="M120.6,24.8c-0.2-0.9-0.4-1.7-0.6-2.5c-0.4-1.6-1.6-2.8-3.2-3.1c0,0,0,0,0,0l-2.4-9.9c-0.6-2.3-2.6-4-5-4H13
			c-0.5,0-1,0.1-1.5,0.2c-0.2,0-0.4,0.1-0.6,0.1C9.4,6,8.3,7.2,8,8.8c-0.3,1.2-0.6,2.5-0.9,3.7L3.5,28.2l0,0.2
			c-0.1,0.2-0.1,0.5-0.2,0.8c-0.2,1.1,0.1,2.2,0.8,3.1c0.5,0.6,1.2,1.1,2,1.3l6.2,3.9c0.6,0.7,1.5,1.1,2.4,1.2c0.1,0,0.2,0,0.4,0
			l3.9,0c1.3,0,2.5,0,3.8,0c0.6,0,1.2,0,1.8-0.1c1-0.1,1.9-0.4,2.8-0.9c0.6,0.6,1.4,1,2.3,1c0.1,0,0.3,0,0.4,0l2.5,0
			c1,0,2-0.4,2.6-1c0.2,0.1,0.5,0.2,0.7,0.4c0.8,0.3,1.6,0.6,2.6,0.6l0.1-0.8v0.9h0.9l0.3-1c-0.1,0-0.2,0-0.3,0
			c-1.2,0-2.3-0.2-3.2-0.6c-0.4-0.2-0.8-0.4-1.2-0.7c-0.5,0.8-1.4,1.3-2.5,1.3c-0.6,0-1.1,0-1.7,0l-0.5,0c-0.1,0-0.1,0-0.2,0
			c-0.1,0-0.1,0-0.2,0c-0.1,0-0.2,0-0.4,0c-0.8,0-1.4-0.3-1.9-0.9c-0.1-0.1-0.2-0.2-0.3-0.4c-0.9,0.6-2,1-3.1,1.1
			c-0.5,0.1-1.1,0.1-1.7,0.1c-1.3,0-2.5,0-3.8,0c-0.7,0-1.3,0-2,0l-2,0l0,0c-0.1,0-0.2,0-0.3,0c-0.8,0-1.5-0.4-1.9-1l-6.4-4
			c-0.7-0.2-1.3-0.5-1.7-1.1C4.2,31,4,30.1,4.1,29.2c0-0.3,0.1-0.6,0.2-0.8c0-0.1,0-0.1,0-0.2c0.5-2,0.9-4,1.4-6l2.2-9.7
			c0.3-1.3,0.6-2.6,0.9-3.8c0.3-1.3,1.1-2.2,2.3-2.5c0.2-0.1,0.3-0.1,0.5-0.1C12,6,12.5,5.9,13,5.9h96.5c2,0,3.8,1.4,4.2,3.3
			l2.5,10.4c0.2,0,0.3,0,0.5,0.1c1.3,0.3,2.3,1.2,2.6,2.5c0.2,0.8,0.4,1.6,0.6,2.5c0.1,0.4,0.1,0.7,0.1,1c-0.1,1.4-1.1,2.5-2.5,2.8
			c-0.1,0-0.1,0-0.2,0c0,0.2,0.1,0.3,0.1,0.5c0.1,0.4,0.1,0.8,0.1,1c0,1.2-0.9,2.3-2,2.6l-6.4,4.1c-0.3,0.4-0.7,0.6-1.2,0.8
			c-0.3,0.1-0.6,0.1-0.9,0.1c-0.5,0-0.9,0-1.4,0c-0.4,0-0.7,0-1.1,0c-1.4,0-2.6-0.9-2.9-2.4c-0.1-0.4-0.2-0.9-0.3-1.3
			c-1.1,0-2.3,0-3.4,0c-0.9,0-1.7,0-2.6,0c0,0,0,0,0,0c0,0,0,0,0,0c0,0.2,0.1,0.4,0.1,0.6c0.1,0.8-0.1,1.6-0.6,2.1
			c-0.5,0.6-1.2,0.9-2.1,0.9c-1.7,0-3.5,0-5.2,0c-1.1,0-2.2,0-3.3,0l0.3,1l8.2,0c1.1,0,2-0.4,2.7-1.2c0.6-0.7,0.9-1.5,0.8-2.5l4.4,0
			c0,0.2,0.1,0.4,0.1,0.6c0.4,1.8,1.8,3,3.7,3l1.1,0c0.5,0,1,0,1.4,0c0.4,0,0.7-0.1,1.1-0.2c0.6-0.2,1.1-0.5,1.5-0.9l6.2-4
			c1.5-0.5,2.5-1.8,2.5-3.3c0-0.2,0-0.6,0-1c1.4-0.5,2.4-1.8,2.5-3.4C120.8,25.7,120.8,25.3,120.6,24.8z"/>
		<path class="st15" d="M42.4,33.7L40,42.7h44l-2.3-9.1H42.4z M76.8,35.6c0.5,0,0.8,0.4,0.8,0.8c0,0.5-0.4,0.8-0.8,0.8
			c-0.5,0-0.8-0.4-0.8-0.8C76,36,76.4,35.6,76.8,35.6z M49.2,38.7h-1.5v1.5h-1.1v-1.5h-1.5v-1.1h1.5V36h1.1v1.5h1.5V38.7z
			 M56.4,35.9c0,0.1-0.1,0.2-0.2,0.2H55c-0.1,0-0.1,0-0.1,0.1v5.1c0,0.1-0.1,0.2-0.2,0.2h-0.6c-0.1,0-0.2-0.1-0.2-0.2v-5.1
			c0-0.1,0-0.1-0.1-0.1h-1.2c-0.1,0-0.2-0.1-0.2-0.2v-0.5c0-0.1,0.1-0.2,0.2-0.2h3.6c0.1,0,0.2,0.1,0.2,0.2V35.9z M60.6,35.9
			c0,0.1-0.1,0.2-0.2,0.2h-2.2c-0.1,0-0.1,0-0.1,0.1v1.6c0,0.1,0,0.1,0.1,0.1h1.9c0.1,0,0.2,0.1,0.2,0.2v0.5c0,0.1-0.1,0.2-0.2,0.2
			h-1.9c-0.1,0-0.1,0-0.1,0.1v1.7c0,0.1,0,0.1,0.1,0.1h2.2c0.1,0,0.2,0.1,0.2,0.2v0.5c0,0.1-0.1,0.2-0.2,0.2h-3.1
			c-0.1,0-0.2-0.1-0.2-0.2v-5.9c0-0.1,0.1-0.2,0.2-0.2h3.1c0.1,0,0.2,0.1,0.2,0.2V35.9z M65.8,37.2c0,0.1-0.1,0.2-0.2,0.2H65
			c-0.1,0-0.2-0.1-0.2-0.2v-0.4c0-0.5-0.2-0.7-0.7-0.7h-0.8c-0.5,0-0.7,0.2-0.7,0.7v3.1c0,0.5,0.2,0.7,0.7,0.7h0.8
			c0.5,0,0.7-0.2,0.7-0.7v-0.4c0-0.1,0.1-0.2,0.2-0.2h0.6c0.1,0,0.2,0.1,0.2,0.2v0.5c0,0.5-0.1,0.8-0.4,1.1
			c-0.3,0.3-0.6,0.4-1.1,0.4h-1.1c-0.5,0-0.8-0.1-1.1-0.4c-0.3-0.3-0.4-0.6-0.4-1.1v-3.2c0-0.5,0.1-0.8,0.4-1.1
			c0.3-0.3,0.6-0.4,1.1-0.4h1.1c0.5,0,0.8,0.1,1.1,0.4c0.3,0.3,0.4,0.6,0.4,1.1V37.2z M71.1,41.3c0,0.1-0.1,0.2-0.2,0.2h-0.6
			c-0.1,0-0.2-0.1-0.2-0.2v-2.4c0-0.1,0-0.1-0.1-0.1h-2c-0.1,0-0.1,0-0.1,0.1v2.4c0,0.1-0.1,0.2-0.2,0.2h-0.6
			c-0.1,0-0.2-0.1-0.2-0.2v-5.9c0-0.1,0.1-0.2,0.2-0.2h0.6c0.1,0,0.2,0.1,0.2,0.2v2.4c0,0.1,0,0.1,0.1,0.1h2c0.1,0,0.1,0,0.1-0.1
			v-2.4c0-0.1,0.1-0.2,0.2-0.2h0.6c0.1,0,0.2,0.1,0.2,0.2V41.3z M75.2,38.9c-0.5,0-0.8-0.4-0.8-0.8c0-0.5,0.4-0.8,0.8-0.8
			s0.8,0.4,0.8,0.8C76,38.6,75.6,38.9,75.2,38.9z M76.8,40.6c-0.5,0-0.8-0.4-0.8-0.8c0-0.5,0.4-0.8,0.8-0.8c0.5,0,0.8,0.4,0.8,0.8
			C77.7,40.2,77.3,40.6,76.8,40.6z M78.5,38.9c-0.5,0-0.8-0.4-0.8-0.8c0-0.5,0.4-0.8,0.8-0.8c0.5,0,0.8,0.4,0.8,0.8
			C79.3,38.6,78.9,38.9,78.5,38.9z"/>
		<path class="st15" d="M78.9,16.4c-0.1-0.3-0.2-0.7-0.4-1c-0.7-2-1.4-4.1-2.1-6.1c-0.1-0.3-0.3-0.5-0.7-0.6c-0.1,0-0.1,0-0.2,0
			c-1.7,0-3.3,0-5,0c0,0,0,0,0,0c-0.4,0.1-0.7,0.3-0.8,0.7c-0.5,1.8-0.9,3.7-1.4,5.5c0,0,0,0.1,0,0.1c-0.2,0.8-0.4,1.6-0.6,2.4
			c0,0.1-0.1,0.3-0.1,0.4c-0.9,3.3-1.7,6.6-2.5,9.8c-0.2,0.6-0.3,1.2-0.5,1.8c0,0.1,0,0.1,0,0.2c0,0.1,0,0.1,0,0.2
			c0,0.1,0.1,0.2,0.2,0.3c0.1,0,0.2,0,0.3,0c1.2,0,2.4,0,3.6,0c0.2,0,0.3,0,0.4-0.1c0.1-0.1,0.2-0.2,0.3-0.4c0,0,0-0.1,0-0.1
			c0.1-0.6,0.3-1.1,0.4-1.7c0.2-0.8,0.4-1.5,0.5-2.3c0-0.1,0.1-0.1,0.2-0.1c2.3,0,4.6,0,6.8,0c0,0,0.1,0,0.1,0c0,0,0,0,0.1,0
			c0,0,0.1,0.1,0.1,0.1c0.2,0.7,0.5,1.4,0.7,2.2c0,0,0,0.1,0,0.1c0.2,0.6,0.4,1.2,0.6,1.7c0.1,0.4,0.3,0.6,0.8,0.6c0,0,0,0,0,0
			c0.8,0,1.5,0,2.3,0c0.4,0,0.9,0,1.3,0c0.1,0,0.1,0,0.2,0c0.2,0,0.3-0.2,0.3-0.4c0-0.1,0-0.2-0.1-0.3c-0.6-1.6-1.1-3.2-1.7-4.8
			C80.9,22,79.9,19.2,78.9,16.4z M71.1,22c0.1-0.3,0.1-0.5,0.2-0.8c0.3-1.2,0.6-2.5,0.8-3.7c0.2-0.9,0.4-1.8,0.6-2.7
			c0-0.2,0.1-0.4,0.1-0.6c0.1-0.6,0.3-1.1,0.4-1.7c0-0.1,0.1-0.1,0.1-0.1c0.1,0,0.1,0.1,0.1,0.1c0.2,0.8,0.5,1.5,0.7,2.3
			c0.3,0.9,0.6,1.8,0.8,2.6h0c0.4,1.1,0.7,2.2,1.1,3.3c0.1,0.4,0.2,0.7,0.3,1.1c0,0,0,0.1,0,0.1C74.6,22,72.8,22,71.1,22z"/>
		<path class="st15" d="M116.7,26.1c0.1,0,0.2,0,0.3,0c0.1,0,0.1,0,0.2-0.1c0.1-0.1,0.2-0.2,0.2-0.4c0,0,0-0.1,0-0.1
			c0,0,0-0.1,0-0.1c-0.2-0.8-0.4-1.7-0.6-2.5c-0.1-0.3-0.3-0.5-0.6-0.6c-0.1,0-0.2,0-0.3,0c-0.8,0-1.6,0-2.4,0c-0.1,0-0.1,0-0.2-0.1
			c-0.2-0.9-0.4-1.7-0.6-2.6c-0.1-0.7-0.3-1.3-0.4-2c-0.5-2.6-1.1-5.1-1.6-7.7c-0.1-0.6-0.5-0.9-1-1.1c-0.1,0-0.2,0-0.3-0.1
			c-1.5,0-2.9,0-4.4,0c0,0-0.1,0-0.1,0c-0.3,0-0.5,0.2-0.7,0.4c-0.1,0.2-0.2,0.4-0.3,0.6c-0.7,1.7-1.4,3.4-2.1,5.1
			c-0.9,2.3-1.9,4.5-2.8,6.8c0,0.1-0.1,0.2-0.1,0.3c-0.1,0.3-0.1,0.6-0.1,1c0.1,0.7,0.2,1.4,0.3,2.1c0,0.1,0,0.2,0.1,0.2
			c0.1,0.2,0.2,0.4,0.4,0.6c0.3,0.3,0.7,0.4,1.1,0.4c2.3,0,4.7,0,7,0c0.6,0,1.2,0,1.9,0c0.2,0,0.2,0,0.2,0.2c0,0.2,0.1,0.4,0.1,0.7
			c0.2,0.9,0.3,1.8,0.5,2.7c0,0,0,0,0,0.1c0.1,0.4,0.4,0.6,0.9,0.7c0.9,0,1.8,0,2.7,0c0.1,0,0.2,0,0.3,0c0.1,0,0.2,0,0.3-0.1
			c0.1,0,0.2-0.1,0.2-0.3c0-0.1,0-0.3,0-0.4c-0.2-0.9-0.4-1.8-0.6-2.7c-0.1-0.3-0.1-0.5-0.2-0.8c0.1,0,0.1,0,0.2,0
			C115.1,26.1,115.9,26.1,116.7,26.1z M106.9,22.2c-1.2,0-2.5,0-3.7,0c0.6-1.6,1.2-3.1,1.8-4.7c0.1-0.4,0.3-0.8,0.4-1.2
			c0.5-1.4,1.1-2.9,1.6-4.3c0,0,0,0,0,0c0.4,1.8,0.7,3.6,1.1,5.4h0c0.3,1.6,0.6,3.1,0.9,4.7C108.3,22.2,107.6,22.2,106.9,22.2z"/>
		<path class="st15" d="M67.8,8.7c0,0-0.1,0-0.1,0c-4.4,0-8.9,0-13.3,0c-0.5,0.2-0.5,0.3-0.6,0.8c0,0.3,0,0.6,0,1c0,0.4,0,0.7,0,1.1
			c0,0.2,0,0.3,0.1,0.4c0.1,0.1,0.2,0.2,0.3,0.2c0.1,0,0.2,0,0.3,0c1.3,0,2.6,0,3.8,0c0.1,0,0.2,0,0.2,0c0.1,0,0.2,0.1,0.2,0.2
			c0,0.1,0,0.1,0,0.2c0,0.6,0,1.2,0,1.8c0,2.2-0.1,4.3-0.1,6.5c0,1.4,0,2.7-0.1,4.1c0,1,0,1.9,0,2.9c0,0.6,0,1.2,0,1.8
			c0,0.2,0.1,0.4,0.2,0.6c0.1,0.1,0.3,0.2,0.5,0.2c0.1,0,0.1,0,0.2,0c0.6,0,1.3,0,1.9,0c0.4,0,0.8,0,1.2,0c0.4,0,0.7-0.2,0.7-0.6
			c0-0.1,0-0.2,0-0.3c0-0.6,0-1.1,0-1.7c0-3.4,0-6.9,0-10.3c0-1,0-2,0-2.9c0-0.7,0-1.3,0-2c0-0.1,0-0.1,0-0.2c0-0.1,0.1-0.2,0.2-0.3
			c0,0,0.1,0,0.1,0c0.1,0,0.1,0,0.2,0c1.3,0,2.6,0,3.8,0c0.1,0,0.2,0,0.3,0c0.3-0.1,0.5-0.3,0.5-0.5c0-0.8,0-1.5-0.1-2.3
			C68.2,8.9,68,8.7,67.8,8.7z"/>
		<path class="st15" d="M24.8,17.5c0.1-0.9,0.3-1.8,0.4-2.7c0-0.2,0.1-0.3,0.1-0.5c0.1-0.7,0.2-1.5,0.1-2.2c-0.1-1-0.5-1.8-1.3-2.5
			c-0.6-0.5-1.3-0.7-2.1-0.8c-0.3,0-0.6-0.1-0.9-0.1c-3.1,0-6.1,0-9.2,0c0,0,0,0,0,0c-0.4,0.1-0.6,0.3-0.7,0.7
			c-0.4,1.7-0.8,3.4-1.2,5.1c-0.5,2.4-1.1,4.8-1.6,7.1c-0.6,2.4-1.1,4.8-1.7,7.3c0,0.1-0.1,0.3-0.1,0.4c0,0.1-0.1,0.3-0.1,0.4
			c-0.1,0.3,0,0.5,0.3,0.6c0.1,0,0.2,0.1,0.3,0.1c0.1,0,0.1,0,0.2,0c1.8,0,3.6,0,5.5,0c1.2,0,2.4,0,3.6,0c0.5,0,1.1,0,1.6-0.1
			c1.2-0.2,2.2-0.6,3.2-1.3c0.8-0.6,1.4-1.4,1.9-2.3c0.3-0.5,0.4-1.1,0.6-1.7c0.1-0.5,0.2-1,0.3-1.5c0-0.2,0.1-0.4,0.1-0.5
			c0.1-0.5,0.2-1,0.2-1.5C24.3,20.1,24.5,18.8,24.8,17.5z M19.5,21.6c-0.2,0.9-0.3,1.8-0.5,2.7c0,0.1-0.1,0.3-0.1,0.4
			c0,0.1-0.1,0.3-0.2,0.4c-0.1,0.2-0.2,0.3-0.3,0.5c-0.2,0.3-0.6,0.5-0.9,0.6c-0.1,0-0.3,0.1-0.4,0.1c-0.3,0-0.5,0-0.8,0.1
			c-0.6,0-1.2,0-1.8,0c-0.2,0-0.4,0-0.7,0c-0.5,0-0.9,0-1.4,0c-0.1,0-0.1,0-0.2,0c-0.1,0-0.1,0-0.2-0.1c0,0-0.1-0.1,0-0.2
			c0-0.1,0-0.1,0-0.2c0.6-2.8,1.2-5.6,1.8-8.4c0.3-1.6,0.7-3.3,1-4.9c0,0,0-0.1,0-0.1c0-0.1,0-0.1,0.1-0.2c0.1-0.1,0.1-0.2,0.2-0.2
			c0.1,0,0.1,0,0.2,0c0.4,0,0.8,0,1.2,0c0.4,0,0.9,0,1.3,0c0.4,0,0.9,0,1.3,0c0.3,0,0.6,0,0.9,0.1c0.1,0,0.1,0,0.2,0.1
			c0.1,0,0.2,0.1,0.3,0.2c0.2,0.2,0.3,0.5,0.3,0.9c0,0.4-0.1,0.8-0.1,1.2c0,0.1,0,0.3-0.1,0.4c-0.2,0.9-0.3,1.8-0.5,2.7
			C20,18.8,19.7,20.2,19.5,21.6z"/>
		<path class="st15" d="M31.1,28c0.3,0.5,0.6,0.9,1,1.2c0.1,0.1,0.3,0.2,0.5,0.3c0.2,0.1,0.3,0.2,0.5,0.3c0.2,0.1,0.4,0.2,0.7,0.2
			c0.4,0.1,0.9,0.2,1.4,0.2c0.2,0,0.5,0,0.7,0c1.4,0,2.8,0,4.3,0c0.7,0,1.3-0.1,2-0.2c0,0,0.1,0,0.1,0c1.4-0.4,2.5-1.2,3.3-2.3
			c0.4-0.7,0.7-1.4,0.9-2.3c0.1-0.6,0.1-1.2,0.2-1.8c0-0.2,0-0.4,0-0.6c0.1-0.8,0.1-1.5,0.2-2.3c0-0.7,0.1-1.4,0.1-2.1
			c0-0.4-0.2-0.7-0.6-0.7c-0.1,0-0.2,0-0.3,0c-2,0-4,0-6,0c-0.1,0-0.2,0-0.3,0c-0.4,0-0.6,0.3-0.6,0.6c-0.1,0.8-0.2,1.6-0.2,2.4
			c0,0.2,0,0.4,0.2,0.5c0,0,0.1,0.1,0.1,0.1c0.1,0,0.2,0.1,0.3,0.1c0.1,0,0.2,0,0.3,0c0.7,0,1.3,0,2,0c0.3,0,0.4,0.1,0.4,0.4
			c0,0.4-0.1,0.8-0.1,1.2c0,0.3,0,0.5-0.1,0.8c0,0.3-0.1,0.5-0.1,0.8c0,0.2-0.1,0.4-0.2,0.5c-0.1,0.2-0.2,0.3-0.3,0.4
			c-0.2,0.2-0.5,0.4-0.9,0.5c-0.3,0-0.5,0.1-0.8,0.1c-0.9,0-1.7,0-2.6,0c-0.3,0-0.7-0.1-1-0.2c-0.3-0.1-0.6-0.3-0.7-0.6
			c0-0.1-0.1-0.2-0.1-0.3c0-0.2,0-0.3-0.1-0.5c0-0.2,0-0.3,0-0.5c0-0.5,0.1-1,0.2-1.5c0.1-0.5,0.1-1,0.2-1.4c0.2-1.3,0.3-2.7,0.5-4
			c0.1-0.6,0.1-1.3,0.2-1.9c0-0.2,0-0.4,0.1-0.6c0.1-0.5,0.1-0.9,0.2-1.4c0-0.3,0.1-0.5,0.3-0.7c0.1-0.1,0.2-0.3,0.3-0.4
			c0.1-0.1,0.1-0.1,0.2-0.1c0.2-0.1,0.3-0.1,0.5-0.2c0.1,0,0.3-0.1,0.4-0.1c1,0,2.1,0,3.1,0c0.1,0,0.2,0,0.4,0.1
			c0.1,0,0.1,0,0.2,0.1c0.1,0,0.1,0,0.2,0.1c0.1,0,0.2,0.1,0.2,0.1c0.2,0.1,0.3,0.3,0.4,0.6c0.1,0.2,0.1,0.5,0.1,0.7
			c0,0.2,0,0.3,0,0.5c0,0.2,0,0.3,0,0.5c0,0.1,0,0.1,0,0.1c0,0.5,0.2,0.7,0.7,0.7c1,0,1.9,0,2.9,0c0.1,0,0.2,0,0.2,0
			c0.3,0,0.4-0.2,0.5-0.4c0-0.1,0.1-0.2,0.1-0.3c0-0.2,0-0.4,0-0.5c0-0.4,0.1-0.9,0-1.3c0-0.1,0-0.3,0-0.4c-0.1-1.1-0.6-2.1-1.5-2.8
			c-0.7-0.5-1.5-0.8-2.3-1c-0.3-0.1-0.6-0.1-0.9-0.1c-1.6,0-3.1,0-4.7,0c0,0-0.1,0-0.1,0c-0.6,0-1.1,0.1-1.7,0.3
			c-1.2,0.3-2.2,1-2.9,2c-0.5,0.7-0.8,1.6-1,2.4c-0.1,0.5-0.2,1-0.2,1.6c0,0.1,0,0.2,0,0.3c-0.1,0.7-0.2,1.4-0.3,2.2
			c0,0,0,0.1,0,0.1c-0.1,0.7-0.2,1.4-0.3,2.1c-0.1,0.8-0.2,1.6-0.3,2.4c-0.1,0.8-0.2,1.6-0.3,2.4c-0.1,0.4-0.1,0.7-0.1,1.1
			c0,0.4,0,0.7,0.1,1.1C30.7,27.1,30.8,27.6,31.1,28z"/>
		<path class="st15" d="M88.8,25.8c0-0.3-0.1-0.6-0.1-0.9c-0.2-1.5-0.3-3-0.5-4.4c-0.1-1-0.2-2-0.3-2.9c0-0.3-0.1-0.7-0.1-1
			c-0.1-1.3-0.3-2.6-0.4-3.9c-0.1-1.1-0.2-2.2-0.4-3.3c0-0.3-0.2-0.5-0.5-0.6c0,0,0,0-0.1,0c-1.1,0-2.2,0-3.3,0c0,0-0.1,0-0.1,0
			c-0.3,0.1-0.4,0.3-0.4,0.6c0,0.2,0,0.3,0,0.5c0.1,1.4,0.2,2.8,0.4,4.2c0,0.3,0.1,0.6,0.1,1c0.1,0.9,0.2,1.8,0.2,2.7
			c0,0.3,0.1,0.6,0.1,0.9c0.1,1.4,0.2,2.8,0.4,4.2c0.1,1.6,0.3,3.2,0.4,4.8c0,0.4,0.1,0.8,0.1,1.2c0,0.4,0.1,0.8,0.1,1.2
			c0,0.1,0,0.2,0.1,0.3c0,0.1,0.1,0.2,0.2,0.2c0.1,0.1,0.3,0.2,0.6,0.2c4.1,0,8.2,0,12.4,0c0.5,0,0.7-0.2,0.6-0.7
			c-0.1-0.8-0.2-1.6-0.4-2.4c-0.1-0.7-0.3-0.9-1.1-0.9c-1.6,0-3.1,0-4.7,0c-0.9,0-1.9,0-2.8,0C89,26.3,88.9,26.2,88.8,25.8z"/>
		<path class="st15" d="M24.5,30.3c0.3,0,0.5,0,0.8,0c0.8,0,1.7,0,2.5,0c0.1,0,0.1,0,0.2,0c0.1,0,0.2,0,0.3-0.1c0,0,0.1,0,0.1-0.1
			c0,0,0,0,0,0c0.1-0.1,0.1-0.1,0.2-0.2c0,0,0-0.1,0.1-0.2c0-0.1,0-0.1,0-0.2c0-0.3,0.1-0.6,0.1-0.9c0.3-2.1,0.6-4.3,0.9-6.4
			c0.2-1.6,0.4-3.1,0.7-4.7c0.1-0.5,0.1-1,0.2-1.5c0-0.1,0-0.1,0-0.2c0.3-1.8,0.5-3.6,0.8-5.5c0-0.3,0.1-0.7,0.1-1
			c0-0.3-0.1-0.5-0.4-0.6c0,0,0,0,0,0c-1.1,0-2.2,0-3.3,0c0,0,0,0,0,0c-0.3,0.1-0.5,0.3-0.6,0.6c-0.1,0.4-0.1,0.7-0.2,1.1
			c-0.2,1.1-0.4,2.3-0.5,3.4c-0.1,0.4-0.1,0.7-0.2,1.1c-0.1,0.8-0.2,1.5-0.4,2.3c-0.2,1.2-0.4,2.5-0.6,3.7c-0.2,1.4-0.4,2.7-0.6,4.1
			c-0.2,1.4-0.5,2.9-0.7,4.3c0,0.2-0.1,0.3-0.1,0.5C23.9,30.1,24.1,30.3,24.5,30.3z"/>
		<path class="st15" d="M48,30.3c0.1,0,0.1,0,0.2,0c0,0,0,0,0,0c0.6,0,1.2,0,1.8,0c0.5,0,0.9,0,1.4,0c0.2,0,0.4-0.1,0.5-0.2
			c0.1-0.1,0.2-0.2,0.2-0.4c0-0.1,0-0.1,0-0.2c0-0.6,0.1-1.2,0.1-1.8c0.1-1.6,0.1-3.3,0.2-4.9c0.1-1.8,0.2-3.6,0.2-5.4
			c0-0.9,0.1-1.8,0.1-2.7c0.1-1.5,0.1-3.1,0.2-4.6c0-0.3,0-0.7,0-1c0-0.3-0.1-0.5-0.4-0.5c0,0-0.1,0-0.1,0c-1.1,0-2.2,0-3.3,0
			c0,0,0,0,0,0c-0.4,0.1-0.5,0.3-0.5,0.6c-0.1,1-0.1,2-0.2,3c-0.1,1.1-0.1,2.1-0.2,3.2c0,0.4-0.1,0.9-0.1,1.3c0,0.2,0,0.4,0,0.7
			c-0.1,1.9-0.2,3.8-0.4,5.7c-0.1,1.5-0.2,3-0.3,4.5c0,0,0,0.1,0,0.1c0,0.6-0.1,1.2-0.1,1.8c0,0.1,0,0.2,0,0.3
			C47.5,30.2,47.7,30.3,48,30.3z"/>
		<path class="st15" d="M95.4,8.9h-0.6c-0.1,0-0.2,0.1-0.3,0.2c-0.1,0.3-0.6,1.6-1.5,4c-0.9,2.4-1.4,3.8-1.5,4.1
			c-0.1,0.1,0,0.2,0.2,0.2h0.5c0.1,0,0.2-0.1,0.3-0.2l2.9-8.1C95.6,9,95.6,8.9,95.4,8.9z"/>
		<path class="st15" d="M98.7,8.9h-0.6c-0.1,0-0.2,0.1-0.3,0.2c-0.1,0.3-0.6,1.6-1.5,4c-0.9,2.4-1.4,3.8-1.5,4.1
			c-0.1,0.1,0,0.2,0.2,0.2h0.5c0.1,0,0.2-0.1,0.3-0.2l2.9-8.1C98.9,9,98.9,8.9,98.7,8.9z"/>
	</g>
</g>
</svg>
